{
.appVersion = "1057";
classes = (
{
code = "sterling fi Ebreve ae ebreve less asciitilde hyphen uni040D caron ij comma asciicircum E quotesingle periodcentered Odieresis six three tcommaaccent uni018F slash A ordmasculine C B AE greater degree H K J M O uni0306 P S IJ T Tcommaaccent Y X fl uni0326 a c b e i h OE j l o n p s r u t oe y x k uni0439";
name = default;
},
{
code = "sterling.calt0 fi.calt0 Ebreve.calt0 ae.calt0 ebreve.calt0 less.calt0 asciitilde.calt0 hyphen.calt0 uni040D.calt0 caron.calt0 ij.calt0 comma.calt0 asciicircum.calt0 E.calt0 quotesingle.calt0 periodcentered.calt0 Odieresis.calt0 six.calt0 three.calt0 tcommaaccent.calt0 uni018F.calt0 slash.calt0 A.calt0 ordmasculine.calt0 C.calt0 B.calt0 AE.calt0 greater.calt0 degree.calt0 H.calt0 K.calt0 J.calt0 M.calt0 O.calt0 uni0306.calt0 P.calt0 S.calt0 IJ.calt0 T.calt0 Tcommaaccent.calt0 Y.calt0 X.calt0 fl.calt0 uni0326.calt0 a.calt0 c.calt0 b.calt0 e.calt0 i.calt0 h.calt0 OE.calt0 j.calt0 l.calt0 o.calt0 n.calt0 p.calt0 s.calt0 r.calt0 u.calt0 t.calt0 oe.calt0 y.calt0 x.calt0 k.calt0 uni0439.calt0";
name = calt0;
},
{
code = "sterling.calt1 fi.calt1 Ebreve.calt1 ae.calt1 ebreve.calt1 less.calt1 asciitilde.calt1 hyphen.calt1 uni040D.calt1 caron.calt1 ij.calt1 comma.calt1 asciicircum.calt1 E.calt1 quotesingle.calt1 periodcentered.calt1 Odieresis.calt1 six.calt1 three.calt1 tcommaaccent.calt1 uni018F.calt1 slash.calt1 A.calt1 ordmasculine.calt1 C.calt1 B.calt1 AE.calt1 greater.calt1 degree.calt1 H.calt1 K.calt1 J.calt1 M.calt1 O.calt1 uni0306.calt1 P.calt1 S.calt1 IJ.calt1 T.calt1 Tcommaaccent.calt1 Y.calt1 X.calt1 fl.calt1 uni0326.calt1 a.calt1 c.calt1 b.calt1 e.calt1 i.calt1 h.calt1 OE.calt1 j.calt1 l.calt1 o.calt1 n.calt1 p.calt1 s.calt1 r.calt1 u.calt1 t.calt1 oe.calt1 y.calt1 x.calt1 k.calt1 uni0439.calt1";
name = calt1;
},
{

glyphs = (
{
glyphname = .notdef;
lastChange = "2019-02-02 11:40:47 +0000";
layers = (
{
layerId = "1053487F-6E39-46EB-834B-3FE95151DC2D";
paths = (
{
closed = 1;
nodes = (
"32 0 LINE",
"440 0 LINE",
"440 780 LINE",
"32 780 LINE"
);
},
{
closed = 1;
nodes = (
"75 43 LINE",
"75 737 LINE",
"397 737 LINE",
"397 43 LINE"
);
}
);
width = 472;
}
);
note = .notdef;
},
{
glyphname = a;
lastChange = "2019-02-02 11:40:47 +0000";
layers = (
{
layerId = "1053487F-6E39-46EB-834B-3FE95151DC2D";
paths = (
{
closed = 1;
nodes = (
"503 0 LINE",
"503 50 LINE",
"434 50 LINE",
"434 353 LINE SMOOTH",
"434 461 OFFCURVE",
"367 524 OFFCURVE",
"248 524 CURVE SMOOTH",
"155 524 OFFCURVE",
"98 480 OFFCURVE",
"70 421 CURVE",
"106 391 LINE",
"134 444 OFFCURVE",
"178 474 OFFCURVE",
"246 474 CURVE SMOOTH",
"333 474 OFFCURVE",
"377 431 OFFCURVE",
"377 347 CURVE SMOOTH",
"377 287 LINE",
"259 287 LINE SMOOTH",
"111 287 OFFCURVE",
"51 230 OFFCURVE",
"51 139 CURVE SMOOTH",
"51 44 OFFCURVE",
"113 -12 OFFCURVE",
"220 -12 CURVE SMOOTH",
"300 -12 OFFCURVE",
"352 24 OFFCURVE",
"375 81 CURVE",
"380 81 LINE",
"380 63 LINE",
"383 25 OFFCURVE",
"401 0 OFFCURVE",
"445 0 CURVE SMOOTH"
);
},
{
closed = 1;
nodes = (
"158 37 OFFCURVE",
"111 69 OFFCURVE",
"111 128 CURVE SMOOTH",
"111 152 LINE SMOOTH",
"111 209 OFFCURVE",
"155 244 OFFCURVE",
"257 244 CURVE SMOOTH",
"377 244 LINE",
"377 149 LINE SMOOTH",
"377 80 OFFCURVE",
"311 37 OFFCURVE",
"228 37 CURVE SMOOTH"
);
}
);
width = 527;
}
);
leftKerningGroup = a;
note = a;
rightKerningGroup = a;
unicode = 0061;
},
{
glyphname = a.alt01;
lastChange = "2019-02-02 11:40:47 +0000";
layers = (
{
layerId = "1053487F-6E39-46EB-834B-3FE95151DC2D";
paths = (
{
closed = 1;
nodes = (
"424 0 LINE",
"481 0 LINE",
"481 512 LINE",
"424 512 LINE",
"424 430 LINE",
"421 430 LINE",
"396 487 OFFCURVE",
"343 524 OFFCURVE",
"265 524 CURVE SMOOTH",
"134 524 OFFCURVE",
"54 425 OFFCURVE",
"54 256 CURVE SMOOTH",
"54 87 OFFCURVE",
"134 -12 OFFCURVE",
"265 -12 CURVE SMOOTH",
"343 -12 OFFCURVE",
"394 25 OFFCURVE",
"421 82 CURVE",
"424 82 LINE"
);
},
{
closed = 1;
nodes = (
"176 39 OFFCURVE",
"115 110 OFFCURVE",
"115 220 CURVE SMOOTH",
"115 292 LINE SMOOTH",
"115 402 OFFCURVE",
"176 473 OFFCURVE",
"278 473 CURVE SMOOTH",
"357 473 OFFCURVE",
"424 426 OFFCURVE",
"424 359 CURVE SMOOTH",
"424 156 LINE SMOOTH",
"424 84 OFFCURVE",
"357 39 OFFCURVE",
"278 39 CURVE SMOOTH"
);
}
);
width = 574;
}
);
leftKerningGroup = a.alt01;
note = a.alt01;
rightKerningGroup = a.alt01;
},
{
glyphname = b;
lastChange = "2019-02-02 11:40:47 +0000";
layers = (
{
layerId = "1053487F-6E39-46EB-834B-3FE95151DC2D";
paths = (
{
closed = 1;
nodes = (
"93 0 LINE",
"150 0 LINE",
"150 82 LINE",
"153 82 LINE",
"181 25 OFFCURVE",
"231 -12 OFFCURVE",
"309 -12 CURVE SMOOTH",
"440 -12 OFFCURVE",
"520 87 OFFCURVE",
"520 256 CURVE SMOOTH",
"520 425 OFFCURVE",
"440 524 OFFCURVE",
"309 524 CURVE SMOOTH",
"231 524 OFFCURVE",
"178 487 OFFCURVE",
"153 430 CURVE",
"150 430 LINE",
"150 740 LINE",
"93 740 LINE"
);
},
{
closed = 1;
nodes = (
"217 39 OFFCURVE",
"150 84 OFFCURVE",
"150 156 CURVE SMOOTH",
"150 359 LINE SMOOTH",
"150 426 OFFCURVE",
"217 473 OFFCURVE",
"296 473 CURVE SMOOTH",
"398 473 OFFCURVE",
"459 402 OFFCURVE",
"459 292 CURVE SMOOTH",
"459 220 LINE SMOOTH",
"459 110 OFFCURVE",
"398 39 OFFCURVE",
"296 39 CURVE SMOOTH"
);
}
);
width = 574;
}
);
leftKerningGroup = b;
note = b;
rightKerningGroup = b;
unicode = 0062;
},
{
glyphname = c;
lastChange = "2019-02-02 11:40:47 +0000";
layers = (
{
layerId = "1053487F-6E39-46EB-834B-3FE95151DC2D";
paths = (
{
closed = 1;
nodes = (
"367 -12 OFFCURVE",
"429 32 OFFCURVE",
"462 100 CURVE",
"420 128 LINE",
"391 71 OFFCURVE",
"343 39 OFFCURVE",
"273 39 CURVE SMOOTH",
"169 39 OFFCURVE",
"113 112 OFFCURVE",
"113 220 CURVE SMOOTH",
"113 292 LINE SMOOTH",
"113 400 OFFCURVE",
"169 473 OFFCURVE",
"273 473 CURVE SMOOTH",
"340 473 OFFCURVE",
"383 442 OFFCURVE",
"407 387 CURVE",
"455 411 LINE",
"425 478 OFFCURVE",
"367 524 OFFCURVE",
"273 524 CURVE SMOOTH",
"133 524 OFFCURVE",
"52 425 OFFCURVE",
"52 256 CURVE SMOOTH",
"52 87 OFFCURVE",
"133 -12 OFFCURVE",
"273 -12 CURVE SMOOTH"
);
}
);
width = 496;
}
);
leftKerningGroup = c;
note = c;
rightKerningGroup = c;
unicode = 0063;
},
{
glyphname = d;
lastChange = "2019-02-02 11:40:47 +0000";
layers = (
{
layerId = "1053487F-6E39-46EB-834B-3FE95151DC2D";
paths = (
{
closed = 1;
nodes = (
"424 0 LINE",
"481 0 LINE",
"481 740 LINE",
"424 740 LINE",
"424 430 LINE",
"421 430 LINE",
"396 487 OFFCURVE",
"343 524 OFFCURVE",
"265 524 CURVE SMOOTH",
"134 524 OFFCURVE",
"54 425 OFFCURVE",
"54 256 CURVE SMOOTH",
"54 87 OFFCURVE",
"134 -12 OFFCURVE",
"265 -12 CURVE SMOOTH",
"343 -12 OFFCURVE",
"394 25 OFFCURVE",
"421 82 CURVE",
"424 82 LINE"
);
},
{
closed = 1;
nodes = (
"176 39 OFFCURVE",
"115 110 OFFCURVE",
"115 220 CURVE SMOOTH",
"115 292 LINE SMOOTH",
"115 402 OFFCURVE",
"176 473 OFFCURVE",
"278 473 CURVE SMOOTH",
"357 473 OFFCURVE",
"424 426 OFFCURVE",
"424 359 CURVE SMOOTH",
"424 156 LINE SMOOTH",
"424 84 OFFCURVE",
"357 39 OFFCURVE",
"278 39 CURVE SMOOTH"
);
}
);
width = 574;
}
);
leftKerningGroup = a.alt01;
note = d;
unicode = 0064;
},
{
glyphname = e;
lastChange = "2019-02-02 11:40:47 +0000";
layers = (
{
layerId = "1053487F-6E39-46EB-834B-3FE95151DC2D";
paths = (
{
closed = 1;
nodes = (
"373 -12 OFFCURVE",
"444 38 OFFCURVE",
"476 113 CURVE",
"434 141 LINE",
"406 74 OFFCURVE",
"352 38 OFFCURVE",
"279 38 CURVE SMOOTH",
"174 38 OFFCURVE",
"112 113 OFFCURVE",
"112 220 CURVE SMOOTH",
"112 245 LINE",
"491 245 LINE",
"491 272 LINE SMOOTH",
"491 422 OFFCURVE",
"406 524 OFFCURVE",
"275 524 CURVE SMOOTH",
"139 524 OFFCURVE",
"52 424 OFFCURVE",
"52 256 CURVE SMOOTH",
"52 88 OFFCURVE",
"139 -12 OFFCURVE",
"276 -12 CURVE SMOOTH"
);
},
{
closed = 1;
nodes = (
"367 476 OFFCURVE",
"429 405 OFFCURVE",
"429 297 CURVE SMOOTH",
"429 289 LINE",
"112 289 LINE",
"112 294 LINE SMOOTH",
"112 402 OFFCURVE",
"176 476 OFFCURVE",
"275 476 CURVE SMOOTH"
);
}
);
width = 543;
}
);
leftKerningGroup = c;
note = e;
rightKerningGroup = e;
unicode = 0065;
},
{
glyphname = f;
lastChange = "2019-02-02 11:40:47 +0000";
layers = (
{
layerId = "1053487F-6E39-46EB-834B-3FE95151DC2D";
paths = (
{
closed = 1;
nodes = (
"117 0 LINE",
"174 0 LINE",
"174 462 LINE",
"287 462 LINE",
"287 512 LINE",
"174 512 LINE",
"174 690 LINE",
"287 690 LINE",
"287 740 LINE",
"197 740 LINE SMOOTH",
"143 740 OFFCURVE",
"117 707 OFFCURVE",
"117 655 CURVE SMOOTH",
"117 512 LINE",
"29 512 LINE",
"29 462 LINE",
"117 462 LINE"
);
}
);
width = 309;
}
);
leftKerningGroup = f;
note = f;
rightKerningGroup = f;
unicode = 0066;
},
{
glyphname = g;
lastChange = "2019-02-02 11:40:47 +0000";
layers = (
{
layerId = "1053487F-6E39-46EB-834B-3FE95151DC2D";
paths = (
{
closed = 1;
nodes = (
"513 20 OFFCURVE",
"460 69 OFFCURVE",
"337 69 CURVE SMOOTH",
"218 69 LINE SMOOTH",
"162 69 OFFCURVE",
"136 85 OFFCURVE",
"136 115 CURVE SMOOTH",
"136 149 OFFCURVE",
"168 169 OFFCURVE",
"212 181 CURVE",
"229 178 OFFCURVE",
"247 175 OFFCURVE",
"265 175 CURVE SMOOTH",
"378 175 OFFCURVE",
"452 246 OFFCURVE",
"452 350 CURVE SMOOTH",
"452 402 OFFCURVE",
"432 446 OFFCURVE",
"398 477 CURVE",
"398 526 LINE",
"502 526 LINE",
"502 576 LINE",
"414 576 LINE SMOOTH",
"381 576 OFFCURVE",
"367 555 OFFCURVE",
"367 524 CURVE SMOOTH",
"367 499 LINE",
"339 515 OFFCURVE",
"304 524 OFFCURVE",
"264 524 CURVE SMOOTH",
"151 524 OFFCURVE",
"78 453 OFFCURVE",
"78 350 CURVE SMOOTH",
"78 276 OFFCURVE",
"114 221 OFFCURVE",
"173 194 CURVE",
"173 190 LINE",
"124 177 OFFCURVE",
"86 152 OFFCURVE",
"86 102 CURVE SMOOTH",
"86 68 OFFCURVE",
"102 45 OFFCURVE",
"134 32 CURVE",
"134 24 LINE",
"79 8 OFFCURVE",
"46 -26 OFFCURVE",
"46 -84 CURVE SMOOTH",
"46 -164 OFFCURVE",
"111 -212 OFFCURVE",
"267 -212 CURVE SMOOTH",
"427 -212 OFFCURVE",
"513 -164 OFFCURVE",
"513 -60 CURVE SMOOTH"
);
},
{
closed = 1;
nodes = (
"458 -133 OFFCURVE",
"396 -165 OFFCURVE",
"297 -165 CURVE SMOOTH",
"233 -165 LINE SMOOTH",
"144 -165 OFFCURVE",
"100 -125 OFFCURVE",
"100 -72 CURVE SMOOTH",
"100 -28 OFFCURVE",
"127 1 OFFCURVE",
"171 16 CURVE",
"337 16 LINE SMOOTH",
"428 16 OFFCURVE",
"458 -15 OFFCURVE",
"458 -64 CURVE SMOOTH"
);
},
{
closed = 1;
nodes = (
"187 221 OFFCURVE",
"139 262 OFFCURVE",
"139 334 CURVE SMOOTH",
"139 366 LINE SMOOTH",
"139 436 OFFCURVE",
"186 478 OFFCURVE",
"265 478 CURVE SMOOTH",
"343 478 OFFCURVE",
"391 436 OFFCURVE",
"391 366 CURVE SMOOTH",
"391 334 LINE SMOOTH",
"391 262 OFFCURVE",
"343 221 OFFCURVE",
"265 221 CURVE SMOOTH"
);
}
);
width = 529;
}
);
leftKerningGroup = g;
note = g;
rightKerningGroup = g;
unicode = 0067;
},
{
glyphname = g.alt01;
lastChange = "2019-02-02 11:40:47 +0000";
layers = (
{
layerId = "1053487F-6E39-46EB-834B-3FE95151DC2D";
paths = (
{
closed = 1;
nodes = (
"481 512 LINE",
"424 512 LINE",
"424 430 LINE",
"421 430 LINE",
"396 487 OFFCURVE",
"343 524 OFFCURVE",
"265 524 CURVE SMOOTH",
"135 524 OFFCURVE",
"54 425 OFFCURVE",
"54 256 CURVE SMOOTH",
"54 87 OFFCURVE",
"135 -12 OFFCURVE",
"265 -12 CURVE SMOOTH",
"343 -12 OFFCURVE",
"394 26 OFFCURVE",
"421 82 CURVE",
"424 82 LINE",
"424 3 LINE SMOOTH",
"424 -106 OFFCURVE",
"368 -162 OFFCURVE",
"266 -162 CURVE SMOOTH",
"197 -162 OFFCURVE",
"154 -141 OFFCURVE",
"118 -103 CURVE",
"84 -143 LINE",
"125 -185 OFFCURVE",
"181 -212 OFFCURVE",
"265 -212 CURVE SMOOTH",
"404 -212 OFFCURVE",
"481 -131 OFFCURVE",
"481 6 CURVE SMOOTH"
);
},
{
closed = 1;
nodes = (
"176 39 OFFCURVE",
"115 110 OFFCURVE",
"115 220 CURVE SMOOTH",
"115 292 LINE SMOOTH",
"115 402 OFFCURVE",
"176 473 OFFCURVE",
"278 473 CURVE SMOOTH",
"357 473 OFFCURVE",
"424 426 OFFCURVE",
"424 359 CURVE SMOOTH",
"424 156 LINE SMOOTH",
"424 84 OFFCURVE",
"357 39 OFFCURVE",
"278 39 CURVE SMOOTH"
);
}
);
width = 574;
}
);
leftKerningGroup = a.alt01;
note = g.alt01;
rightKerningGroup = g.alt01;
},
{
glyphname = g.alt02;
lastChange = "2019-02-02 11:40:47 +0000";
layers = (
{
layerId = "1053487F-6E39-46EB-834B-3FE95151DC2D";
paths = (
{
closed = 1;
nodes = (
"513 20 OFFCURVE",
"460 69 OFFCURVE",
"337 69 CURVE SMOOTH",
"218 69 LINE SMOOTH",
"162 69 OFFCURVE",
"136 85 OFFCURVE",
"136 115 CURVE SMOOTH",
"136 149 OFFCURVE",
"168 169 OFFCURVE",
"212 181 CURVE",
"229 178 OFFCURVE",
"247 175 OFFCURVE",
"265 175 CURVE SMOOTH",
"378 175 OFFCURVE",
"452 246 OFFCURVE",
"452 350 CURVE SMOOTH",
"452 399 OFFCURVE",
"433 439 OFFCURVE",
"403 466 CURVE",
"503 466 LINE",
"503 512 LINE",
"340 512 LINE",
"318 520 OFFCURVE",
"292 524 OFFCURVE",
"264 524 CURVE SMOOTH",
"151 524 OFFCURVE",
"78 453 OFFCURVE",
"78 350 CURVE SMOOTH",
"78 276 OFFCURVE",
"114 221 OFFCURVE",
"173 194 CURVE",
"173 190 LINE",
"124 177 OFFCURVE",
"86 152 OFFCURVE",
"86 102 CURVE SMOOTH",
"86 68 OFFCURVE",
"102 45 OFFCURVE",
"134 32 CURVE",
"134 24 LINE",
"79 8 OFFCURVE",
"46 -26 OFFCURVE",
"46 -84 CURVE SMOOTH",
"46 -164 OFFCURVE",
"111 -212 OFFCURVE",
"267 -212 CURVE SMOOTH",
"427 -212 OFFCURVE",
"513 -164 OFFCURVE",
"513 -60 CURVE SMOOTH"
);
},
{
closed = 1;
nodes = (
"187 221 OFFCURVE",
"139 262 OFFCURVE",
"139 334 CURVE SMOOTH",
"139 366 LINE SMOOTH",
"139 436 OFFCURVE",
"186 478 OFFCURVE",
"265 478 CURVE SMOOTH",
"343 478 OFFCURVE",
"391 436 OFFCURVE",
"391 366 CURVE SMOOTH",
"391 334 LINE SMOOTH",
"391 262 OFFCURVE",
"343 221 OFFCURVE",
"265 221 CURVE SMOOTH"
);
},
{
closed = 1;
nodes = (
"458 -133 OFFCURVE",
"396 -165 OFFCURVE",
"297 -165 CURVE SMOOTH",
"233 -165 LINE SMOOTH",
"144 -165 OFFCURVE",
"100 -125 OFFCURVE",
"100 -72 CURVE SMOOTH",
"100 -28 OFFCURVE",
"127 1 OFFCURVE",
"171 16 CURVE",
"337 16 LINE SMOOTH",
"428 16 OFFCURVE",
"458 -15 OFFCURVE",
"458 -64 CURVE SMOOTH"
);
}
);
width = 529;
}
);
leftKerningGroup = g;
note = g.alt02;
rightKerningGroup = g;
},
{
glyphname = h;
lastChange = "2019-02-02 11:40:47 +0000";
layers = (
{
layerId = "1053487F-6E39-46EB-834B-3FE95151DC2D";
paths = (
{
closed = 1;
nodes = (
"93 0 LINE",
"150 0 LINE",
"150 360 LINE SMOOTH",
"150 436 OFFCURVE",
"217 473 OFFCURVE",
"289 473 CURVE SMOOTH",
"374 473 OFFCURVE",
"420 423 OFFCURVE",
"420 319 CURVE SMOOTH",
"420 0 LINE",
"477 0 LINE",
"477 329 LINE SMOOTH",
"477 454 OFFCURVE",
"413 524 OFFCURVE",
"304 524 CURVE SMOOTH",
"222 524 OFFCURVE",
"176 484 OFFCURVE",
"153 431 CURVE",
"150 431 LINE",
"150 740 LINE",
"93 740 LINE"
);
}
);
width = 563;
}
);
leftKerningGroup = b;
note = h;
rightKerningGroup = h;
unicode = 0068;
},
{
glyphname = i;
lastChange = "2019-02-02 11:40:47 +0000";
layers = (
{
layerId = "1053487F-6E39-46EB-834B-3FE95151DC2D";
paths = (
{
closed = 1;
nodes = (
"148 651 OFFCURVE",
"160 666 OFFCURVE",
"160 687 CURVE SMOOTH",
"160 697 LINE SMOOTH",
"160 718 OFFCURVE",
"148 733 OFFCURVE",
"121 733 CURVE SMOOTH",
"94 733 OFFCURVE",
"82 718 OFFCURVE",
"82 697 CURVE SMOOTH",
"82 687 LINE SMOOTH",
"82 666 OFFCURVE",
"94 651 OFFCURVE",
"121 651 CURVE SMOOTH"
);
},
{
closed = 1;
nodes = (
"93 0 LINE",
"150 0 LINE",
"150 512 LINE",
"93 512 LINE"
);
}
);
width = 243;
}
);
leftKerningGroup = i;
note = i;
rightKerningGroup = i;
unicode = 0069;
},
{
glyphname = j;
lastChange = "2019-02-02 11:40:47 +0000";
layers = (
{
layerId = "1053487F-6E39-46EB-834B-3FE95151DC2D";
paths = (
{
closed = 1;
nodes = (
"93 -150 LINE",
"8 -150 LINE",
"8 -200 LINE",
"70 -200 LINE SMOOTH",
"125 -200 OFFCURVE",
"150 -167 OFFCURVE",
"150 -115 CURVE SMOOTH",
"150 512 LINE",
"93 512 LINE"
);
},
{
closed = 1;
nodes = (
"148 651 OFFCURVE",
"160 666 OFFCURVE",
"160 687 CURVE SMOOTH",
"160 697 LINE SMOOTH",
"160 718 OFFCURVE",
"148 733 OFFCURVE",
"121 733 CURVE SMOOTH",
"94 733 OFFCURVE",
"82 718 OFFCURVE",
"82 697 CURVE SMOOTH",
"82 687 LINE SMOOTH",
"82 666 OFFCURVE",
"94 651 OFFCURVE",
"121 651 CURVE SMOOTH"
);
}
);
width = 243;
}
);
leftKerningGroup = j;
note = j;
rightKerningGroup = g.alt01;
unicode = 006A;
},
{
glyphname = k;
lastChange = "2019-02-02 11:40:47 +0000";
layers = (
{
layerId = "1053487F-6E39-46EB-834B-3FE95151DC2D";
paths = (
{
closed = 1;
nodes = (
"93 0 LINE",
"150 0 LINE",
"150 186 LINE",
"231 268 LINE",
"425 0 LINE",
"495 0 LINE",
"272 304 LINE",
"473 512 LINE",
"403 512 LINE",
"233 336 LINE",
"153 251 LINE",
"150 251 LINE",
"150 740 LINE",
"93 740 LINE"
);
}
);
width = 513;
}
);
leftKerningGroup = b;
note = k;
rightKerningGroup = k;
unicode = 006B;
},
{
glyphname = l;
lastChange = "2019-02-02 11:40:47 +0000";
layers = (
{
layerId = "1053487F-6E39-46EB-834B-3FE95151DC2D";
paths = (
{
closed = 1;
nodes = (
"229 0 LINE",
"229 50 LINE",
"150 50 LINE",
"150 740 LINE",
"93 740 LINE",
"93 62 LINE SMOOTH",
"93 25 OFFCURVE",
"115 0 OFFCURVE",
"156 0 CURVE SMOOTH"
);
}
);
width = 264;
}
);
leftKerningGroup = l;
note = l;
rightKerningGroup = l;
unicode = 006C;
},
{
glyphname = m;
lastChange = "2019-02-02 11:40:47 +0000";
layers = (
{
layerId = "1053487F-6E39-46EB-834B-3FE95151DC2D";
paths = (
{
closed = 1;
nodes = (
"150 0 LINE",
"150 360 LINE SMOOTH",
"150 436 OFFCURVE",
"215 473 OFFCURVE",
"285 473 CURVE SMOOTH",
"369 473 OFFCURVE",
"413 423 OFFCURVE",
"413 319 CURVE SMOOTH",
"413 0 LINE",
"470 0 LINE",
"470 359 LINE SMOOTH",
"470 435 OFFCURVE",
"533 473 OFFCURVE",
"604 473 CURVE SMOOTH",
"690 473 OFFCURVE",
"733 422 OFFCURVE",
"733 319 CURVE SMOOTH",
"733 0 LINE",
"790 0 LINE",
"790 329 LINE SMOOTH",
"790 454 OFFCURVE",
"729 524 OFFCURVE",
"620 524 CURVE SMOOTH",
"529 524 OFFCURVE",
"478 476 OFFCURVE",
"459 416 CURVE",
"456 416 LINE",
"431 490 OFFCURVE",
"371 524 OFFCURVE",
"298 524 CURVE SMOOTH",
"214 524 OFFCURVE",
"174 481 OFFCURVE",
"153 431 CURVE",
"150 431 LINE",
"150 512 LINE",
"93 512 LINE",
"93 0 LINE"
);
}
);
width = 876;
}
);
leftKerningGroup = m;
note = m;
rightKerningGroup = h;
unicode = 006D;
},
{
glyphname = n;
lastChange = "2019-02-02 11:40:47 +0000";
layers = (
{
layerId = "1053487F-6E39-46EB-834B-3FE95151DC2D";
paths = (
{
closed = 1;
nodes = (
"150 0 LINE",
"150 360 LINE SMOOTH",
"150 436 OFFCURVE",
"217 473 OFFCURVE",
"289 473 CURVE SMOOTH",
"374 473 OFFCURVE",
"420 423 OFFCURVE",
"420 319 CURVE SMOOTH",
"420 0 LINE",
"477 0 LINE",
"477 329 LINE SMOOTH",
"477 454 OFFCURVE",
"413 524 OFFCURVE",
"304 524 CURVE SMOOTH",
"222 524 OFFCURVE",
"176 484 OFFCURVE",
"153 431 CURVE",
"150 431 LINE",
"150 512 LINE",
"93 512 LINE",
"93 0 LINE"
);
}
);
width = 563;
}
);
leftKerningGroup = m;
note = n;
rightKerningGroup = h;
unicode = 006E;
},
{
glyphname = o;
lastChange = "2019-02-02 11:40:47 +0000";
layers = (
{
layerId = "1053487F-6E39-46EB-834B-3FE95151DC2D";
paths = (
{
closed = 1;
nodes = (
"410 -12 OFFCURVE",
"498 88 OFFCURVE",
"498 256 CURVE SMOOTH",
"498 424 OFFCURVE",
"410 524 OFFCURVE",
"275 524 CURVE SMOOTH",
"140 524 OFFCURVE",
"52 424 OFFCURVE",
"52 256 CURVE SMOOTH",
"52 88 OFFCURVE",
"140 -12 OFFCURVE",
"275 -12 CURVE SMOOTH"
);
},
{
closed = 1;
nodes = (
"176 39 OFFCURVE",
"113 105 OFFCURVE",
"113 224 CURVE SMOOTH",
"113 288 LINE SMOOTH",
"113 408 OFFCURVE",
"176 473 OFFCURVE",
"275 473 CURVE SMOOTH",
"374 473 OFFCURVE",
"437 407 OFFCURVE",
"437 288 CURVE SMOOTH",
"437 224 LINE SMOOTH",
"437 104 OFFCURVE",
"374 39 OFFCURVE",
"275 39 CURVE SMOOTH"
);
}
);
width = 550;
}
);
leftKerningGroup = c;
note = o;
rightKerningGroup = o;
unicode = 006F;
},
{
glyphname = p;
lastChange = "2019-02-02 11:40:47 +0000";
layers = (
{
layerId = "1053487F-6E39-46EB-834B-3FE95151DC2D";
paths = (
{
closed = 1;
nodes = (
"93 -200 LINE",
"150 -200 LINE",
"150 82 LINE",
"153 82 LINE",
"181 25 OFFCURVE",
"231 -12 OFFCURVE",
"309 -12 CURVE SMOOTH",
"440 -12 OFFCURVE",
"520 87 OFFCURVE",
"520 256 CURVE SMOOTH",
"520 425 OFFCURVE",
"440 524 OFFCURVE",
"309 524 CURVE SMOOTH",
"231 524 OFFCURVE",
"178 487 OFFCURVE",
"153 430 CURVE",
"150 430 LINE",
"150 512 LINE",
"93 512 LINE"
);
},
{
closed = 1;
nodes = (
"217 39 OFFCURVE",
"150 84 OFFCURVE",
"150 156 CURVE SMOOTH",
"150 359 LINE SMOOTH",
"150 426 OFFCURVE",
"217 473 OFFCURVE",
"296 473 CURVE SMOOTH",
"398 473 OFFCURVE",
"459 402 OFFCURVE",
"459 292 CURVE SMOOTH",
"459 220 LINE SMOOTH",
"459 110 OFFCURVE",
"398 39 OFFCURVE",
"296 39 CURVE SMOOTH"
);
}
);
width = 574;
}
);
leftKerningGroup = p;
note = p;
rightKerningGroup = b;
unicode = 0070;
},
{
glyphname = q;
lastChange = "2019-02-02 11:40:47 +0000";
layers = (
{
layerId = "1053487F-6E39-46EB-834B-3FE95151DC2D";
paths = (
{
closed = 1;
nodes = (
"424 -200 LINE",
"481 -200 LINE",
"481 512 LINE",
"424 512 LINE",
"424 430 LINE",
"421 430 LINE",
"396 487 OFFCURVE",
"343 524 OFFCURVE",
"265 524 CURVE SMOOTH",
"134 524 OFFCURVE",
"54 425 OFFCURVE",
"54 256 CURVE SMOOTH",
"54 87 OFFCURVE",
"134 -12 OFFCURVE",
"265 -12 CURVE SMOOTH",
"343 -12 OFFCURVE",
"394 25 OFFCURVE",
"421 82 CURVE",
"424 82 LINE"
);
},
{
closed = 1;
nodes = (
"176 39 OFFCURVE",
"115 110 OFFCURVE",
"115 220 CURVE SMOOTH",
"115 292 LINE SMOOTH",
"115 402 OFFCURVE",
"176 473 OFFCURVE",
"278 473 CURVE SMOOTH",
"357 473 OFFCURVE",
"424 426 OFFCURVE",
"424 359 CURVE SMOOTH",
"424 156 LINE SMOOTH",
"424 84 OFFCURVE",
"357 39 OFFCURVE",
"278 39 CURVE SMOOTH"
);
}
);
width = 574;
}
);
leftKerningGroup = a.alt01;
note = q;
rightKerningGroup = g.alt01;
unicode = 0071;
},
{
glyphname = r;
lastChange = "2019-02-02 11:40:47 +0000";
layers = (
{
layerId = "1053487F-6E39-46EB-834B-3FE95151DC2D";
paths = (
{
closed = 1;
nodes = (
"150 0 LINE",
"150 350 LINE SMOOTH",
"150 416 OFFCURVE",
"211 456 OFFCURVE",
"296 456 CURVE SMOOTH",
"341 456 LINE",
"341 512 LINE",
"307 512 LINE SMOOTH",
"219 512 OFFCURVE",
"174 468 OFFCURVE",
"154 420 CURVE",
"150 420 LINE",
"150 512 LINE",
"93 512 LINE",
"93 0 LINE"
);
}
);
width = 357;
}
);
leftKerningGroup = m;
note = r;
rightKerningGroup = r;
unicode = 0072;
},
{
glyphname = s;
lastChange = "2019-02-02 11:40:47 +0000";
layers = (
{
layerId = "1053487F-6E39-46EB-834B-3FE95151DC2D";
paths = (
{
closed = 1;
nodes = (
"351 -12 OFFCURVE",
"420 45 OFFCURVE",
"420 140 CURVE SMOOTH",
"420 222 OFFCURVE",
"371 267 OFFCURVE",
"267 283 CURVE SMOOTH",
"226 289 LINE SMOOTH",
"153 301 OFFCURVE",
"116 324 OFFCURVE",
"116 383 CURVE SMOOTH",
"116 441 OFFCURVE",
"159 475 OFFCURVE",
"232 475 CURVE SMOOTH",
"303 475 OFFCURVE",
"345 442 OFFCURVE",
"372 410 CURVE",
"410 445 LINE",
"372 491 OFFCURVE",
"320 524 OFFCURVE",
"235 524 CURVE SMOOTH",
"136 524 OFFCURVE",
"61 476 OFFCURVE",
"61 380 CURVE SMOOTH",
"61 288 OFFCURVE",
"125 251 OFFCURVE",
"218 237 CURVE SMOOTH",
"260 230 LINE SMOOTH",
"334 219 OFFCURVE",
"365 188 OFFCURVE",
"365 134 CURVE SMOOTH",
"365 72 OFFCURVE",
"320 37 OFFCURVE",
"242 37 CURVE SMOOTH",
"174 37 OFFCURVE",
"125 64 OFFCURVE",
"83 119 CURVE",
"41 86 LINE",
"87 23 OFFCURVE",
"149 -12 OFFCURVE",
"238 -12 CURVE SMOOTH"
);
}
);
width = 477;
}
);
leftKerningGroup = s;
note = s;
rightKerningGroup = s;
unicode = 0073;
},
{
glyphname = t;
lastChange = "2019-02-02 11:40:47 +0000";
layers = (
{
layerId = "1053487F-6E39-46EB-834B-3FE95151DC2D";
paths = (
{
closed = 1;
nodes = (
"283 0 LINE",
"283 50 LINE",
"175 50 LINE",
"175 462 LINE",
"291 462 LINE",
"291 512 LINE",
"175 512 LINE",
"175 655 LINE",
"123 655 LINE",
"123 551 LINE SMOOTH",
"123 522 OFFCURVE",
"115 512 OFFCURVE",
"87 512 CURVE SMOOTH",
"29 512 LINE",
"29 462 LINE",
"118 462 LINE",
"118 63 LINE SMOOTH",
"118 25 OFFCURVE",
"140 0 OFFCURVE",
"181 0 CURVE SMOOTH"
);
}
);
width = 335;
}
);
leftKerningGroup = t;
note = t;
rightKerningGroup = t;
unicode = 0074;
},
{
glyphname = u;
lastChange = "2019-02-02 11:40:47 +0000";
layers = (
{
layerId = "1053487F-6E39-46EB-834B-3FE95151DC2D";
paths = (
{
closed = 1;
nodes = (
"413 0 LINE",
"470 0 LINE",
"470 512 LINE",
"413 512 LINE",
"413 153 LINE SMOOTH",
"413 76 OFFCURVE",
"346 39 OFFCURVE",
"275 39 CURVE SMOOTH",
"190 39 OFFCURVE",
"143 89 OFFCURVE",
"143 194 CURVE SMOOTH",
"143 512 LINE",
"86 512 LINE",
"86 183 LINE SMOOTH",
"86 58 OFFCURVE",
"151 -12 OFFCURVE",
"260 -12 CURVE SMOOTH",
"348 -12 OFFCURVE",
"390 33 OFFCURVE",
"409 81 CURVE",
"413 81 LINE"
);
}
);
width = 563;
}
);
leftKerningGroup = u;
note = u;
rightKerningGroup = a.alt01;
unicode = 0075;
},
{
glyphname = v;
lastChange = "2019-02-02 11:40:47 +0000";
layers = (
{
layerId = "1053487F-6E39-46EB-834B-3FE95151DC2D";
paths = (
{
closed = 1;
nodes = (
"206 0 LINE",
"271 0 LINE",
"456 512 LINE",
"398 512 LINE",
"242 61 LINE",
"238 61 LINE",
"81 512 LINE",
"21 512 LINE"
);
}
);
width = 476;
}
);
leftKerningGroup = v;
note = v;
rightKerningGroup = v;
unicode = 0076;
},
{
glyphname = w;
lastChange = "2019-02-02 11:40:47 +0000";
layers = (
{
layerId = "1053487F-6E39-46EB-834B-3FE95151DC2D";
paths = (
{
closed = 1;
nodes = (
"177 0 LINE",
"246 0 LINE",
"374 431 LINE",
"376 431 LINE",
"505 0 LINE",
"575 0 LINE",
"719 512 LINE",
"664 512 LINE",
"542 51 LINE",
"540 51 LINE",
"403 512 LINE",
"350 512 LINE",
"214 51 LINE",
"212 51 LINE",
"89 512 LINE",
"33 512 LINE"
);
}
);
width = 752;
}
);
leftKerningGroup = w;
note = w;
rightKerningGroup = w;
unicode = 0077;
},
{
glyphname = x;
lastChange = "2019-02-02 11:40:47 +0000";
layers = (
{
layerId = "1053487F-6E39-46EB-834B-3FE95151DC2D";
paths = (
{
closed = 1;
nodes = (
"26 0 LINE",
"90 0 LINE",
"247 216 LINE",
"249 216 LINE",
"400 0 LINE",
"467 0 LINE",
"280 262 LINE",
"462 512 LINE",
"398 512 LINE",
"249 303 LINE",
"246 303 LINE",
"100 512 LINE",
"33 512 LINE",
"216 258 LINE"
);
}
);
width = 493;
}
);
leftKerningGroup = x;
note = x;
rightKerningGroup = x;
unicode = 0078;
},
{
glyphname = y;
lastChange = "2019-02-02 11:40:47 +0000";
layers = (
{
layerId = "1053487F-6E39-46EB-834B-3FE95151DC2D";
paths = (
{
closed = 1;
nodes = (
"243 61 LINE",
"239 61 LINE",
"82 512 LINE",
"22 512 LINE",
"212 -15 LINE",
"163 -150 LINE",
"77 -150 LINE",
"77 -200 LINE",
"135 -200 LINE SMOOTH",
"187 -200 OFFCURVE",
"204 -187 OFFCURVE",
"220 -144 CURVE SMOOTH",
"457 512 LINE",
"399 512 LINE"
);
}
);
width = 479;
}
);
leftKerningGroup = y;
note = y;
rightKerningGroup = y;
unicode = 0079;
},
{
glyphname = z;
lastChange = "2019-02-02 11:40:47 +0000";
layers = (
{
layerId = "1053487F-6E39-46EB-834B-3FE95151DC2D";
paths = (
{
closed = 1;
nodes = (
"417 0 LINE",
"417 50 LINE",
"95 50 LINE",
"409 467 LINE",
"409 512 LINE",
"40 512 LINE",
"40 462 LINE",
"341 462 LINE",
"31 49 LINE",
"31 0 LINE"
);
}
);
width = 446;
}
);
leftKerningGroup = z;
note = z;
rightKerningGroup = z;
unicode = 007A;
},
{
glyphname = A;
lastChange = "2019-02-02 11:40:47 +0000";
layers = (
{
layerId = "1053487F-6E39-46EB-834B-3FE95151DC2D";
paths = (
{
closed = 1;
nodes = (
"599 0 LINE",
"351 698 LINE",
"274 698 LINE",
"27 0 LINE",
"87 0 LINE",
"163 217 LINE",
"460 217 LINE",
"536 0 LINE"
);
},
{
closed = 1;
nodes = (
"444 269 LINE",
"178 269 LINE",
"309 641 LINE",
"313 641 LINE"
);
}
);
width = 625;
}
);
leftKerningGroup = A;
note = A;
rightKerningGroup = A;
unicode = 0041;
},
{
glyphname = B;
lastChange = "2019-02-02 11:40:47 +0000";
layers = (
{
layerId = "1053487F-6E39-46EB-834B-3FE95151DC2D";
paths = (
{
closed = 1;
nodes = (
"99 0 LINE",
"397 0 LINE SMOOTH",
"504 0 OFFCURVE",
"574 82 OFFCURVE",
"574 197 CURVE SMOOTH",
"574 306 OFFCURVE",
"505 358 OFFCURVE",
"440 366 CURVE",
"440 370 LINE",
"492 382 OFFCURVE",
"547 425 OFFCURVE",
"547 522 CURVE SMOOTH",
"547 632 OFFCURVE",
"481 698 OFFCURVE",
"372 698 CURVE SMOOTH",
"99 698 LINE"
);
},
{
closed = 1;
nodes = (
"159 337 LINE",
"381 337 LINE SMOOTH",
"465 337 OFFCURVE",
"510 286 OFFCURVE",
"510 214 CURVE SMOOTH",
"510 177 LINE SMOOTH",
"510 104 OFFCURVE",
"465 53 OFFCURVE",
"381 53 CURVE SMOOTH",
"159 53 LINE"
);
},
{
closed = 1;
nodes = (
"159 645 LINE",
"366 645 LINE SMOOTH",
"442 645 OFFCURVE",
"483 600 OFFCURVE",
"483 536 CURVE SMOOTH",
"483 498 LINE SMOOTH",
"483 435 OFFCURVE",
"442 389 OFFCURVE",
"366 389 CURVE SMOOTH",
"159 389 LINE"
);
}
);
width = 638;
}
);
note = B;
rightKerningGroup = B;
unicode = 0042;
},
{
glyphname = C;
lastChange = "2019-02-02 11:40:47 +0000";
layers = (
{
layerId = "1053487F-6E39-46EB-834B-3FE95151DC2D";
paths = (
{
closed = 1;
nodes = (
"448 -12 OFFCURVE",
"530 49 OFFCURVE",
"571 144 CURVE",
"522 173 LINE",
"492 93 OFFCURVE",
"428 42 OFFCURVE",
"335 42 CURVE SMOOTH",
"205 42 OFFCURVE",
"127 136 OFFCURVE",
"127 307 CURVE SMOOTH",
"127 386 LINE SMOOTH",
"127 558 OFFCURVE",
"205 656 OFFCURVE",
"335 656 CURVE SMOOTH",
"423 656 OFFCURVE",
"486 608 OFFCURVE",
"517 532 CURVE",
"566 561 LINE",
"524 653 OFFCURVE",
"446 710 OFFCURVE",
"335 710 CURVE SMOOTH",
"163 710 OFFCURVE",
"63 582 OFFCURVE",
"63 347 CURVE SMOOTH",
"63 111 OFFCURVE",
"163 -12 OFFCURVE",
"335 -12 CURVE SMOOTH"
);
}
);
width = 617;
}
);
leftKerningGroup = C;
note = C;
rightKerningGroup = C;
unicode = 0043;
},
{
glyphname = D;
lastChange = "2019-02-02 11:40:47 +0000";
layers = (
{
layerId = "1053487F-6E39-46EB-834B-3FE95151DC2D";
paths = (
{
closed = 1;
nodes = (
"99 0 LINE",
"321 0 LINE SMOOTH",
"500 0 OFFCURVE",
"603 117 OFFCURVE",
"603 349 CURVE SMOOTH",
"603 581 OFFCURVE",
"500 698 OFFCURVE",
"321 698 CURVE SMOOTH",
"99 698 LINE"
);
},
{
closed = 1;
nodes = (
"159 53 LINE",
"159 645 LINE",
"322 645 LINE SMOOTH",
"459 645 OFFCURVE",
"539 550 OFFCURVE",
"539 395 CURVE SMOOTH",
"539 303 LINE SMOOTH",
"539 148 OFFCURVE",
"459 53 OFFCURVE",
"322 53 CURVE SMOOTH"
);
}
);
width = 666;
}
);
note = D;
rightKerningGroup = D;
unicode = 0044;
},
{
glyphname = E;
lastChange = "2019-02-02 11:40:47 +0000";
layers = (
{
layerId = "1053487F-6E39-46EB-834B-3FE95151DC2D";
paths = (
{
closed = 1;
nodes = (
"507 0 LINE",
"507 53 LINE",
"159 53 LINE",
"159 328 LINE",
"490 328 LINE",
"490 381 LINE",
"159 381 LINE",
"159 645 LINE",
"507 645 LINE",
"507 698 LINE",
"99 698 LINE",
"99 0 LINE"
);
}
);
width = 574;
}
);
note = E;
rightKerningGroup = E;
unicode = 0045;
},
{
glyphname = F;
lastChange = "2019-02-02 11:40:47 +0000";
layers = (
{
layerId = "1053487F-6E39-46EB-834B-3FE95151DC2D";
paths = (
{
closed = 1;
nodes = (
"159 0 LINE",
"159 328 LINE",
"475 328 LINE",
"475 381 LINE",
"159 381 LINE",
"159 645 LINE",
"498 645 LINE",
"498 698 LINE",
"99 698 LINE",
"99 0 LINE"
);
}
);
width = 550;
}
);
note = F;
rightKerningGroup = F;
unicode = 0046;
},
{
glyphname = G;
lastChange = "2019-02-02 11:40:47 +0000";
layers = (
{
layerId = "1053487F-6E39-46EB-834B-3FE95151DC2D";
paths = (
{
closed = 1;
nodes = (
"553 0 LINE",
"609 0 LINE",
"609 348 LINE",
"387 348 LINE",
"387 296 LINE",
"550 296 LINE",
"550 212 LINE SMOOTH",
"550 98 OFFCURVE",
"460 42 OFFCURVE",
"354 42 CURVE SMOOTH",
"213 42 OFFCURVE",
"127 140 OFFCURVE",
"127 307 CURVE SMOOTH",
"127 392 LINE SMOOTH",
"127 558 OFFCURVE",
"214 656 OFFCURVE",
"349 656 CURVE SMOOTH",
"441 656 OFFCURVE",
"510 609 OFFCURVE",
"544 532 CURVE",
"593 561 LINE",
"551 650 OFFCURVE",
"468 710 OFFCURVE",
"349 710 CURVE SMOOTH",
"172 710 OFFCURVE",
"63 584 OFFCURVE",
"63 349 CURVE SMOOTH",
"63 113 OFFCURVE",
"173 -12 OFFCURVE",
"345 -12 CURVE SMOOTH",
"453 -12 OFFCURVE",
"525 36 OFFCURVE",
"550 107 CURVE",
"553 107 LINE"
);
}
);
width = 684;
}
);
leftKerningGroup = C;
note = G;
rightKerningGroup = G;
unicode = 0047;
},
{
glyphname = H;
lastChange = "2019-02-02 11:40:47 +0000";
layers = (
{
layerId = "1053487F-6E39-46EB-834B-3FE95151DC2D";
paths = (
{
closed = 1;
nodes = (
"542 0 LINE",
"602 0 LINE",
"602 698 LINE",
"542 698 LINE",
"542 381 LINE",
"159 381 LINE",
"159 698 LINE",
"99 698 LINE",
"99 0 LINE",
"159 0 LINE",
"159 328 LINE",
"542 328 LINE"
);
}
);
width = 701;
}
);
note = H;
unicode = 0048;
},
{
glyphname = I;
lastChange = "2019-02-02 11:40:47 +0000";
layers = (
{
layerId = "1053487F-6E39-46EB-834B-3FE95151DC2D";
paths = (
{
closed = 1;
nodes = (
"327 0 LINE",
"327 50 LINE",
"225 50 LINE",
"225 648 LINE",
"327 648 LINE",
"327 698 LINE",
"63 698 LINE",
"63 648 LINE",
"165 648 LINE",
"165 50 LINE",
"63 50 LINE",
"63 0 LINE"
);
}
);
width = 390;
}
);
leftKerningGroup = I;
note = I;
rightKerningGroup = I;
unicode = 0049;
},
{
glyphname = J;
lastChange = "2019-02-02 11:40:47 +0000";
layers = (
{
layerId = "1053487F-6E39-46EB-834B-3FE95151DC2D";
paths = (
{
closed = 1;
nodes = (
"97 698 LINE",
"97 645 LINE",
"339 645 LINE",
"339 191 LINE SMOOTH",
"339 93 OFFCURVE",
"295 41 OFFCURVE",
"212 41 CURVE SMOOTH",
"138 41 OFFCURVE",
"95 86 OFFCURVE",
"79 147 CURVE",
"26 134 LINE",
"44 47 OFFCURVE",
"112 -12 OFFCURVE",
"210 -12 CURVE SMOOTH",
"324 -12 OFFCURVE",
"399 59 OFFCURVE",
"399 182 CURVE SMOOTH",
"399 698 LINE"
);
}
);
width = 493;
}
);
leftKerningGroup = J;
note = J;
rightKerningGroup = J;
unicode = 004A;
},
{
glyphname = K;
lastChange = "2019-02-02 11:40:47 +0000";
layers = (
{
layerId = "1053487F-6E39-46EB-834B-3FE95151DC2D";
paths = (
{
closed = 1;
nodes = (
"515 0 LINE",
"589 0 LINE",
"313 401 LINE",
"576 698 LINE",
"503 698 LINE",
"273 434 LINE",
"161 305 LINE",
"159 305 LINE",
"159 698 LINE",
"99 698 LINE",
"99 0 LINE",
"159 0 LINE",
"159 235 LINE",
"272 360 LINE"
);
}
);
width = 610;
}
);
note = K;
rightKerningGroup = K;
unicode = 004B;
},
{
glyphname = L;
lastChange = "2019-02-02 11:40:47 +0000";
layers = (
{
layerId = "1053487F-6E39-46EB-834B-3FE95151DC2D";
paths = (
{
closed = 1;
nodes = (
"467 0 LINE",
"467 53 LINE",
"159 53 LINE",
"159 698 LINE",
"99 698 LINE",
"99 0 LINE"
);
}
);
width = 491;
}
);
note = L;
rightKerningGroup = L;
unicode = 004C;
},
{
glyphname = M;
lastChange = "2019-02-02 11:40:47 +0000";
layers = (
{
layerId = "1053487F-6E39-46EB-834B-3FE95151DC2D";
paths = (
{
closed = 1;
nodes = (
"99 0 LINE",
"157 0 LINE",
"157 621 LINE",
"161 621 LINE",
"402 194 LINE",
"643 621 LINE",
"647 621 LINE",
"647 0 LINE",
"705 0 LINE",
"705 698 LINE",
"626 698 LINE",
"405 305 LINE",
"402 305 LINE",
"181 698 LINE",
"99 698 LINE"
);
}
);
width = 804;
}
);
note = M;
unicode = 004D;
},
{
glyphname = N;
lastChange = "2019-02-02 11:40:47 +0000";
layers = (
{
layerId = "1053487F-6E39-46EB-834B-3FE95151DC2D";
paths = (
{
closed = 1;
nodes = (
"527 0 LINE",
"602 0 LINE",
"602 698 LINE",
"544 698 LINE",
"544 82 LINE",
"541 82 LINE",
"174 698 LINE",
"99 698 LINE",
"99 0 LINE",
"157 0 LINE",
"157 616 LINE",
"160 616 LINE"
);
}
);
width = 701;
}
);
note = N;
unicode = 004E;
},
{
glyphname = O;
lastChange = "2019-02-02 11:40:47 +0000";
layers = (
{
layerId = "1053487F-6E39-46EB-834B-3FE95151DC2D";
paths = (
{
closed = 1;
nodes = (
"526 -12 OFFCURVE",
"634 113 OFFCURVE",
"634 349 CURVE SMOOTH",
"634 585 OFFCURVE",
"526 710 OFFCURVE",
"349 710 CURVE SMOOTH",
"171 710 OFFCURVE",
"63 585 OFFCURVE",
"63 349 CURVE SMOOTH",
"63 113 OFFCURVE",
"171 -12 OFFCURVE",
"349 -12 CURVE SMOOTH"
);
},
{
closed = 1;
nodes = (
"215 42 OFFCURVE",
"127 139 OFFCURVE",
"127 305 CURVE SMOOTH",
"127 393 LINE SMOOTH",
"127 559 OFFCURVE",
"215 656 OFFCURVE",
"349 656 CURVE SMOOTH",
"482 656 OFFCURVE",
"570 559 OFFCURVE",
"570 393 CURVE SMOOTH",
"570 305 LINE SMOOTH",
"570 139 OFFCURVE",
"482 42 OFFCURVE",
"349 42 CURVE SMOOTH"
);
}
);
width = 697;
}
);
leftKerningGroup = C;
note = O;
rightKerningGroup = O;
unicode = 004F;
},
{
glyphname = P;
lastChange = "2019-02-02 11:40:47 +0000";
layers = (
{
layerId = "1053487F-6E39-46EB-834B-3FE95151DC2D";
paths = (
{
closed = 1;
nodes = (
"159 0 LINE",
"159 307 LINE",
"373 307 LINE SMOOTH",
"494 307 OFFCURVE",
"560 383 OFFCURVE",
"560 503 CURVE SMOOTH",
"560 622 OFFCURVE",
"494 698 OFFCURVE",
"373 698 CURVE SMOOTH",
"99 698 LINE",
"99 0 LINE"
);
},
{
closed = 1;
nodes = (
"159 645 LINE",
"373 645 LINE SMOOTH",
"453 645 OFFCURVE",
"496 595 OFFCURVE",
"496 527 CURVE SMOOTH",
"496 479 LINE SMOOTH",
"496 410 OFFCURVE",
"453 360 OFFCURVE",
"373 360 CURVE SMOOTH",
"159 360 LINE"
);
}
);
width = 601;
}
);
note = P;
rightKerningGroup = P;
unicode = 0050;
},
{
glyphname = Q;
lastChange = "2019-02-02 11:40:47 +0000";
layers = (
{
layerId = "1053487F-6E39-46EB-834B-3FE95151DC2D";
paths = (
{
closed = 1;
nodes = (
"488 -106 LINE",
"382 -106 LINE",
"382 -10 LINE",
"540 5 OFFCURVE",
"634 128 OFFCURVE",
"634 349 CURVE SMOOTH",
"634 585 OFFCURVE",
"526 710 OFFCURVE",
"349 710 CURVE SMOOTH",
"171 710 OFFCURVE",
"63 585 OFFCURVE",
"63 349 CURVE SMOOTH",
"63 124 OFFCURVE",
"161 0 OFFCURVE",
"325 -11 CURVE",
"325 -96 LINE SMOOTH",
"325 -132 OFFCURVE",
"346 -157 OFFCURVE",
"387 -157 CURVE SMOOTH",
"488 -157 LINE"
);
},
{
closed = 1;
nodes = (
"215 42 OFFCURVE",
"127 139 OFFCURVE",
"127 305 CURVE SMOOTH",
"127 393 LINE SMOOTH",
"127 559 OFFCURVE",
"215 656 OFFCURVE",
"349 656 CURVE SMOOTH",
"482 656 OFFCURVE",
"570 559 OFFCURVE",
"570 393 CURVE SMOOTH",
"570 305 LINE SMOOTH",
"570 139 OFFCURVE",
"482 42 OFFCURVE",
"349 42 CURVE SMOOTH"
);
}
);
width = 697;
}
);
leftKerningGroup = C;
note = Q;
rightKerningGroup = O;
unicode = 0051;
},
{
glyphname = R;
lastChange = "2019-02-02 11:40:47 +0000";
layers = (
{
layerId = "1053487F-6E39-46EB-834B-3FE95151DC2D";
paths = (
{
closed = 1;
nodes = (
"159 309 LINE",
"344 309 LINE",
"511 0 LINE",
"578 0 LINE",
"406 313 LINE",
"506 326 OFFCURVE",
"560 397 OFFCURVE",
"560 504 CURVE SMOOTH",
"560 626 OFFCURVE",
"492 698 OFFCURVE",
"373 698 CURVE SMOOTH",
"99 698 LINE",
"99 0 LINE",
"159 0 LINE"
);
},
{
closed = 1;
nodes = (
"159 360 LINE",
"159 645 LINE",
"373 645 LINE SMOOTH",
"453 645 OFFCURVE",
"496 595 OFFCURVE",
"496 527 CURVE SMOOTH",
"496 479 LINE SMOOTH",
"496 410 OFFCURVE",
"453 360 OFFCURVE",
"373 360 CURVE SMOOTH"
);
}
);
width = 636;
}
);
note = R;
rightKerningGroup = R;
unicode = 0052;
},
{
glyphname = S;
lastChange = "2019-02-02 11:40:47 +0000";
layers = (
{
layerId = "1053487F-6E39-46EB-834B-3FE95151DC2D";
paths = (
{
closed = 1;
nodes = (
"426 -12 OFFCURVE",
"513 63 OFFCURVE",
"513 190 CURVE SMOOTH",
"513 286 OFFCURVE",
"464 351 OFFCURVE",
"325 381 CURVE SMOOTH",
"263 394 LINE SMOOTH",
"176 412 OFFCURVE",
"120 444 OFFCURVE",
"120 527 CURVE SMOOTH",
"120 613 OFFCURVE",
"182 657 OFFCURVE",
"282 657 CURVE SMOOTH",
"366 657 OFFCURVE",
"422 625 OFFCURVE",
"461 570 CURVE",
"506 603 LINE",
"460 670 OFFCURVE",
"389 710 OFFCURVE",
"285 710 CURVE SMOOTH",
"151 710 OFFCURVE",
"61 647 OFFCURVE",
"61 525 CURVE SMOOTH",
"61 428 OFFCURVE",
"119 365 OFFCURVE",
"251 338 CURVE SMOOTH",
"313 325 LINE SMOOTH",
"402 306 OFFCURVE",
"454 273 OFFCURVE",
"454 187 CURVE SMOOTH",
"454 95 OFFCURVE",
"394 41 OFFCURVE",
"286 41 CURVE SMOOTH",
"195 41 OFFCURVE",
"136 79 OFFCURVE",
"87 144 CURVE",
"42 107 LINE",
"96 35 OFFCURVE",
"170 -12 OFFCURVE",
"284 -12 CURVE SMOOTH"
);
}
);
width = 568;
}
);
leftKerningGroup = S;
note = S;
rightKerningGroup = S;
unicode = 0053;
},
{
glyphname = T;
lastChange = "2019-02-02 11:40:47 +0000";
layers = (
{
layerId = "1053487F-6E39-46EB-834B-3FE95151DC2D";
paths = (
{
closed = 1;
nodes = (
"548 645 LINE",
"548 698 LINE",
"20 698 LINE",
"20 645 LINE",
"254 645 LINE",
"254 0 LINE",
"314 0 LINE",
"314 645 LINE"
);
}
);
width = 568;
}
);
leftKerningGroup = T;
note = T;
rightKerningGroup = T;
unicode = 0054;
},
{
glyphname = U;
lastChange = "2019-02-02 11:40:47 +0000";
layers = (
{
layerId = "1053487F-6E39-46EB-834B-3FE95151DC2D";
paths = (
{
closed = 1;
nodes = (
"93 698 LINE",
"93 280 LINE SMOOTH",
"93 75 OFFCURVE",
"153 -12 OFFCURVE",
"332 -12 CURVE SMOOTH",
"511 -12 OFFCURVE",
"575 75 OFFCURVE",
"575 280 CURVE SMOOTH",
"575 698 LINE",
"515 698 LINE",
"515 267 LINE SMOOTH",
"515 112 OFFCURVE",
"470 42 OFFCURVE",
"334 42 CURVE SMOOTH",
"197 42 OFFCURVE",
"153 112 OFFCURVE",
"153 267 CURVE SMOOTH",
"153 698 LINE"
);
}
);
width = 668;
}
);
leftKerningGroup = U;
note = U;
rightKerningGroup = U;
unicode = 0055;
},
{
glyphname = V;
lastChange = "2019-02-02 11:40:47 +0000";
layers = (
{
layerId = "1053487F-6E39-46EB-834B-3FE95151DC2D";
paths = (
{
closed = 1;
nodes = (
"334 0 LINE",
"570 698 LINE",
"507 698 LINE",
"299 61 LINE",
"295 61 LINE",
"89 698 LINE",
"24 698 LINE",
"258 0 LINE"
);
}
);
width = 594;
}
);
leftKerningGroup = V;
note = V;
rightKerningGroup = V;
unicode = 0056;
},
{
glyphname = W;
lastChange = "2019-02-02 11:40:47 +0000";
layers = (
{
layerId = "1053487F-6E39-46EB-834B-3FE95151DC2D";
paths = (
{
closed = 1;
nodes = (
"270 0 LINE",
"439 631 LINE",
"441 631 LINE",
"608 0 LINE",
"678 0 LINE",
"860 698 LINE",
"798 698 LINE",
"644 74 LINE",
"641 74 LINE",
"478 698 LINE",
"405 698 LINE",
"240 74 LINE",
"237 74 LINE",
"88 698 LINE",
"24 698 LINE",
"200 0 LINE"
);
}
);
width = 884;
}
);
leftKerningGroup = W;
note = W;
rightKerningGroup = W;
unicode = 0057;
},
{
glyphname = X;
lastChange = "2019-02-02 11:40:47 +0000";
layers = (
{
layerId = "1053487F-6E39-46EB-834B-3FE95151DC2D";
paths = (
{
closed = 1;
nodes = (
"26 0 LINE",
"95 0 LINE",
"294 309 LINE",
"296 309 LINE",
"494 0 LINE",
"566 0 LINE",
"333 358 LINE",
"559 698 LINE",
"490 698 LINE",
"297 403 LINE",
"295 403 LINE",
"104 698 LINE",
"33 698 LINE",
"257 355 LINE"
);
}
);
width = 592;
}
);
leftKerningGroup = X;
note = X;
rightKerningGroup = X;
unicode = 0058;
},
{
glyphname = Y;
lastChange = "2019-02-02 11:40:47 +0000";
layers = (
{
layerId = "1053487F-6E39-46EB-834B-3FE95151DC2D";
paths = (
{
closed = 1;
nodes = (
"317 0 LINE",
"317 286 LINE",
"559 698 LINE",
"491 698 LINE",
"289 346 LINE",
"286 346 LINE",
"84 698 LINE",
"16 698 LINE",
"257 283 LINE",
"257 0 LINE"
);
}
);
width = 575;
}
);
leftKerningGroup = Y;
note = Y;
rightKerningGroup = Y;
unicode = 0059;
},
{
glyphname = Z;
lastChange = "2019-02-02 11:40:47 +0000";
layers = (
{
layerId = "1053487F-6E39-46EB-834B-3FE95151DC2D";
paths = (
{
closed = 1;
nodes = (
"537 53 LINE",
"101 53 LINE",
"521 643 LINE",
"521 698 LINE",
"59 698 LINE",
"59 645 LINE",
"456 645 LINE",
"37 55 LINE",
"37 0 LINE",
"537 0 LINE"
);
}
);
width = 570;
}
);
leftKerningGroup = Z;
note = Z;
rightKerningGroup = Z;
unicode = 005A;
},
{
glyphname = zero;
lastChange = "2019-02-02 11:40:47 +0000";
layers = (
{
layerId = "1053487F-6E39-46EB-834B-3FE95151DC2D";
paths = (
{
closed = 1;
nodes = (
"459 -12 OFFCURVE",
"536 110 OFFCURVE",
"536 349 CURVE SMOOTH",
"536 588 OFFCURVE",
"459 710 OFFCURVE",
"300 710 CURVE SMOOTH",
"141 710 OFFCURVE",
"64 588 OFFCURVE",
"64 349 CURVE SMOOTH",
"64 110 OFFCURVE",
"141 -12 OFFCURVE",
"300 -12 CURVE SMOOTH"
);
},
{
closed = 1;
nodes = (
"182 40 OFFCURVE",
"127 139 OFFCURVE",
"127 302 CURVE SMOOTH",
"127 396 LINE SMOOTH",
"127 559 OFFCURVE",
"182 658 OFFCURVE",
"300 658 CURVE SMOOTH",
"418 658 OFFCURVE",
"473 559 OFFCURVE",
"473 396 CURVE SMOOTH",
"473 302 LINE SMOOTH",
"473 139 OFFCURVE",
"418 40 OFFCURVE",
"300 40 CURVE SMOOTH"
);
}
);
width = 600;
}
);
note = zero;
unicode = 0030;
},
{
glyphname = zero.alt01;
lastChange = "2019-02-02 11:40:47 +0000";
layers = (
{
layerId = "1053487F-6E39-46EB-834B-3FE95151DC2D";
paths = (
{
closed = 1;
nodes = (
"459 -12 OFFCURVE",
"536 110 OFFCURVE",
"536 349 CURVE SMOOTH",
"536 588 OFFCURVE",
"459 710 OFFCURVE",
"300 710 CURVE SMOOTH",
"141 710 OFFCURVE",
"64 588 OFFCURVE",
"64 349 CURVE SMOOTH",
"64 110 OFFCURVE",
"141 -12 OFFCURVE",
"300 -12 CURVE SMOOTH"
);
},
{
closed = 1;
nodes = (
"182 40 OFFCURVE",
"127 139 OFFCURVE",
"127 302 CURVE SMOOTH",
"127 396 LINE SMOOTH",
"127 559 OFFCURVE",
"182 658 OFFCURVE",
"300 658 CURVE SMOOTH",
"418 658 OFFCURVE",
"473 559 OFFCURVE",
"473 396 CURVE SMOOTH",
"473 302 LINE SMOOTH",
"473 139 OFFCURVE",
"418 40 OFFCURVE",
"300 40 CURVE SMOOTH"
);
},
{
closed = 1;
nodes = (
"330 303 OFFCURVE",
"343 321 OFFCURVE",
"343 345 CURVE SMOOTH",
"343 353 LINE SMOOTH",
"343 377 OFFCURVE",
"330 395 OFFCURVE",
"300 395 CURVE SMOOTH",
"270 395 OFFCURVE",
"257 377 OFFCURVE",
"257 353 CURVE SMOOTH",
"257 345 LINE SMOOTH",
"257 321 OFFCURVE",
"270 303 OFFCURVE",
"300 303 CURVE SMOOTH"
);
}
);
width = 600;
}
);
note = zero.alt01;
},
{
glyphname = zero.alt02;
lastChange = "2019-02-02 11:40:47 +0000";
layers = (
{
layerId = "1053487F-6E39-46EB-834B-3FE95151DC2D";
paths = (
{
closed = 1;
nodes = (
"459 -12 OFFCURVE",
"536 110 OFFCURVE",
"536 349 CURVE SMOOTH",
"536 588 OFFCURVE",
"459 710 OFFCURVE",
"300 710 CURVE SMOOTH",
"141 710 OFFCURVE",
"64 588 OFFCURVE",
"64 349 CURVE SMOOTH",
"64 110 OFFCURVE",
"141 -12 OFFCURVE",
"300 -12 CURVE SMOOTH"
);
},
{
closed = 1;
nodes = (
"375 658 OFFCURVE",
"424 619 OFFCURVE",
"450 548 CURVE",
"137 202 LINE",
"130 231 OFFCURVE",
"127 264 OFFCURVE",
"127 302 CURVE SMOOTH",
"127 396 LINE SMOOTH",
"127 559 OFFCURVE",
"182 658 OFFCURVE",
"300 658 CURVE SMOOTH"
);
},
{
closed = 1;
nodes = (
"225 40 OFFCURVE",
"176 79 OFFCURVE",
"150 149 CURVE",
"463 496 LINE",
"470 467 OFFCURVE",
"473 434 OFFCURVE",
"473 396 CURVE SMOOTH",
"473 302 LINE SMOOTH",
"473 139 OFFCURVE",
"418 40 OFFCURVE",
"300 40 CURVE SMOOTH"
);
}
);
width = 600;
}
);
note = zero.alt02;
},
{
glyphname = one;
lastChange = "2019-02-02 11:40:47 +0000";
layers = (
{
layerId = "1053487F-6E39-46EB-834B-3FE95151DC2D";
paths = (
{
closed = 1;
nodes = (
"546 0 LINE",
"546 53 LINE",
"354 53 LINE",
"354 698 LINE",
"262 698 LINE",
"63 521 LINE",
"97 483 LINE",
"289 654 LINE",
"294 654 LINE",
"294 53 LINE",
"90 53 LINE",
"90 0 LINE"
);
}
);
width = 600;
}
);
note = one;
unicode = 0031;
},
{
glyphname = two;
lastChange = "2019-02-02 11:40:47 +0000";
layers = (
{
layerId = "1053487F-6E39-46EB-834B-3FE95151DC2D";
paths = (
{
closed = 1;
nodes = (
"528 53 LINE",
"145 53 LINE",
"360 257 LINE SMOOTH",
"444 335 OFFCURVE",
"499 410 OFFCURVE",
"499 511 CURVE SMOOTH",
"499 630 OFFCURVE",
"425 710 OFFCURVE",
"293 710 CURVE SMOOTH",
"166 710 OFFCURVE",
"102 635 OFFCURVE",
"76 550 CURVE",
"130 530 LINE",
"152 604 OFFCURVE",
"198 656 OFFCURVE",
"291 656 CURVE SMOOTH",
"387 656 OFFCURVE",
"435 598 OFFCURVE",
"435 516 CURVE SMOOTH",
"435 497 LINE SMOOTH",
"435 427 OFFCURVE",
"389 358 OFFCURVE",
"324 295 CURVE SMOOTH",
"80 61 LINE",
"80 0 LINE",
"528 0 LINE"
);
}
);
width = 600;
}
);
note = two;
unicode = 0032;
},
{
glyphname = three;
lastChange = "2019-02-02 11:40:47 +0000";
layers = (
{
layerId = "1053487F-6E39-46EB-834B-3FE95151DC2D";
paths = (
{
closed = 1;
nodes = (
"185 392 LINE",
"185 340 LINE",
"273 340 LINE SMOOTH",
"376 340 OFFCURVE",
"435 286 OFFCURVE",
"435 199 CURVE SMOOTH",
"435 183 LINE SMOOTH",
"435 96 OFFCURVE",
"374 42 OFFCURVE",
"273 42 CURVE SMOOTH",
"186 42 OFFCURVE",
"137 76 OFFCURVE",
"98 136 CURVE",
"53 102 LINE",
"97 37 OFFCURVE",
"162 -12 OFFCURVE",
"274 -12 CURVE SMOOTH",
"410 -12 OFFCURVE",
"499 68 OFFCURVE",
"499 189 CURVE SMOOTH",
"499 294 OFFCURVE",
"431 352 OFFCURVE",
"349 366 CURVE",
"349 370 LINE",
"426 388 OFFCURVE",
"485 441 OFFCURVE",
"485 535 CURVE SMOOTH",
"485 645 OFFCURVE",
"399 710 OFFCURVE",
"283 710 CURVE SMOOTH",
"175 710 OFFCURVE",
"113 657 OFFCURVE",
"81 597 CURVE",
"126 565 LINE",
"155 621 OFFCURVE",
"201 656 OFFCURVE",
"282 656 CURVE SMOOTH",
"363 656 OFFCURVE",
"421 611 OFFCURVE",
"421 533 CURVE SMOOTH",
"421 520 LINE SMOOTH",
"421 445 OFFCURVE",
"364 392 OFFCURVE",
"268 392 CURVE SMOOTH"
);
}
);
width = 600;
}
);
note = three;
unicode = 0033;
},
{
glyphname = four;
lastChange = "2019-02-02 11:40:47 +0000";
layers = (
{
layerId = "1053487F-6E39-46EB-834B-3FE95151DC2D";
paths = (
{
closed = 1;
nodes = (
"446 0 LINE",
"446 146 LINE",
"554 146 LINE",
"554 196 LINE",
"446 196 LINE",
"446 698 LINE",
"360 698 LINE",
"42 199 LINE",
"42 146 LINE",
"389 146 LINE",
"389 0 LINE"
);
},
{
closed = 1;
nodes = (
"386 647 LINE",
"389 647 LINE",
"389 196 LINE",
"98 196 LINE"
);
}
);
width = 600;
}
);
note = four;
unicode = 0034;
},
{
glyphname = five;
lastChange = "2019-02-02 11:40:47 +0000";
layers = (
{
layerId = "1053487F-6E39-46EB-834B-3FE95151DC2D";
paths = (
{
closed = 1;
nodes = (
"491 698 LINE",
"130 698 LINE",
"105 319 LINE",
"157 311 LINE",
"191 350 OFFCURVE",
"226 375 OFFCURVE",
"299 375 CURVE SMOOTH",
"401 375 OFFCURVE",
"457 314 OFFCURVE",
"457 217 CURVE SMOOTH",
"457 200 LINE SMOOTH",
"457 103 OFFCURVE",
"399 42 OFFCURVE",
"296 42 CURVE SMOOTH",
"209 42 OFFCURVE",
"164 76 OFFCURVE",
"125 136 CURVE",
"80 102 LINE",
"123 37 OFFCURVE",
"187 -12 OFFCURVE",
"296 -12 CURVE SMOOTH",
"435 -12 OFFCURVE",
"520 78 OFFCURVE",
"520 213 CURVE SMOOTH",
"520 346 OFFCURVE",
"438 426 OFFCURVE",
"315 426 CURVE SMOOTH",
"241 426 OFFCURVE",
"198 401 OFFCURVE",
"163 352 CURVE",
"157 353 LINE",
"179 645 LINE",
"491 645 LINE"
);
}
);
width = 600;
}
);
note = five;
unicode = 0035;
},
{
glyphname = six;
lastChange = "2019-02-02 11:40:47 +0000";
layers = (
{
layerId = "1053487F-6E39-46EB-834B-3FE95151DC2D";
paths = (
{
closed = 1;
nodes = (
"436 -12 OFFCURVE",
"524 79 OFFCURVE",
"524 214 CURVE SMOOTH",
"524 345 OFFCURVE",
"440 427 OFFCURVE",
"316 427 CURVE SMOOTH",
"232 427 OFFCURVE",
"176 387 OFFCURVE",
"142 325 CURVE",
"138 326 LINE",
"172 490 OFFCURVE",
"258 592 OFFCURVE",
"412 698 CURVE",
"333 698 LINE",
"205 616 OFFCURVE",
"75 459 OFFCURVE",
"75 244 CURVE SMOOTH",
"75 91 OFFCURVE",
"153 -12 OFFCURVE",
"301 -12 CURVE SMOOTH"
);
},
{
closed = 1;
nodes = (
"198 40 OFFCURVE",
"137 103 OFFCURVE",
"137 201 CURVE SMOOTH",
"137 217 LINE SMOOTH",
"137 314 OFFCURVE",
"197 376 OFFCURVE",
"300 376 CURVE SMOOTH",
"402 376 OFFCURVE",
"462 314 OFFCURVE",
"462 217 CURVE SMOOTH",
"462 200 LINE SMOOTH",
"462 103 OFFCURVE",
"401 40 OFFCURVE",
"300 40 CURVE SMOOTH"
);
}
);
width = 600;
}
);
note = six;
unicode = 0036;
},
{
glyphname = seven;
lastChange = "2019-02-02 11:40:47 +0000";
layers = (
{
layerId = "1053487F-6E39-46EB-834B-3FE95151DC2D";
paths = (
{
closed = 1;
nodes = (
"244 0 LINE",
"521 645 LINE",
"521 698 LINE",
"72 698 LINE",
"72 502 LINE",
"126 502 LINE",
"126 646 LINE",
"460 646 LINE",
"180 0 LINE"
);
}
);
width = 600;
}
);
note = seven;
unicode = 0037;
},
{
glyphname = eight;
lastChange = "2019-02-02 11:40:47 +0000";
layers = (
{
layerId = "1053487F-6E39-46EB-834B-3FE95151DC2D";
paths = (
{
closed = 1;
nodes = (
"452 -12 OFFCURVE",
"537 71 OFFCURVE",
"537 186 CURVE SMOOTH",
"537 283 OFFCURVE",
"479 343 OFFCURVE",
"390 363 CURVE",
"390 370 LINE",
"466 391 OFFCURVE",
"514 451 OFFCURVE",
"514 535 CURVE SMOOTH",
"514 641 OFFCURVE",
"434 710 OFFCURVE",
"300 710 CURVE SMOOTH",
"166 710 OFFCURVE",
"86 641 OFFCURVE",
"86 535 CURVE SMOOTH",
"86 451 OFFCURVE",
"134 391 OFFCURVE",
"210 370 CURVE",
"210 363 LINE",
"121 343 OFFCURVE",
"63 283 OFFCURVE",
"63 186 CURVE SMOOTH",
"63 71 OFFCURVE",
"148 -12 OFFCURVE",
"300 -12 CURVE SMOOTH"
);
},
{
closed = 1;
nodes = (
"192 40 OFFCURVE",
"127 94 OFFCURVE",
"127 179 CURVE SMOOTH",
"127 202 LINE SMOOTH",
"127 288 OFFCURVE",
"192 341 OFFCURVE",
"300 341 CURVE SMOOTH",
"408 341 OFFCURVE",
"473 288 OFFCURVE",
"473 202 CURVE SMOOTH",
"473 179 LINE SMOOTH",
"473 94 OFFCURVE",
"408 40 OFFCURVE",
"300 40 CURVE SMOOTH"
);
},
{
closed = 1;
nodes = (
"204 392 OFFCURVE",
"148 438 OFFCURVE",
"148 516 CURVE SMOOTH",
"148 534 LINE SMOOTH",
"148 611 OFFCURVE",
"204 658 OFFCURVE",
"300 658 CURVE SMOOTH",
"396 658 OFFCURVE",
"452 611 OFFCURVE",
"452 534 CURVE SMOOTH",
"452 516 LINE SMOOTH",
"452 438 OFFCURVE",
"396 392 OFFCURVE",
"300 392 CURVE SMOOTH"
);
}
);
width = 600;
}
);
note = eight;
unicode = 0038;
},
{
glyphname = nine;
lastChange = "2019-02-02 11:40:47 +0000";
layers = (
{
layerId = "1053487F-6E39-46EB-834B-3FE95151DC2D";
paths = (
{
closed = 1;
nodes = (
"525 607 OFFCURVE",
"447 710 OFFCURVE",
"300 710 CURVE SMOOTH",
"164 710 OFFCURVE",
"76 619 OFFCURVE",
"76 484 CURVE SMOOTH",
"76 353 OFFCURVE",
"161 271 OFFCURVE",
"284 271 CURVE SMOOTH",
"368 271 OFFCURVE",
"424 311 OFFCURVE",
"458 373 CURVE",
"462 372 LINE",
"428 208 OFFCURVE",
"343 106 OFFCURVE",
"189 0 CURVE",
"267 0 LINE",
"395 82 OFFCURVE",
"525 239 OFFCURVE",
"525 454 CURVE SMOOTH"
);
},
{
closed = 1;
nodes = (
"198 322 OFFCURVE",
"138 384 OFFCURVE",
"138 481 CURVE SMOOTH",
"138 498 LINE SMOOTH",
"138 595 OFFCURVE",
"199 658 OFFCURVE",
"301 658 CURVE SMOOTH",
"402 658 OFFCURVE",
"463 595 OFFCURVE",
"463 497 CURVE SMOOTH",
"463 481 LINE SMOOTH",
"463 384 OFFCURVE",
"403 322 OFFCURVE",
"301 322 CURVE SMOOTH"
);
}
);
width = 600;
}
);
note = nine;
unicode = 0039;
},
{
glyphname = ampersand;
lastChange = "2019-02-02 11:40:47 +0000";
layers = (
{
layerId = "1053487F-6E39-46EB-834B-3FE95151DC2D";
paths = (
{
closed = 1;
nodes = (
"583 0 LINE",
"657 0 LINE",
"522 141 LINE",
"545 190 OFFCURVE",
"560 247 OFFCURVE",
"566 311 CURVE",
"644 311 LINE",
"644 361 LINE",
"519 361 LINE",
"517 295 OFFCURVE",
"507 231 OFFCURVE",
"486 179 CURVE",
"305 367 LINE",
"404 418 OFFCURVE",
"479 470 OFFCURVE",
"479 564 CURVE SMOOTH",
"479 649 OFFCURVE",
"413 710 OFFCURVE",
"314 710 CURVE SMOOTH",
"207 710 OFFCURVE",
"138 640 OFFCURVE",
"138 547 CURVE SMOOTH",
"138 483 OFFCURVE",
"171 433 OFFCURVE",
"224 375 CURVE",
"145 334 OFFCURVE",
"71 282 OFFCURVE",
"71 175 CURVE SMOOTH",
"71 68 OFFCURVE",
"148 -12 OFFCURVE",
"280 -12 CURVE SMOOTH",
"390 -12 OFFCURVE",
"458 44 OFFCURVE",
"492 95 CURVE"
);
},
{
closed = 1;
nodes = (
"371 662 OFFCURVE",
"423 626 OFFCURVE",
"423 564 CURVE SMOOTH",
"423 551 LINE SMOOTH",
"423 488 OFFCURVE",
"354 440 OFFCURVE",
"273 400 CURVE",
"228 449 OFFCURVE",
"195 494 OFFCURVE",
"195 541 CURVE SMOOTH",
"195 555 LINE SMOOTH",
"195 615 OFFCURVE",
"241 662 OFFCURVE",
"311 662 CURVE SMOOTH"
);
},
{
closed = 1;
nodes = (
"131 186 LINE SMOOTH",
"131 271 OFFCURVE",
"189 308 OFFCURVE",
"255 342 CURVE",
"459 130 LINE",
"422 73 OFFCURVE",
"365 39 OFFCURVE",
"284 39 CURVE SMOOTH",
"193 39 OFFCURVE",
"131 89 OFFCURVE",
"131 169 CURVE SMOOTH"
);
}
);
width = 687;
}
);
leftKerningGroup = ampersand;
note = ampersand;
rightKerningGroup = ampersand;
unicode = 0026;
},
{
glyphname = at;
lastChange = "2019-02-02 11:40:47 +0000";
layers = (
{
layerId = "1053487F-6E39-46EB-834B-3FE95151DC2D";
paths = (
{
closed = 1;
nodes = (
"678 -77 LINE",
"445 -77 LINE SMOOTH",
"252 -77 OFFCURVE",
"116 64 OFFCURVE",
"116 267 CURVE SMOOTH",
"116 323 LINE SMOOTH",
"116 518 OFFCURVE",
"255 665 OFFCURVE",
"450 665 CURVE SMOOTH",
"631 665 OFFCURVE",
"771 542 OFFCURVE",
"771 354 CURVE SMOOTH",
"771 308 LINE SMOOTH",
"771 187 OFFCURVE",
"732 113 OFFCURVE",
"666 113 CURVE SMOOTH",
"626 113 OFFCURVE",
"604 134 OFFCURVE",
"604 183 CURVE SMOOTH",
"604 498 LINE",
"554 498 LINE",
"554 432 LINE",
"550 432 LINE",
"532 473 OFFCURVE",
"494 509 OFFCURVE",
"428 509 CURVE SMOOTH",
"329 509 OFFCURVE",
"255 436 OFFCURVE",
"255 288 CURVE SMOOTH",
"255 141 OFFCURVE",
"329 69 OFFCURVE",
"428 69 CURVE SMOOTH",
"494 69 OFFCURVE",
"533 105 OFFCURVE",
"557 152 CURVE",
"560 152 LINE",
"566 103 OFFCURVE",
"600 69 OFFCURVE",
"658 69 CURVE SMOOTH",
"774 69 OFFCURVE",
"820 185 OFFCURVE",
"820 326 CURVE SMOOTH",
"820 590 OFFCURVE",
"644 709 OFFCURVE",
"451 709 CURVE SMOOTH",
"224 709 OFFCURVE",
"67 543 OFFCURVE",
"67 293 CURVE SMOOTH",
"67 37 OFFCURVE",
"224 -121 OFFCURVE",
"444 -121 CURVE SMOOTH",
"678 -121 LINE"
);
},
{
closed = 1;
nodes = (
"355 117 OFFCURVE",
"315 172 OFFCURVE",
"315 256 CURVE SMOOTH",
"315 320 LINE SMOOTH",
"315 407 OFFCURVE",
"355 461 OFFCURVE",
"437 461 CURVE SMOOTH",
"508 461 OFFCURVE",
"554 418 OFFCURVE",
"554 357 CURVE SMOOTH",
"554 224 LINE SMOOTH",
"554 158 OFFCURVE",
"508 117 OFFCURVE",
"437 117 CURVE SMOOTH"
);
}
);
width = 887;
}
);
leftKerningGroup = at;
note = at;
rightKerningGroup = at;
unicode = 0040;
},
{
glyphname = hyphen;
lastChange = "2019-02-02 11:40:47 +0000";
layers = (
{
layerId = "1053487F-6E39-46EB-834B-3FE95151DC2D";
paths = (
{
closed = 1;
nodes = (
"323 274 LINE",
"323 335 LINE",
"74 335 LINE",
"74 274 LINE"
);
}
);
width = 397;
}
);
leftKerningGroup = hyphen;
note = hyphen;
rightKerningGroup = hyphen;
unicode = 002D;
},
{
glyphname = uni00AD;
lastChange = "2019-02-02 11:40:47 +0000";
layers = (
{
layerId = "1053487F-6E39-46EB-834B-3FE95151DC2D";
paths = (
{
closed = 1;
nodes = (
"323 274 LINE",
"323 335 LINE",
"74 335 LINE",
"74 274 LINE"
);
}
);
width = 397;
}
);
leftKerningGroup = hyphen;
note = uni00AD;
rightKerningGroup = hyphen;
unicode = 00AD;
},
{
glyphname = endash;
lastChange = "2019-02-02 11:40:47 +0000";
layers = (
{
layerId = "1053487F-6E39-46EB-834B-3FE95151DC2D";
paths = (
{
closed = 1;
nodes = (
"552 278 LINE",
"552 331 LINE",
"36 331 LINE",
"36 278 LINE"
);
}
);
width = 588;
}
);
leftKerningGroup = hyphen;
note = endash;
rightKerningGroup = hyphen;
unicode = 2013;
},
{
glyphname = emdash;
lastChange = "2019-02-02 11:40:47 +0000";
layers = (
{
layerId = "1053487F-6E39-46EB-834B-3FE95151DC2D";
paths = (
{
closed = 1;
nodes = (
"744 278 LINE",
"744 331 LINE",
"36 331 LINE",
"36 278 LINE"
);
}
);
width = 780;
}
);
leftKerningGroup = hyphen;
note = emdash;
rightKerningGroup = hyphen;
unicode = 2014;
},
{
glyphname = underscore;
lastChange = "2019-02-02 11:40:47 +0000";
layers = (
{
layerId = "1053487F-6E39-46EB-834B-3FE95151DC2D";
paths = (
{
closed = 1;
nodes = (
"537 -156 LINE",
"537 -106 LINE",
"30 -106 LINE",
"30 -156 LINE"
);
}
);
width = 567;
}
);
leftKerningGroup = underscore;
note = underscore;
rightKerningGroup = underscore;
unicode = 005F;
},
{
glyphname = period;
lastChange = "2019-02-02 11:40:47 +0000";
layers = (
{
layerId = "1053487F-6E39-46EB-834B-3FE95151DC2D";
paths = (
{
closed = 1;
nodes = (
"162 -9 OFFCURVE",
"178 9 OFFCURVE",
"178 36 CURVE SMOOTH",
"178 47 LINE SMOOTH",
"178 74 OFFCURVE",
"162 92 OFFCURVE",
"130 92 CURVE SMOOTH",
"97 92 OFFCURVE",
"82 74 OFFCURVE",
"82 47 CURVE SMOOTH",
"82 36 LINE SMOOTH",
"82 9 OFFCURVE",
"97 -9 OFFCURVE",
"130 -9 CURVE SMOOTH"
);
}
);
width = 260;
}
);
leftKerningGroup = period;
note = period;
rightKerningGroup = period;
unicode = 002E;
},
{
glyphname = ellipsis;
lastChange = "2019-02-02 11:40:47 +0000";
layers = (
{
layerId = "1053487F-6E39-46EB-834B-3FE95151DC2D";
paths = (
{
closed = 1;
nodes = (
"682 -9 OFFCURVE",
"698 9 OFFCURVE",
"698 36 CURVE SMOOTH",
"698 47 LINE SMOOTH",
"698 74 OFFCURVE",
"682 92 OFFCURVE",
"650 92 CURVE SMOOTH",
"617 92 OFFCURVE",
"602 74 OFFCURVE",
"602 47 CURVE SMOOTH",
"602 36 LINE SMOOTH",
"602 9 OFFCURVE",
"617 -9 OFFCURVE",
"650 -9 CURVE SMOOTH"
);
},
{
closed = 1;
nodes = (
"422 -9 OFFCURVE",
"438 9 OFFCURVE",
"438 36 CURVE SMOOTH",
"438 47 LINE SMOOTH",
"438 74 OFFCURVE",
"422 92 OFFCURVE",
"390 92 CURVE SMOOTH",
"357 92 OFFCURVE",
"342 74 OFFCURVE",
"342 47 CURVE SMOOTH",
"342 36 LINE SMOOTH",
"342 9 OFFCURVE",
"357 -9 OFFCURVE",
"390 -9 CURVE SMOOTH"
);
},
{
closed = 1;
nodes = (
"162 -9 OFFCURVE",
"178 9 OFFCURVE",
"178 36 CURVE SMOOTH",
"178 47 LINE SMOOTH",
"178 74 OFFCURVE",
"162 92 OFFCURVE",
"130 92 CURVE SMOOTH",
"97 92 OFFCURVE",
"82 74 OFFCURVE",
"82 47 CURVE SMOOTH",
"82 36 LINE SMOOTH",
"82 9 OFFCURVE",
"97 -9 OFFCURVE",
"130 -9 CURVE SMOOTH"
);
}
);
width = 780;
}
);
leftKerningGroup = period;
note = ellipsis;
rightKerningGroup = period;
unicode = 2026;
},
{
glyphname = colon;
lastChange = "2019-02-02 11:40:47 +0000";
layers = (
{
layerId = "1053487F-6E39-46EB-834B-3FE95151DC2D";
paths = (
{
closed = 1;
nodes = (
"172 411 OFFCURVE",
"188 429 OFFCURVE",
"188 456 CURVE SMOOTH",
"188 467 LINE SMOOTH",
"188 494 OFFCURVE",
"172 512 OFFCURVE",
"140 512 CURVE SMOOTH",
"107 512 OFFCURVE",
"92 494 OFFCURVE",
"92 467 CURVE SMOOTH",
"92 456 LINE SMOOTH",
"92 429 OFFCURVE",
"107 411 OFFCURVE",
"140 411 CURVE SMOOTH"
);
},
{
closed = 1;
nodes = (
"172 -9 OFFCURVE",
"188 9 OFFCURVE",
"188 36 CURVE SMOOTH",
"188 47 LINE SMOOTH",
"188 74 OFFCURVE",
"172 92 OFFCURVE",
"140 92 CURVE SMOOTH",
"107 92 OFFCURVE",
"92 74 OFFCURVE",
"92 47 CURVE SMOOTH",
"92 36 LINE SMOOTH",
"92 9 OFFCURVE",
"107 -9 OFFCURVE",
"140 -9 CURVE SMOOTH"
);
}
);
width = 280;
}
);
leftKerningGroup = colon;
note = colon;
rightKerningGroup = colon;
unicode = 003A;
},
{
glyphname = comma;
lastChange = "2019-02-02 11:40:47 +0000";
layers = (
{
layerId = "1053487F-6E39-46EB-834B-3FE95151DC2D";
paths = (
{
closed = 1;
nodes = (
"97 92 OFFCURVE",
"82 73 OFFCURVE",
"82 46 CURVE SMOOTH",
"82 34 LINE SMOOTH",
"82 13 OFFCURVE",
"92 -4 OFFCURVE",
"118 -7 CURVE",
"110 -51 OFFCURVE",
"88 -93 OFFCURVE",
"44 -138 CURVE",
"92 -138 LINE",
"144 -93 OFFCURVE",
"178 -22 OFFCURVE",
"178 33 CURVE SMOOTH",
"178 46 LINE SMOOTH",
"178 73 OFFCURVE",
"163 92 OFFCURVE",
"130 92 CURVE SMOOTH"
);
}
);
width = 260;
}
);
leftKerningGroup = period;
note = comma;
rightKerningGroup = period;
unicode = 002C;
},
{
glyphname = semicolon;
lastChange = "2019-02-02 11:40:47 +0000";
layers = (
{
layerId = "1053487F-6E39-46EB-834B-3FE95151DC2D";
paths = (
{
closed = 1;
nodes = (
"171 411 OFFCURVE",
"187 429 OFFCURVE",
"187 456 CURVE SMOOTH",
"187 467 LINE SMOOTH",
"187 494 OFFCURVE",
"171 512 OFFCURVE",
"139 512 CURVE SMOOTH",
"106 512 OFFCURVE",
"91 494 OFFCURVE",
"91 467 CURVE SMOOTH",
"91 456 LINE SMOOTH",
"91 429 OFFCURVE",
"106 411 OFFCURVE",
"139 411 CURVE SMOOTH"
);
},
{
closed = 1;
nodes = (
"107 92 OFFCURVE",
"92 73 OFFCURVE",
"92 46 CURVE SMOOTH",
"92 34 LINE SMOOTH",
"92 13 OFFCURVE",
"102 -4 OFFCURVE",
"128 -7 CURVE",
"120 -51 OFFCURVE",
"98 -93 OFFCURVE",
"54 -138 CURVE",
"102 -138 LINE",
"154 -93 OFFCURVE",
"188 -22 OFFCURVE",
"188 33 CURVE SMOOTH",
"188 46 LINE SMOOTH",
"188 73 OFFCURVE",
"173 92 OFFCURVE",
"140 92 CURVE SMOOTH"
);
}
);
width = 280;
}
);
leftKerningGroup = colon;
note = semicolon;
rightKerningGroup = colon;
unicode = 003B;
},
{
glyphname = quotesingle;
lastChange = "2019-02-02 11:40:47 +0000";
layers = (
{
layerId = "1053487F-6E39-46EB-834B-3FE95151DC2D";
paths = (
{
closed = 1;
nodes = (
"142 472 LINE",
"142 740 LINE",
"90 740 LINE",
"90 472 LINE"
);
}
);
width = 232;
}
);
leftKerningGroup = quotesingle;
note = quotesingle;
rightKerningGroup = quotesingle;
unicode = 0027;
},
{
glyphname = quotedbl;
lastChange = "2019-02-02 11:40:47 +0000";
layers = (
{
layerId = "1053487F-6E39-46EB-834B-3FE95151DC2D";
paths = (
{
closed = 1;
nodes = (
"310 472 LINE",
"310 740 LINE",
"258 740 LINE",
"258 472 LINE"
);
},
{
closed = 1;
nodes = (
"142 472 LINE",
"142 740 LINE",
"90 740 LINE",
"90 472 LINE"
);
}
);
width = 400;
}
);
leftKerningGroup = quotesingle;
note = quotedbl;
rightKerningGroup = quotesingle;
unicode = 0022;
},
{
glyphname = quoteleft;
lastChange = "2019-02-02 11:40:47 +0000";
layers = (
{
layerId = "1053487F-6E39-46EB-834B-3FE95151DC2D";
paths = (
{
closed = 1;
nodes = (
"159 510 OFFCURVE",
"174 528 OFFCURVE",
"174 556 CURVE SMOOTH",
"174 568 LINE SMOOTH",
"174 589 OFFCURVE",
"163 605 OFFCURVE",
"137 609 CURVE",
"146 652 OFFCURVE",
"168 695 OFFCURVE",
"212 740 CURVE",
"164 740 LINE",
"112 695 OFFCURVE",
"78 623 OFFCURVE",
"78 569 CURVE SMOOTH",
"78 556 LINE SMOOTH",
"78 528 OFFCURVE",
"93 510 OFFCURVE",
"125 510 CURVE SMOOTH"
);
}
);
width = 260;
}
);
leftKerningGroup = quoteleft;
note = quoteleft;
rightKerningGroup = quoteleft;
unicode = 2018;
},
{
glyphname = quoteright;
lastChange = "2019-02-02 11:40:47 +0000";
layers = (
{
layerId = "1053487F-6E39-46EB-834B-3FE95151DC2D";
paths = (
{
closed = 1;
nodes = (
"101 750 OFFCURVE",
"86 731 OFFCURVE",
"86 704 CURVE SMOOTH",
"86 692 LINE SMOOTH",
"86 671 OFFCURVE",
"97 654 OFFCURVE",
"122 651 CURVE",
"114 607 OFFCURVE",
"92 565 OFFCURVE",
"48 520 CURVE",
"96 520 LINE",
"148 565 OFFCURVE",
"182 636 OFFCURVE",
"182 691 CURVE SMOOTH",
"182 704 LINE SMOOTH",
"182 731 OFFCURVE",
"167 750 OFFCURVE",
"134 750 CURVE SMOOTH"
);
}
);
width = 260;
}
);
leftKerningGroup = quoteright;
note = quoteright;
rightKerningGroup = quoteright;
unicode = 2019;
},
{
glyphname = quotedblleft;
lastChange = "2019-02-02 11:40:47 +0000";
layers = (
{
layerId = "1053487F-6E39-46EB-834B-3FE95151DC2D";
paths = (
{
closed = 1;
nodes = (
"345 510 OFFCURVE",
"360 528 OFFCURVE",
"360 556 CURVE SMOOTH",
"360 568 LINE SMOOTH",
"360 589 OFFCURVE",
"349 605 OFFCURVE",
"323 609 CURVE",
"332 652 OFFCURVE",
"354 695 OFFCURVE",
"398 740 CURVE",
"350 740 LINE",
"298 695 OFFCURVE",
"264 623 OFFCURVE",
"264 569 CURVE SMOOTH",
"264 556 LINE SMOOTH",
"264 528 OFFCURVE",
"279 510 OFFCURVE",
"311 510 CURVE SMOOTH"
);
},
{
closed = 1;
nodes = (
"159 510 OFFCURVE",
"174 528 OFFCURVE",
"174 556 CURVE SMOOTH",
"174 568 LINE SMOOTH",
"174 589 OFFCURVE",
"163 605 OFFCURVE",
"137 609 CURVE",
"146 652 OFFCURVE",
"168 695 OFFCURVE",
"212 740 CURVE",
"164 740 LINE",
"112 695 OFFCURVE",
"78 623 OFFCURVE",
"78 569 CURVE SMOOTH",
"78 556 LINE SMOOTH",
"78 528 OFFCURVE",
"93 510 OFFCURVE",
"125 510 CURVE SMOOTH"
);
}
);
width = 446;
}
);
leftKerningGroup = quoteleft;
note = quotedblleft;
rightKerningGroup = quoteleft;
unicode = 201C;
},
{
glyphname = quotedblright;
lastChange = "2019-02-02 11:40:47 +0000";
layers = (
{
layerId = "1053487F-6E39-46EB-834B-3FE95151DC2D";
paths = (
{
closed = 1;
nodes = (
"286 750 OFFCURVE",
"271 731 OFFCURVE",
"271 704 CURVE SMOOTH",
"271 692 LINE SMOOTH",
"271 671 OFFCURVE",
"282 654 OFFCURVE",
"307 651 CURVE",
"299 607 OFFCURVE",
"277 565 OFFCURVE",
"233 520 CURVE",
"281 520 LINE",
"333 565 OFFCURVE",
"367 636 OFFCURVE",
"367 691 CURVE SMOOTH",
"367 704 LINE SMOOTH",
"367 731 OFFCURVE",
"352 750 OFFCURVE",
"319 750 CURVE SMOOTH"
);
},
{
closed = 1;
nodes = (
"101 750 OFFCURVE",
"86 731 OFFCURVE",
"86 704 CURVE SMOOTH",
"86 692 LINE SMOOTH",
"86 671 OFFCURVE",
"97 654 OFFCURVE",
"122 651 CURVE",
"114 607 OFFCURVE",
"92 565 OFFCURVE",
"48 520 CURVE",
"96 520 LINE",
"148 565 OFFCURVE",
"182 636 OFFCURVE",
"182 691 CURVE SMOOTH",
"182 704 LINE SMOOTH",
"182 731 OFFCURVE",
"167 750 OFFCURVE",
"134 750 CURVE SMOOTH"
);
}
);
width = 445;
}
);
leftKerningGroup = quoteright;
note = quotedblright;
rightKerningGroup = quoteright;
unicode = 201D;
},
{
glyphname = quotesinglbase;
lastChange = "2019-02-02 11:40:47 +0000";
layers = (
{
layerId = "1053487F-6E39-46EB-834B-3FE95151DC2D";
paths = (
{
closed = 1;
nodes = (
"95 107 OFFCURVE",
"80 88 OFFCURVE",
"80 61 CURVE SMOOTH",
"80 49 LINE SMOOTH",
"80 28 OFFCURVE",
"91 11 OFFCURVE",
"116 8 CURVE",
"108 -36 OFFCURVE",
"86 -78 OFFCURVE",
"42 -123 CURVE",
"90 -123 LINE",
"142 -78 OFFCURVE",
"176 -7 OFFCURVE",
"176 48 CURVE SMOOTH",
"176 61 LINE SMOOTH",
"176 88 OFFCURVE",
"161 107 OFFCURVE",
"128 107 CURVE SMOOTH"
);
}
);
width = 260;
}
);
leftKerningGroup = period;
note = quotesinglbase;
rightKerningGroup = period;
unicode = 201A;
},
{
glyphname = quotedblbase;
lastChange = "2019-02-02 11:40:47 +0000";
layers = (
{
layerId = "1053487F-6E39-46EB-834B-3FE95151DC2D";
paths = (
{
closed = 1;
nodes = (
"280 107 OFFCURVE",
"265 88 OFFCURVE",
"265 61 CURVE SMOOTH",
"265 49 LINE SMOOTH",
"265 28 OFFCURVE",
"276 11 OFFCURVE",
"301 8 CURVE",
"293 -36 OFFCURVE",
"271 -78 OFFCURVE",
"227 -123 CURVE",
"275 -123 LINE",
"327 -78 OFFCURVE",
"361 -7 OFFCURVE",
"361 48 CURVE SMOOTH",
"361 61 LINE SMOOTH",
"361 88 OFFCURVE",
"346 107 OFFCURVE",
"313 107 CURVE SMOOTH"
);
},
{
closed = 1;
nodes = (
"95 107 OFFCURVE",
"80 88 OFFCURVE",
"80 61 CURVE SMOOTH",
"80 49 LINE SMOOTH",
"80 28 OFFCURVE",
"91 11 OFFCURVE",
"116 8 CURVE",
"108 -36 OFFCURVE",
"86 -78 OFFCURVE",
"42 -123 CURVE",
"90 -123 LINE",
"142 -78 OFFCURVE",
"176 -7 OFFCURVE",
"176 48 CURVE SMOOTH",
"176 61 LINE SMOOTH",
"176 88 OFFCURVE",
"161 107 OFFCURVE",
"128 107 CURVE SMOOTH"
);
}
);
width = 445;
}
);
leftKerningGroup = period;
note = quotedblbase;
rightKerningGroup = period;
unicode = 201E;
},
{
glyphname = guilsinglleft;
lastChange = "2019-02-02 11:40:47 +0000";
layers = (
{
layerId = "1053487F-6E39-46EB-834B-3FE95151DC2D";
paths = (
{
closed = 1;
nodes = (
"248 129 LINE",
"92 288 LINE",
"248 447 LINE",
"230 486 LINE",
"35 315 LINE",
"35 261 LINE",
"230 90 LINE"
);
}
);
width = 299;
}
);
leftKerningGroup = guilsinglleft;
note = guilsinglleft;
rightKerningGroup = guilsinglleft;
unicode = 2039;
},
{
glyphname = guilsinglright;
lastChange = "2019-02-02 11:40:47 +0000";
layers = (
{
layerId = "1053487F-6E39-46EB-834B-3FE95151DC2D";
paths = (
{
closed = 1;
nodes = (
"69 90 LINE",
"264 261 LINE",
"264 315 LINE",
"69 486 LINE",
"51 447 LINE",
"207 288 LINE",
"51 129 LINE"
);
}
);
width = 299;
}
);
leftKerningGroup = guilsinglright;
note = guilsinglright;
rightKerningGroup = guilsinglright;
unicode = 203A;
},
{
glyphname = guillemotleft;
lastChange = "2019-02-02 11:40:47 +0000";
layers = (
{
layerId = "1053487F-6E39-46EB-834B-3FE95151DC2D";
paths = (
{
closed = 1;
nodes = (
"446 129 LINE",
"290 288 LINE",
"446 447 LINE",
"428 486 LINE",
"233 315 LINE",
"233 261 LINE",
"428 90 LINE"
);
},
{
closed = 1;
nodes = (
"248 129 LINE",
"92 288 LINE",
"248 447 LINE",
"230 486 LINE",
"35 315 LINE",
"35 261 LINE",
"230 90 LINE"
);
}
);
width = 497;
}
);
leftKerningGroup = guilsinglleft;
note = guillemotleft;
rightKerningGroup = guilsinglleft;
unicode = 00AB;
},
{
glyphname = guillemotright;
lastChange = "2019-02-02 11:40:47 +0000";
layers = (
{
layerId = "1053487F-6E39-46EB-834B-3FE95151DC2D";
paths = (
{
closed = 1;
nodes = (
"267 90 LINE",
"462 261 LINE",
"462 315 LINE",
"267 486 LINE",
"249 447 LINE",
"405 288 LINE",
"249 129 LINE"
);
},
{
closed = 1;
nodes = (
"69 90 LINE",
"264 261 LINE",
"264 315 LINE",
"69 486 LINE",
"51 447 LINE",
"207 288 LINE",
"51 129 LINE"
);
}
);
width = 497;
}
);
leftKerningGroup = guilsinglright;
note = guillemotright;
rightKerningGroup = guilsinglright;
unicode = 00BB;
},
{
glyphname = exclamdown;
lastChange = "2019-02-02 11:40:47 +0000";
layers = (
{
layerId = "1053487F-6E39-46EB-834B-3FE95151DC2D";
paths = (
{
closed = 1;
nodes = (
"166 -185 LINE",
"166 49 LINE",
"150 331 LINE",
"121 331 LINE",
"104 49 LINE",
"104 -185 LINE"
);
},
{
closed = 1;
nodes = (
"168 420 OFFCURVE",
"184 438 OFFCURVE",
"184 465 CURVE SMOOTH",
"184 476 LINE SMOOTH",
"184 503 OFFCURVE",
"168 521 OFFCURVE",
"136 521 CURVE SMOOTH",
"103 521 OFFCURVE",
"88 503 OFFCURVE",
"88 476 CURVE SMOOTH",
"88 465 LINE SMOOTH",
"88 438 OFFCURVE",
"103 420 OFFCURVE",
"136 420 CURVE SMOOTH"
);
}
);
width = 272;
}
);
note = exclamdown;
rightKerningGroup = exclamdown;
unicode = 00A1;
},
{
glyphname = exclam;
lastChange = "2019-02-02 11:40:47 +0000";
layers = (
{
layerId = "1053487F-6E39-46EB-834B-3FE95151DC2D";
paths = (
{
closed = 1;
nodes = (
"150 181 LINE",
"167 464 LINE",
"167 698 LINE",
"105 698 LINE",
"105 464 LINE",
"121 181 LINE"
);
},
{
closed = 1;
nodes = (
"168 -9 OFFCURVE",
"184 9 OFFCURVE",
"184 36 CURVE SMOOTH",
"184 47 LINE SMOOTH",
"184 74 OFFCURVE",
"168 92 OFFCURVE",
"136 92 CURVE SMOOTH",
"103 92 OFFCURVE",
"88 74 OFFCURVE",
"88 47 CURVE SMOOTH",
"88 36 LINE SMOOTH",
"88 9 OFFCURVE",
"103 -9 OFFCURVE",
"136 -9 CURVE SMOOTH"
);
}
);
width = 272;
}
);
leftKerningGroup = exclam;
note = exclam;
unicode = 0021;
},
{
glyphname = questiondown;
lastChange = "2019-02-02 11:40:47 +0000";
layers = (
{
layerId = "1053487F-6E39-46EB-834B-3FE95151DC2D";
paths = (
{
closed = 1;
nodes = (
"349 -198 OFFCURVE",
"415 -130 OFFCURVE",
"440 -40 CURVE",
"387 -21 LINE",
"368 -96 OFFCURVE",
"318 -146 OFFCURVE",
"233 -146 CURVE SMOOTH",
"150 -146 OFFCURVE",
"98 -96 OFFCURVE",
"98 -20 CURVE SMOOTH",
"98 -1 LINE SMOOTH",
"98 88 OFFCURVE",
"166 145 OFFCURVE",
"282 149 CURVE",
"282 316 LINE",
"227 316 LINE",
"227 190 LINE",
"123 175 OFFCURVE",
"36 110 OFFCURVE",
"36 -13 CURVE SMOOTH",
"36 -125 OFFCURVE",
"111 -198 OFFCURVE",
"231 -198 CURVE SMOOTH"
);
},
{
closed = 1;
nodes = (
"288 420 OFFCURVE",
"304 438 OFFCURVE",
"304 465 CURVE SMOOTH",
"304 476 LINE SMOOTH",
"304 503 OFFCURVE",
"288 521 OFFCURVE",
"256 521 CURVE SMOOTH",
"223 521 OFFCURVE",
"208 503 OFFCURVE",
"208 476 CURVE SMOOTH",
"208 465 LINE SMOOTH",
"208 438 OFFCURVE",
"223 420 OFFCURVE",
"256 420 CURVE SMOOTH"
);
}
);
width = 463;
}
);
leftKerningGroup = questiondown;
note = questiondown;
rightKerningGroup = questiondown;
unicode = 00BF;
},
{
glyphname = question;
lastChange = "2019-02-02 11:40:47 +0000";
layers = (
{
layerId = "1053487F-6E39-46EB-834B-3FE95151DC2D";
paths = (
{
closed = 1;
nodes = (
"242 196 LINE",
"242 321 LINE",
"346 336 OFFCURVE",
"433 402 OFFCURVE",
"433 525 CURVE SMOOTH",
"433 637 OFFCURVE",
"358 710 OFFCURVE",
"238 710 CURVE SMOOTH",
"120 710 OFFCURVE",
"54 642 OFFCURVE",
"28 552 CURVE",
"81 533 LINE",
"101 608 OFFCURVE",
"150 658 OFFCURVE",
"236 658 CURVE SMOOTH",
"319 658 OFFCURVE",
"371 607 OFFCURVE",
"371 532 CURVE SMOOTH",
"371 513 LINE SMOOTH",
"371 424 OFFCURVE",
"303 367 OFFCURVE",
"186 363 CURVE",
"186 196 LINE"
);
},
{
closed = 1;
nodes = (
"247 -9 OFFCURVE",
"262 8 OFFCURVE",
"262 36 CURVE SMOOTH",
"262 47 LINE SMOOTH",
"262 75 OFFCURVE",
"247 92 OFFCURVE",
"214 92 CURVE SMOOTH",
"182 92 OFFCURVE",
"167 75 OFFCURVE",
"167 47 CURVE SMOOTH",
"167 36 LINE SMOOTH",
"167 8 OFFCURVE",
"182 -9 OFFCURVE",
"214 -9 CURVE SMOOTH"
);
}
);
width = 469;
}
);
leftKerningGroup = question;
note = question;
rightKerningGroup = question;
unicode = 003F;
},
{
glyphname = parenleft;
lastChange = "2019-02-02 11:40:47 +0000";
layers = (
{
layerId = "1053487F-6E39-46EB-834B-3FE95151DC2D";
paths = (
{
closed = 1;
nodes = (
"92 113 OFFCURVE",
"177 -53 OFFCURVE",
"274 -137 CURVE",
"330 -137 LINE",
"226 -45 OFFCURVE",
"146 121 OFFCURVE",
"146 278 CURVE SMOOTH",
"146 344 LINE SMOOTH",
"146 501 OFFCURVE",
"224 665 OFFCURVE",
"330 760 CURVE",
"274 760 LINE",
"176 674 OFFCURVE",
"92 509 OFFCURVE",
"92 312 CURVE SMOOTH"
);
}
);
width = 334;
}
);
note = parenleft;
rightKerningGroup = parenleft;
unicode = 0028;
},
{
glyphname = parenright;
lastChange = "2019-02-02 11:40:47 +0000";
layers = (
{
layerId = "1053487F-6E39-46EB-834B-3FE95151DC2D";
paths = (
{
closed = 1;
nodes = (
"242 509 OFFCURVE",
"158 674 OFFCURVE",
"60 760 CURVE",
"4 760 LINE",
"110 665 OFFCURVE",
"188 501 OFFCURVE",
"188 344 CURVE SMOOTH",
"188 278 LINE SMOOTH",
"188 121 OFFCURVE",
"108 -45 OFFCURVE",
"4 -137 CURVE",
"60 -137 LINE",
"156 -53 OFFCURVE",
"242 113 OFFCURVE",
"242 312 CURVE SMOOTH"
);
}
);
width = 334;
}
);
leftKerningGroup = parenright;
note = parenright;
unicode = 0029;
},
{
glyphname = bracketleft;
lastChange = "2019-02-02 11:40:47 +0000";
layers = (
{
layerId = "1053487F-6E39-46EB-834B-3FE95151DC2D";
paths = (
{
closed = 1;
nodes = (
"247 -138 LINE",
"247 -93 LINE",
"149 -93 LINE",
"149 715 LINE",
"247 715 LINE",
"247 760 LINE",
"99 760 LINE",
"99 -138 LINE"
);
}
);
width = 311;
}
);
note = bracketleft;
rightKerningGroup = bracketleft;
unicode = 005B;
},
{
glyphname = bracketright;
lastChange = "2019-02-02 11:40:47 +0000";
layers = (
{
layerId = "1053487F-6E39-46EB-834B-3FE95151DC2D";
paths = (
{
closed = 1;
nodes = (
"64 760 LINE",
"64 715 LINE",
"162 715 LINE",
"162 -93 LINE",
"64 -93 LINE",
"64 -138 LINE",
"212 -138 LINE",
"212 760 LINE"
);
}
);
width = 311;
}
);
leftKerningGroup = bracketright;
note = bracketright;
unicode = 005D;
},
{
glyphname = braceleft;
lastChange = "2019-02-02 11:40:47 +0000";
layers = (
{
layerId = "1053487F-6E39-46EB-834B-3FE95151DC2D";
paths = (
{
closed = 1;
nodes = (
"269 -138 LINE",
"269 -93 LINE",
"170 -93 LINE",
"170 185 LINE SMOOTH",
"170 248 OFFCURVE",
"131 296 OFFCURVE",
"74 303 CURVE",
"74 319 LINE",
"131 326 OFFCURVE",
"170 374 OFFCURVE",
"170 437 CURVE SMOOTH",
"170 715 LINE",
"269 715 LINE",
"269 760 LINE",
"179 760 LINE SMOOTH",
"140 760 OFFCURVE",
"120 735 OFFCURVE",
"120 700 CURVE SMOOTH",
"120 431 LINE SMOOTH",
"120 373 OFFCURVE",
"81 344 OFFCURVE",
"23 344 CURVE",
"23 278 LINE",
"81 278 OFFCURVE",
"120 249 OFFCURVE",
"120 191 CURVE SMOOTH",
"120 -78 LINE SMOOTH",
"120 -113 OFFCURVE",
"140 -138 OFFCURVE",
"179 -138 CURVE SMOOTH"
);
}
);
width = 332;
}
);
note = braceleft;
rightKerningGroup = bracketleft;
unicode = 007B;
},
{
glyphname = braceright;
lastChange = "2019-02-02 11:40:47 +0000";
layers = (
{
layerId = "1053487F-6E39-46EB-834B-3FE95151DC2D";
paths = (
{
closed = 1;
nodes = (
"63 760 LINE",
"63 715 LINE",
"162 715 LINE",
"162 437 LINE SMOOTH",
"162 374 OFFCURVE",
"201 326 OFFCURVE",
"259 319 CURVE",
"259 303 LINE",
"201 296 OFFCURVE",
"162 248 OFFCURVE",
"162 185 CURVE SMOOTH",
"162 -93 LINE",
"63 -93 LINE",
"63 -138 LINE",
"153 -138 LINE SMOOTH",
"192 -138 OFFCURVE",
"212 -113 OFFCURVE",
"212 -78 CURVE SMOOTH",
"212 191 LINE SMOOTH",
"212 249 OFFCURVE",
"251 278 OFFCURVE",
"309 278 CURVE",
"309 344 LINE",
"251 344 OFFCURVE",
"212 373 OFFCURVE",
"212 431 CURVE SMOOTH",
"212 700 LINE SMOOTH",
"212 735 OFFCURVE",
"192 760 OFFCURVE",
"153 760 CURVE SMOOTH"
);
}
);
width = 332;
}
);
leftKerningGroup = bracketright;
note = braceright;
unicode = 007D;
},
{
glyphname = slash;
lastChange = "2019-02-02 11:40:47 +0000";
layers = (
{
layerId = "1053487F-6E39-46EB-834B-3FE95151DC2D";
paths = (
{
closed = 1;
nodes = (
"62 -151 LINE",
"314 740 LINE",
"263 740 LINE",
"11 -151 LINE"
);
}
);
width = 356;
}
);
leftKerningGroup = slash;
note = slash;
rightKerningGroup = slash;
unicode = 002F;
},
{
glyphname = backslash;
lastChange = "2019-02-02 11:40:47 +0000";
layers = (
{
layerId = "1053487F-6E39-46EB-834B-3FE95151DC2D";
paths = (
{
closed = 1;
nodes = (
"341 -151 LINE",
"92 740 LINE",
"40 740 LINE",
"289 -151 LINE"
);
}
);
width = 356;
}
);
note = backslash;
unicode = 005C;
},
{
glyphname = fraction;
lastChange = "2019-02-02 11:40:47 +0000";
layers = (
{
layerId = "1053487F-6E39-46EB-834B-3FE95151DC2D";
paths = (
{
closed = 1;
nodes = (
"-137 0 LINE",
"334 698 LINE",
"285 698 LINE",
"-186 0 LINE"
);
}
);
width = 147;
}
);
note = fraction;
unicode = 2044;
},
{
glyphname = percent;
lastChange = "2019-02-02 11:40:47 +0000";
layers = (
{
layerId = "1053487F-6E39-46EB-834B-3FE95151DC2D";
paths = (
{
closed = 1;
nodes = (
"241 0 LINE",
"725 698 LINE",
"669 698 LINE",
"185 0 LINE"
);
},
{
closed = 1;
nodes = (
"313 319 OFFCURVE",
"373 383 OFFCURVE",
"373 514 CURVE SMOOTH",
"373 646 OFFCURVE",
"313 710 OFFCURVE",
"221 710 CURVE SMOOTH",
"129 710 OFFCURVE",
"69 646 OFFCURVE",
"69 514 CURVE SMOOTH",
"69 383 OFFCURVE",
"129 319 OFFCURVE",
"221 319 CURVE SMOOTH"
);
},
{
closed = 1;
nodes = (
"161 357 OFFCURVE",
"121 399 OFFCURVE",
"121 490 CURVE SMOOTH",
"121 539 LINE SMOOTH",
"121 630 OFFCURVE",
"161 672 OFFCURVE",
"221 672 CURVE SMOOTH",
"281 672 OFFCURVE",
"321 630 OFFCURVE",
"321 539 CURVE SMOOTH",
"321 490 LINE SMOOTH",
"321 399 OFFCURVE",
"281 357 OFFCURVE",
"221 357 CURVE SMOOTH"
);
},
{
closed = 1;
nodes = (
"779 -12 OFFCURVE",
"839 52 OFFCURVE",
"839 183 CURVE SMOOTH",
"839 315 OFFCURVE",
"779 379 OFFCURVE",
"687 379 CURVE SMOOTH",
"595 379 OFFCURVE",
"535 315 OFFCURVE",
"535 183 CURVE SMOOTH",
"535 52 OFFCURVE",
"595 -12 OFFCURVE",
"687 -12 CURVE SMOOTH"
);
},
{
closed = 1;
nodes = (
"627 26 OFFCURVE",
"587 68 OFFCURVE",
"587 159 CURVE SMOOTH",
"587 208 LINE SMOOTH",
"587 299 OFFCURVE",
"627 341 OFFCURVE",
"687 341 CURVE SMOOTH",
"747 341 OFFCURVE",
"787 299 OFFCURVE",
"787 208 CURVE SMOOTH",
"787 159 LINE SMOOTH",
"787 68 OFFCURVE",
"747 26 OFFCURVE",
"687 26 CURVE SMOOTH"
);
}
);
width = 908;
}
);
note = percent;
rightKerningGroup = percent;
unicode = 0025;
},
{
glyphname = perthousand;
lastChange = "2019-02-02 11:40:47 +0000";
layers = (
{
layerId = "1053487F-6E39-46EB-834B-3FE95151DC2D";
paths = (
{
closed = 1;
nodes = (
"241 0 LINE",
"725 698 LINE",
"669 698 LINE",
"185 0 LINE"
);
},
{
closed = 1;
nodes = (
"313 319 OFFCURVE",
"373 383 OFFCURVE",
"373 514 CURVE SMOOTH",
"373 646 OFFCURVE",
"313 710 OFFCURVE",
"221 710 CURVE SMOOTH",
"129 710 OFFCURVE",
"69 646 OFFCURVE",
"69 514 CURVE SMOOTH",
"69 383 OFFCURVE",
"129 319 OFFCURVE",
"221 319 CURVE SMOOTH"
);
},
{
closed = 1;
nodes = (
"161 357 OFFCURVE",
"121 399 OFFCURVE",
"121 490 CURVE SMOOTH",
"121 539 LINE SMOOTH",
"121 630 OFFCURVE",
"161 672 OFFCURVE",
"221 672 CURVE SMOOTH",
"281 672 OFFCURVE",
"321 630 OFFCURVE",
"321 539 CURVE SMOOTH",
"321 490 LINE SMOOTH",
"321 399 OFFCURVE",
"281 357 OFFCURVE",
"221 357 CURVE SMOOTH"
);
},
{
closed = 1;
nodes = (
"779 -12 OFFCURVE",
"839 52 OFFCURVE",
"839 183 CURVE SMOOTH",
"839 315 OFFCURVE",
"779 379 OFFCURVE",
"687 379 CURVE SMOOTH",
"595 379 OFFCURVE",
"535 315 OFFCURVE",
"535 183 CURVE SMOOTH",
"535 52 OFFCURVE",
"595 -12 OFFCURVE",
"687 -12 CURVE SMOOTH"
);
},
{
closed = 1;
nodes = (
"627 26 OFFCURVE",
"587 68 OFFCURVE",
"587 159 CURVE SMOOTH",
"587 208 LINE SMOOTH",
"587 299 OFFCURVE",
"627 341 OFFCURVE",
"687 341 CURVE SMOOTH",
"747 341 OFFCURVE",
"787 299 OFFCURVE",
"787 208 CURVE SMOOTH",
"787 159 LINE SMOOTH",
"787 68 OFFCURVE",
"747 26 OFFCURVE",
"687 26 CURVE SMOOTH"
);
},
{
closed = 1;
nodes = (
"1150 -12 OFFCURVE",
"1210 52 OFFCURVE",
"1210 183 CURVE SMOOTH",
"1210 315 OFFCURVE",
"1150 379 OFFCURVE",
"1058 379 CURVE SMOOTH",
"966 379 OFFCURVE",
"906 315 OFFCURVE",
"906 183 CURVE SMOOTH",
"906 52 OFFCURVE",
"966 -12 OFFCURVE",
"1058 -12 CURVE SMOOTH"
);
},
{
closed = 1;
nodes = (
"998 26 OFFCURVE",
"958 68 OFFCURVE",
"958 159 CURVE SMOOTH",
"958 208 LINE SMOOTH",
"958 299 OFFCURVE",
"998 341 OFFCURVE",
"1058 341 CURVE SMOOTH",
"1118 341 OFFCURVE",
"1158 299 OFFCURVE",
"1158 208 CURVE SMOOTH",
"1158 159 LINE SMOOTH",
"1158 68 OFFCURVE",
"1118 26 OFFCURVE",
"1058 26 CURVE SMOOTH"
);
}
);
width = 1279;
}
);
note = perthousand;
rightKerningGroup = perthousand;
unicode = 2030;
},
{
glyphname = bar;
lastChange = "2019-02-02 11:40:47 +0000";
layers = (
{
layerId = "1053487F-6E39-46EB-834B-3FE95151DC2D";
paths = (
{
closed = 1;
nodes = (
"167 -138 LINE",
"167 760 LINE",
"118 760 LINE",
"118 -138 LINE"
);
}
);
width = 285;
}
);
note = bar;
unicode = 007C;
},
{
glyphname = brokenbar;
lastChange = "2019-02-02 11:40:47 +0000";
layers = (
{
layerId = "1053487F-6E39-46EB-834B-3FE95151DC2D";
paths = (
{
closed = 1;
nodes = (
"167 404 LINE",
"167 760 LINE",
"118 760 LINE",
"118 404 LINE"
);
},
{
closed = 1;
nodes = (
"167 -138 LINE",
"167 218 LINE",
"118 218 LINE",
"118 -138 LINE"
);
}
);
width = 285;
}
);
note = brokenbar;
unicode = 00A6;
},
{
glyphname = section;
lastChange = "2019-02-02 11:40:47 +0000";
layers = (
{
layerId = "1053487F-6E39-46EB-834B-3FE95151DC2D";
paths = (
{
closed = 1;
nodes = (
"442 205 OFFCURVE",
"409 167 OFFCURVE",
"359 138 CURVE",
"347 143 OFFCURVE",
"335 148 OFFCURVE",
"322 152 CURVE SMOOTH",
"258 170 LINE SMOOTH",
"176 194 OFFCURVE",
"136 229 OFFCURVE",
"136 294 CURVE SMOOTH",
"136 350 OFFCURVE",
"168 389 OFFCURVE",
"218 417 CURVE",
"230 412 OFFCURVE",
"242 407 OFFCURVE",
"255 404 CURVE",
"319 385 LINE SMOOTH",
"402 361 OFFCURVE",
"442 326 OFFCURVE",
"442 261 CURVE SMOOTH"
);
},
{
closed = 1;
nodes = (
"462 52 OFFCURVE",
"435 95 OFFCURVE",
"388 124 CURVE",
"388 129 LINE",
"456 156 OFFCURVE",
"498 206 OFFCURVE",
"498 275 CURVE SMOOTH",
"498 351 OFFCURVE",
"448 398 OFFCURVE",
"347 430 CURVE SMOOTH",
"283 450 LINE SMOOTH",
"218 470 OFFCURVE",
"171 498 OFFCURVE",
"171 559 CURVE SMOOTH",
"171 622 OFFCURVE",
"220 660 OFFCURVE",
"302 660 CURVE SMOOTH",
"359 660 OFFCURVE",
"400 642 OFFCURVE",
"432 614 CURVE",
"465 654 LINE",
"424 691 OFFCURVE",
"368 710 OFFCURVE",
"303 710 CURVE SMOOTH",
"194 710 OFFCURVE",
"115 655 OFFCURVE",
"115 559 CURVE SMOOTH",
"115 502 OFFCURVE",
"144 461 OFFCURVE",
"189 432 CURVE",
"189 426 LINE",
"121 399 OFFCURVE",
"80 349 OFFCURVE",
"80 281 CURVE SMOOTH",
"80 204 OFFCURVE",
"129 157 OFFCURVE",
"229 126 CURVE SMOOTH",
"294 106 LINE SMOOTH",
"359 86 OFFCURVE",
"406 57 OFFCURVE",
"406 -4 CURVE SMOOTH",
"406 -68 OFFCURVE",
"357 -105 OFFCURVE",
"275 -105 CURVE SMOOTH",
"218 -105 OFFCURVE",
"177 -86 OFFCURVE",
"145 -59 CURVE",
"112 -99 LINE",
"153 -135 OFFCURVE",
"208 -155 OFFCURVE",
"274 -155 CURVE SMOOTH",
"383 -155 OFFCURVE",
"462 -100 OFFCURVE",
"462 -3 CURVE SMOOTH"
);
}
);
width = 578;
}
);
note = section;
unicode = 00A7;
},
{
glyphname = paragraph;
lastChange = "2019-02-02 11:40:47 +0000";
layers = (
{
layerId = "1053487F-6E39-46EB-834B-3FE95151DC2D";
paths = (
{
closed = 1;
nodes = (
"248 -149 LINE",
"301 -149 LINE",
"301 650 LINE",
"419 650 LINE",
"419 -149 LINE",
"472 -149 LINE",
"472 650 LINE",
"540 650 LINE",
"540 698 LINE",
"248 698 LINE SMOOTH",
"139 698 OFFCURVE",
"52 616 OFFCURVE",
"52 505 CURVE SMOOTH",
"52 393 OFFCURVE",
"139 312 OFFCURVE",
"248 312 CURVE"
);
}
);
width = 628;
}
);
note = paragraph;
unicode = 00B6;
},
{
glyphname = copyright;
lastChange = "2019-02-02 11:40:47 +0000";
layers = (
{
layerId = "1053487F-6E39-46EB-834B-3FE95151DC2D";
paths = (
{
closed = 1;
nodes = (
"562 -11 OFFCURVE",
"703 128 OFFCURVE",
"703 349 CURVE SMOOTH",
"703 570 OFFCURVE",
"562 709 OFFCURVE",
"374 709 CURVE SMOOTH",
"186 709 OFFCURVE",
"45 570 OFFCURVE",
"45 349 CURVE SMOOTH",
"45 128 OFFCURVE",
"186 -11 OFFCURVE",
"374 -11 CURVE SMOOTH"
);
},
{
closed = 1;
nodes = (
"209 32 OFFCURVE",
"95 156 OFFCURVE",
"95 322 CURVE SMOOTH",
"95 376 LINE SMOOTH",
"95 542 OFFCURVE",
"209 666 OFFCURVE",
"374 666 CURVE SMOOTH",
"539 666 OFFCURVE",
"653 542 OFFCURVE",
"653 376 CURVE SMOOTH",
"653 322 LINE SMOOTH",
"653 156 OFFCURVE",
"539 32 OFFCURVE",
"374 32 CURVE SMOOTH"
);
},
{
closed = 1;
nodes = (
"445 153 OFFCURVE",
"491 189 OFFCURVE",
"513 238 CURVE",
"473 261 LINE",
"453 222 OFFCURVE",
"425 198 OFFCURVE",
"378 198 CURVE SMOOTH",
"312 198 OFFCURVE",
"273 244 OFFCURVE",
"273 324 CURVE SMOOTH",
"273 371 LINE SMOOTH",
"273 450 OFFCURVE",
"312 498 OFFCURVE",
"378 498 CURVE SMOOTH",
"423 498 OFFCURVE",
"451 475 OFFCURVE",
"466 437 CURVE",
"507 458 LINE",
"487 508 OFFCURVE",
"444 543 OFFCURVE",
"378 543 CURVE SMOOTH",
"279 543 OFFCURVE",
"219 470 OFFCURVE",
"219 348 CURVE SMOOTH",
"219 226 OFFCURVE",
"279 153 OFFCURVE",
"377 153 CURVE SMOOTH"
);
}
);
width = 748;
}
);
leftKerningGroup = copyright;
note = copyright;
rightKerningGroup = copyright;
unicode = 00A9;
},
{
glyphname = registered;
lastChange = "2019-02-02 11:40:47 +0000";
layers = (
{
layerId = "1053487F-6E39-46EB-834B-3FE95151DC2D";
paths = (
{
closed = 1;
nodes = (
"347 298 OFFCURVE",
"434 385 OFFCURVE",
"434 504 CURVE SMOOTH",
"434 623 OFFCURVE",
"347 710 OFFCURVE",
"236 710 CURVE SMOOTH",
"125 710 OFFCURVE",
"38 623 OFFCURVE",
"38 504 CURVE SMOOTH",
"38 385 OFFCURVE",
"125 298 OFFCURVE",
"236 298 CURVE SMOOTH"
);
},
{
closed = 1;
nodes = (
"140 329 OFFCURVE",
"72 404 OFFCURVE",
"72 493 CURVE SMOOTH",
"72 515 LINE SMOOTH",
"72 604 OFFCURVE",
"140 679 OFFCURVE",
"236 679 CURVE SMOOTH",
"332 679 OFFCURVE",
"400 604 OFFCURVE",
"400 515 CURVE SMOOTH",
"400 493 LINE SMOOTH",
"400 404 OFFCURVE",
"332 329 OFFCURVE",
"236 329 CURVE SMOOTH"
);
},
{
closed = 1;
nodes = (
"196 481 LINE",
"242 481 LINE",
"289 396 LINE",
"323 396 LINE",
"273 484 LINE",
"297 490 OFFCURVE",
"315 510 OFFCURVE",
"315 544 CURVE SMOOTH",
"315 584 OFFCURVE",
"291 607 OFFCURVE",
"251 607 CURVE SMOOTH",
"165 607 LINE",
"165 396 LINE",
"196 396 LINE"
);
},
{
closed = 1;
nodes = (
"196 506 LINE",
"196 581 LINE",
"250 581 LINE SMOOTH",
"272 581 OFFCURVE",
"282 571 OFFCURVE",
"282 551 CURVE SMOOTH",
"282 535 LINE SMOOTH",
"282 515 OFFCURVE",
"272 506 OFFCURVE",
"250 506 CURVE SMOOTH"
);
}
);
width = 472;
}
);
leftKerningGroup = registered;
note = registered;
rightKerningGroup = registered;
unicode = 00AE;
},
{
glyphname = trademark;
lastChange = "2019-02-02 11:40:47 +0000";
layers = (
{
layerId = "1053487F-6E39-46EB-834B-3FE95151DC2D";
paths = (
{
closed = 1;
nodes = (
"163 423 LINE",
"163 664 LINE",
"258 664 LINE",
"258 698 LINE",
"28 698 LINE",
"28 664 LINE",
"125 664 LINE",
"125 423 LINE"
);
},
{
closed = 1;
nodes = (
"353 423 LINE",
"353 643 LINE",
"356 643 LINE",
"442 481 LINE",
"528 643 LINE",
"531 643 LINE",
"531 423 LINE",
"565 423 LINE",
"565 698 LINE",
"520 698 LINE",
"444 551 LINE",
"441 551 LINE",
"365 698 LINE",
"318 698 LINE",
"318 423 LINE"
);
}
);
width = 650;
}
);
leftKerningGroup = trademark;
note = trademark;
rightKerningGroup = trademark;
unicode = 2122;
},
{
glyphname = ordfeminine;
lastChange = "2019-02-02 11:40:47 +0000";
layers = (
{
layerId = "1053487F-6E39-46EB-834B-3FE95151DC2D";
paths = (
{
closed = 1;
nodes = (
"348 363 LINE",
"348 404 LINE",
"307 404 LINE",
"307 592 LINE SMOOTH",
"307 667 OFFCURVE",
"258 710 OFFCURVE",
"179 710 CURVE SMOOTH",
"111 710 OFFCURVE",
"70 678 OFFCURVE",
"51 641 CURVE",
"83 617 LINE",
"98 651 OFFCURVE",
"132 671 OFFCURVE",
"177 671 CURVE SMOOTH",
"231 671 OFFCURVE",
"261 645 OFFCURVE",
"261 589 CURVE SMOOTH",
"261 550 LINE",
"180 550 LINE SMOOTH",
"86 550 OFFCURVE",
"40 516 OFFCURVE",
"40 450 CURVE SMOOTH",
"40 394 OFFCURVE",
"79 356 OFFCURVE",
"149 356 CURVE SMOOTH",
"211 356 OFFCURVE",
"245 385 OFFCURVE",
"260 414 CURVE",
"264 414 LINE",
"264 403 LINE",
"265 378 OFFCURVE",
"277 363 OFFCURVE",
"308 363 CURVE SMOOTH"
);
},
{
closed = 1;
nodes = (
"113 393 OFFCURVE",
"87 412 OFFCURVE",
"87 449 CURVE SMOOTH",
"87 460 LINE SMOOTH",
"87 495 OFFCURVE",
"116 515 OFFCURVE",
"179 515 CURVE SMOOTH",
"261 515 LINE",
"261 466 LINE SMOOTH",
"261 419 OFFCURVE",
"212 393 OFFCURVE",
"158 393 CURVE SMOOTH"
);
}
);
width = 381;
}
);
note = ordfeminine;
unicode = 00AA;
},
{
glyphname = ordmasculine;
lastChange = "2019-02-02 11:40:47 +0000";
layers = (
{
layerId = "1053487F-6E39-46EB-834B-3FE95151DC2D";
paths = (
{
closed = 1;
nodes = (
"286 356 OFFCURVE",
"341 424 OFFCURVE",
"341 534 CURVE SMOOTH",
"341 642 OFFCURVE",
"286 710 OFFCURVE",
"193 710 CURVE SMOOTH",
"100 710 OFFCURVE",
"45 642 OFFCURVE",
"45 534 CURVE SMOOTH",
"45 424 OFFCURVE",
"100 356 OFFCURVE",
"193 356 CURVE SMOOTH"
);
},
{
closed = 1;
nodes = (
"128 395 OFFCURVE",
"94 444 OFFCURVE",
"94 508 CURVE SMOOTH",
"94 559 LINE SMOOTH",
"94 622 OFFCURVE",
"128 671 OFFCURVE",
"193 671 CURVE SMOOTH",
"258 671 OFFCURVE",
"292 622 OFFCURVE",
"292 559 CURVE SMOOTH",
"292 508 LINE SMOOTH",
"292 444 OFFCURVE",
"258 395 OFFCURVE",
"193 395 CURVE SMOOTH"
);
}
);
width = 386;
}
);
note = ordmasculine;
unicode = 00BA;
},
{
glyphname = degree;
lastChange = "2019-02-02 11:40:47 +0000";
layers = (
{
layerId = "1053487F-6E39-46EB-834B-3FE95151DC2D";
paths = (
{
closed = 1;
nodes = (
"328 370 OFFCURVE",
"399 444 OFFCURVE",
"399 540 CURVE SMOOTH",
"399 636 OFFCURVE",
"328 710 OFFCURVE",
"233 710 CURVE SMOOTH",
"138 710 OFFCURVE",
"67 636 OFFCURVE",
"67 540 CURVE SMOOTH",
"67 444 OFFCURVE",
"138 370 OFFCURVE",
"233 370 CURVE SMOOTH"
);
},
{
closed = 1;
nodes = (
"162 416 OFFCURVE",
"118 472 OFFCURVE",
"118 540 CURVE SMOOTH",
"118 608 OFFCURVE",
"162 664 OFFCURVE",
"233 664 CURVE SMOOTH",
"304 664 OFFCURVE",
"348 608 OFFCURVE",
"348 540 CURVE SMOOTH",
"348 472 OFFCURVE",
"304 416 OFFCURVE",
"233 416 CURVE SMOOTH"
);
}
);
width = 466;
}
);
note = degree;
unicode = 00B0;
},
{
glyphname = asterisk;
lastChange = "2019-02-02 11:40:47 +0000";
layers = (
{
layerId = "1053487F-6E39-46EB-834B-3FE95151DC2D";
paths = (
{
closed = 1;
nodes = (
"208 532 LINE",
"294 407 LINE",
"334 436 LINE",
"242 557 LINE",
"387 598 LINE",
"371 647 LINE",
"229 596 LINE",
"233 747 LINE",
"183 747 LINE",
"187 596 LINE",
"44 647 LINE",
"29 598 LINE",
"174 557 LINE",
"82 436 LINE",
"122 407 LINE"
);
}
);
width = 416;
}
);
leftKerningGroup = quotesingle;
note = asterisk;
rightKerningGroup = quotesingle;
unicode = 002A;
},
{
glyphname = dagger;
lastChange = "2019-02-02 11:40:47 +0000";
layers = (
{
layerId = "1053487F-6E39-46EB-834B-3FE95151DC2D";
paths = (
{
closed = 1;
nodes = (
"304 -200 LINE",
"304 466 LINE",
"503 466 LINE",
"503 512 LINE",
"304 512 LINE",
"304 740 LINE",
"253 740 LINE",
"253 512 LINE",
"54 512 LINE",
"54 466 LINE",
"253 466 LINE",
"253 -200 LINE"
);
}
);
width = 557;
}
);
note = dagger;
unicode = 2020;
},
{
glyphname = daggerdbl;
lastChange = "2019-02-02 11:40:47 +0000";
layers = (
{
layerId = "1053487F-6E39-46EB-834B-3FE95151DC2D";
paths = (
{
closed = 1;
nodes = (
"304 -200 LINE",
"304 28 LINE",
"503 28 LINE",
"503 74 LINE",
"304 74 LINE",
"304 466 LINE",
"503 466 LINE",
"503 512 LINE",
"304 512 LINE",
"304 740 LINE",
"253 740 LINE",
"253 512 LINE",
"54 512 LINE",
"54 466 LINE",
"253 466 LINE",
"253 74 LINE",
"54 74 LINE",
"54 28 LINE",
"253 28 LINE",
"253 -200 LINE"
);
}
);
width = 557;
}
);
note = daggerdbl;
unicode = 2021;
},
{
glyphname = numbersign;
lastChange = "2019-02-02 11:40:47 +0000";
layers = (
{
layerId = "1053487F-6E39-46EB-834B-3FE95151DC2D";
paths = (
{
closed = 1;
nodes = (
"379 0 LINE",
"427 0 LINE",
"463 211 LINE",
"608 211 LINE",
"608 255 LINE",
"471 255 LINE",
"502 443 LINE",
"647 443 LINE",
"647 487 LINE",
"510 487 LINE",
"547 698 LINE",
"499 698 LINE",
"463 487 LINE",
"297 487 LINE",
"333 698 LINE",
"286 698 LINE",
"250 487 LINE",
"105 487 LINE",
"105 443 LINE",
"242 443 LINE",
"210 255 LINE",
"66 255 LINE",
"66 211 LINE",
"202 211 LINE",
"166 0 LINE",
"213 0 LINE",
"250 211 LINE",
"416 211 LINE"
);
},
{
closed = 1;
nodes = (
"257 255 LINE",
"289 443 LINE",
"455 443 LINE",
"423 255 LINE"
);
}
);
width = 713;
}
);
note = numbersign;
unicode = 0023;
},
{
glyphname = asciicircum;
lastChange = "2019-02-02 11:40:47 +0000";
layers = (
{
layerId = "1053487F-6E39-46EB-834B-3FE95151DC2D";
paths = (
{
closed = 1;
nodes = (
"543 330 LINE",
"331 698 LINE",
"269 698 LINE",
"57 330 LINE",
"101 306 LINE",
"298 644 LINE",
"302 644 LINE",
"499 306 LINE"
);
}
);
width = 600;
}
);
note = asciicircum;
unicode = 005E;
},
{
glyphname = asciitilde;
lastChange = "2019-02-02 11:40:47 +0000";
layers = (
{
layerId = "1053487F-6E39-46EB-834B-3FE95151DC2D";
paths = (
{
closed = 1;
nodes = (
"475 245 OFFCURVE",
"508 264 OFFCURVE",
"537 297 CURVE",
"512 329 LINE",
"481 304 OFFCURVE",
"459 293 OFFCURVE",
"424 293 CURVE SMOOTH",
"385 293 OFFCURVE",
"354 307 OFFCURVE",
"308 328 CURVE SMOOTH",
"256 352 OFFCURVE",
"224 365 OFFCURVE",
"179 365 CURVE SMOOTH",
"125 365 OFFCURVE",
"92 346 OFFCURVE",
"63 313 CURVE",
"88 281 LINE",
"119 306 OFFCURVE",
"141 317 OFFCURVE",
"176 317 CURVE SMOOTH",
"215 317 OFFCURVE",
"246 303 OFFCURVE",
"292 282 CURVE SMOOTH",
"344 258 OFFCURVE",
"376 245 OFFCURVE",
"421 245 CURVE SMOOTH"
);
}
);
width = 600;
}
);
note = asciitilde;
unicode = 007E;
},
{
glyphname = plus;
lastChange = "2019-02-02 11:40:47 +0000";
layers = (
{
layerId = "1053487F-6E39-46EB-834B-3FE95151DC2D";
paths = (
{
closed = 1;
nodes = (
"327 63 LINE",
"327 281 LINE",
"535 281 LINE",
"535 330 LINE",
"327 330 LINE",
"327 548 LINE",
"273 548 LINE",
"273 330 LINE",
"65 330 LINE",
"65 281 LINE",
"273 281 LINE",
"273 63 LINE"
);
}
);
width = 600;
}
);
note = plus;
unicode = 002B;
},
{
glyphname = minus;
lastChange = "2019-02-02 11:40:47 +0000";
layers = (
{
layerId = "1053487F-6E39-46EB-834B-3FE95151DC2D";
paths = (
{
closed = 1;
nodes = (
"535 281 LINE",
"535 330 LINE",
"65 330 LINE",
"65 281 LINE"
);
}
);
width = 600;
}
);
note = minus;
unicode = 2212;
},
{
glyphname = plusminus;
lastChange = "2019-02-02 11:40:47 +0000";
layers = (
{
layerId = "1053487F-6E39-46EB-834B-3FE95151DC2D";
paths = (
{
closed = 1;
nodes = (
"327 137 LINE",
"327 350 LINE",
"535 350 LINE",
"535 399 LINE",
"327 399 LINE",
"327 612 LINE",
"273 612 LINE",
"273 399 LINE",
"65 399 LINE",
"65 350 LINE",
"273 350 LINE",
"273 137 LINE"
);
},
{
closed = 1;
nodes = (
"535 0 LINE",
"535 49 LINE",
"65 49 LINE",
"65 0 LINE"
);
}
);
width = 600;
}
);
note = plusminus;
unicode = 00B1;
},
{
glyphname = multiply;
lastChange = "2019-02-02 11:40:47 +0000";
layers = (
{
layerId = "1053487F-6E39-46EB-834B-3FE95151DC2D";
paths = (
{
closed = 1;
nodes = (
"468 100 LINE",
"503 135 LINE",
"335 305 LINE",
"503 475 LINE",
"468 510 LINE",
"300 340 LINE",
"132 510 LINE",
"97 475 LINE",
"265 305 LINE",
"97 135 LINE",
"132 100 LINE",
"300 270 LINE"
);
}
);
width = 600;
}
);
note = multiply;
unicode = 00D7;
},
{
glyphname = divide;
lastChange = "2019-02-02 11:40:47 +0000";
layers = (
{
layerId = "1053487F-6E39-46EB-834B-3FE95151DC2D";
paths = (
{
closed = 1;
nodes = (
"535 281 LINE",
"535 330 LINE",
"65 330 LINE",
"65 281 LINE"
);
},
{
closed = 1;
nodes = (
"337 63 OFFCURVE",
"351 80 OFFCURVE",
"351 103 CURVE SMOOTH",
"351 120 LINE SMOOTH",
"351 143 OFFCURVE",
"337 159 OFFCURVE",
"300 159 CURVE SMOOTH",
"263 159 OFFCURVE",
"249 143 OFFCURVE",
"249 120 CURVE SMOOTH",
"249 103 LINE SMOOTH",
"249 80 OFFCURVE",
"263 63 OFFCURVE",
"300 63 CURVE SMOOTH"
);
},
{
closed = 1;
nodes = (
"337 451 OFFCURVE",
"351 468 OFFCURVE",
"351 491 CURVE SMOOTH",
"351 507 LINE SMOOTH",
"351 530 OFFCURVE",
"337 547 OFFCURVE",
"300 547 CURVE SMOOTH",
"263 547 OFFCURVE",
"249 530 OFFCURVE",
"249 507 CURVE SMOOTH",
"249 491 LINE SMOOTH",
"249 468 OFFCURVE",
"263 451 OFFCURVE",
"300 451 CURVE SMOOTH"
);
}
);
width = 600;
}
);
note = divide;
unicode = 00F7;
},
{
glyphname = equal;
lastChange = "2019-02-02 11:40:47 +0000";
layers = (
{
layerId = "1053487F-6E39-46EB-834B-3FE95151DC2D";
paths = (
{
closed = 1;
nodes = (
"535 377 LINE",
"535 426 LINE",
"65 426 LINE",
"65 377 LINE"
);
},
{
closed = 1;
nodes = (
"535 186 LINE",
"535 235 LINE",
"65 235 LINE",
"65 186 LINE"
);
}
);
width = 600;
}
);
note = equal;
unicode = 003D;
},
{
glyphname = approxequal;
lastChange = "2019-02-02 11:40:47 +0000";
layers = (
{
layerId = "1053487F-6E39-46EB-834B-3FE95151DC2D";
paths = (
{
closed = 1;
nodes = (
"475 152 OFFCURVE",
"508 171 OFFCURVE",
"537 204 CURVE",
"512 236 LINE",
"481 211 OFFCURVE",
"459 200 OFFCURVE",
"424 200 CURVE SMOOTH",
"385 200 OFFCURVE",
"354 214 OFFCURVE",
"308 235 CURVE SMOOTH",
"256 259 OFFCURVE",
"224 272 OFFCURVE",
"179 272 CURVE SMOOTH",
"125 272 OFFCURVE",
"92 253 OFFCURVE",
"63 220 CURVE",
"88 188 LINE",
"119 213 OFFCURVE",
"141 224 OFFCURVE",
"176 224 CURVE SMOOTH",
"215 224 OFFCURVE",
"246 210 OFFCURVE",
"292 189 CURVE SMOOTH",
"344 165 OFFCURVE",
"376 152 OFFCURVE",
"421 152 CURVE SMOOTH"
);
},
{
closed = 1;
nodes = (
"475 338 OFFCURVE",
"508 357 OFFCURVE",
"537 390 CURVE",
"512 422 LINE",
"481 397 OFFCURVE",
"459 386 OFFCURVE",
"424 386 CURVE SMOOTH",
"385 386 OFFCURVE",
"354 400 OFFCURVE",
"308 421 CURVE SMOOTH",
"256 445 OFFCURVE",
"224 458 OFFCURVE",
"179 458 CURVE SMOOTH",
"125 458 OFFCURVE",
"92 439 OFFCURVE",
"63 406 CURVE",
"88 374 LINE",
"119 399 OFFCURVE",
"141 410 OFFCURVE",
"176 410 CURVE SMOOTH",
"215 410 OFFCURVE",
"246 396 OFFCURVE",
"292 375 CURVE SMOOTH",
"344 351 OFFCURVE",
"376 338 OFFCURVE",
"421 338 CURVE SMOOTH"
);
}
);
width = 600;
}
);
note = approxequal;
unicode = 2248;
},
{
glyphname = notequal;
lastChange = "2019-02-02 11:40:47 +0000";
layers = (
{
layerId = "1053487F-6E39-46EB-834B-3FE95151DC2D";
paths = (
{
closed = 1;
nodes = (
"199 80 LINE",
"259 186 LINE",
"535 186 LINE",
"535 235 LINE",
"286 235 LINE",
"366 377 LINE",
"535 377 LINE",
"535 426 LINE",
"393 426 LINE",
"453 532 LINE",
"401 532 LINE",
"341 426 LINE",
"65 426 LINE",
"65 377 LINE",
"314 377 LINE",
"234 235 LINE",
"65 235 LINE",
"65 186 LINE",
"207 186 LINE",
"147 80 LINE"
);
}
);
width = 600;
}
);
note = notequal;
unicode = 2260;
},
{
glyphname = less;
lastChange = "2019-02-02 11:40:47 +0000";
layers = (
{
layerId = "1053487F-6E39-46EB-834B-3FE95151DC2D";
paths = (
{
closed = 1;
nodes = (
"512 8 LINE",
"512 68 LINE",
"143 285 LINE",
"143 291 LINE",
"512 508 LINE",
"512 568 LINE",
"88 316 LINE",
"88 260 LINE"
);
}
);
width = 600;
}
);
note = less;
unicode = 003C;
},
{
glyphname = greater;
lastChange = "2019-02-02 11:40:47 +0000";
layers = (
{
layerId = "1053487F-6E39-46EB-834B-3FE95151DC2D";
paths = (
{
closed = 1;
nodes = (
"88 8 LINE",
"512 260 LINE",
"512 316 LINE",
"88 568 LINE",
"88 508 LINE",
"457 291 LINE",
"457 285 LINE",
"88 68 LINE"
);
}
);
width = 600;
}
);
note = greater;
unicode = 003E;
},
{
glyphname = lessequal;
lastChange = "2019-02-02 11:40:47 +0000";
layers = (
{
layerId = "1053487F-6E39-46EB-834B-3FE95151DC2D";
paths = (
{
closed = 1;
nodes = (
"512 0 LINE",
"512 49 LINE",
"88 49 LINE",
"88 0 LINE"
);
},
{
closed = 1;
nodes = (
"512 591 LINE",
"88 383 LINE",
"88 321 LINE",
"512 112 LINE",
"512 170 LINE",
"143 349 LINE",
"143 355 LINE",
"512 534 LINE"
);
}
);
width = 600;
}
);
note = lessequal;
unicode = 2264;
},
{
glyphname = greaterequal;
lastChange = "2019-02-02 11:40:47 +0000";
layers = (
{
layerId = "1053487F-6E39-46EB-834B-3FE95151DC2D";
paths = (
{
closed = 1;
nodes = (
"88 112 LINE",
"512 321 LINE",
"512 383 LINE",
"88 591 LINE",
"88 534 LINE",
"457 355 LINE",
"457 349 LINE",
"88 170 LINE"
);
},
{
closed = 1;
nodes = (
"88 0 LINE",
"512 0 LINE",
"512 49 LINE",
"88 49 LINE"
);
}
);
width = 600;
}
);
note = greaterequal;
unicode = 2265;
},
{
glyphname = periodcentered;
lastChange = "2019-02-02 11:40:47 +0000";
layers = (
{
layerId = "1053487F-6E39-46EB-834B-3FE95151DC2D";
paths = (
{
closed = 1;
nodes = (
"190 255 OFFCURVE",
"206 273 OFFCURVE",
"206 300 CURVE SMOOTH",
"206 311 LINE SMOOTH",
"206 338 OFFCURVE",
"190 356 OFFCURVE",
"158 356 CURVE SMOOTH",
"125 356 OFFCURVE",
"110 338 OFFCURVE",
"110 311 CURVE SMOOTH",
"110 300 LINE SMOOTH",
"110 273 OFFCURVE",
"125 255 OFFCURVE",
"158 255 CURVE SMOOTH"
);
}
);
width = 316;
}
);
note = periodcentered;
unicode = 00B7;
},
{
glyphname = bullet;
lastChange = "2019-02-02 11:40:47 +0000";
layers = (
{
layerId = "1053487F-6E39-46EB-834B-3FE95151DC2D";
paths = (
{
closed = 1;
nodes = (
"265 198 OFFCURVE",
"294 239 OFFCURVE",
"294 291 CURVE SMOOTH",
"294 317 LINE SMOOTH",
"294 369 OFFCURVE",
"265 410 OFFCURVE",
"186 410 CURVE SMOOTH",
"108 410 OFFCURVE",
"78 369 OFFCURVE",
"78 317 CURVE SMOOTH",
"78 291 LINE SMOOTH",
"78 239 OFFCURVE",
"108 198 OFFCURVE",
"186 198 CURVE SMOOTH"
);
}
);
width = 372;
}
);
note = bullet;
unicode = 2022;
},
{
glyphname = lozenge;
lastChange = "2019-02-02 11:40:47 +0000";
layers = (
{
layerId = "1053487F-6E39-46EB-834B-3FE95151DC2D";
paths = (
{
closed = 1;
nodes = (
"329 0 LINE",
"550 349 LINE",
"329 698 LINE",
"272 698 LINE",
"50 349 LINE",
"272 0 LINE"
);
},
{
closed = 1;
nodes = (
"297 54 LINE",
"111 349 LINE",
"297 644 LINE",
"303 644 LINE",
"490 349 LINE",
"303 54 LINE"
);
}
);
width = 600;
}
);
note = lozenge;
unicode = 25CA;
},
{
glyphname = logicalnot;
lastChange = "2019-02-02 11:40:47 +0000";
layers = (
{
layerId = "1053487F-6E39-46EB-834B-3FE95151DC2D";
paths = (
{
closed = 1;
nodes = (
"529 88 LINE",
"529 330 LINE",
"65 330 LINE",
"65 281 LINE",
"478 281 LINE",
"478 88 LINE"
);
}
);
width = 600;
}
);
note = logicalnot;
unicode = 00AC;
},
{
glyphname = radical;
lastChange = "2019-02-02 11:40:47 +0000";
layers = (
{
layerId = "1053487F-6E39-46EB-834B-3FE95151DC2D";
paths = (
{
closed = 1;
nodes = (
"347 0 LINE",
"555 698 LINE",
"499 698 LINE",
"310 51 LINE",
"306 51 LINE",
"179 512 LINE",
"28 512 LINE",
"28 466 LINE",
"136 466 LINE",
"267 0 LINE"
);
}
);
width = 600;
}
);
note = radical;
unicode = 221A;
},
{
glyphname = integral;
lastChange = "2019-02-02 11:40:47 +0000";
layers = (
{
layerId = "1053487F-6E39-46EB-834B-3FE95151DC2D";
paths = (
{
closed = 1;
nodes = (
"51 -200 LINE",
"147 -200 LINE SMOOTH",
"202 -200 OFFCURVE",
"228 -167 OFFCURVE",
"228 -117 CURVE SMOOTH",
"228 690 LINE",
"348 690 LINE",
"348 740 LINE",
"251 740 LINE SMOOTH",
"196 740 OFFCURVE",
"171 707 OFFCURVE",
"171 657 CURVE SMOOTH",
"171 -150 LINE",
"51 -150 LINE"
);
}
);
width = 398;
}
);
note = integral;
unicode = 222B;
},
{
glyphname = infinity;
lastChange = "2019-02-02 11:40:47 +0000";
layers = (
{
layerId = "1053487F-6E39-46EB-834B-3FE95151DC2D";
paths = (
{
closed = 1;
nodes = (
"269 119 OFFCURVE",
"332 168 OFFCURVE",
"353 266 CURVE",
"358 266 LINE",
"386 171 OFFCURVE",
"448 119 OFFCURVE",
"544 119 CURVE SMOOTH",
"653 119 OFFCURVE",
"716 194 OFFCURVE",
"716 305 CURVE SMOOTH",
"716 416 OFFCURVE",
"653 491 OFFCURVE",
"544 491 CURVE SMOOTH",
"468 491 OFFCURVE",
"405 442 OFFCURVE",
"383 344 CURVE",
"379 344 LINE",
"351 439 OFFCURVE",
"288 491 OFFCURVE",
"193 491 CURVE SMOOTH",
"84 491 OFFCURVE",
"21 416 OFFCURVE",
"21 305 CURVE SMOOTH",
"21 194 OFFCURVE",
"84 119 OFFCURVE",
"193 119 CURVE SMOOTH"
);
},
{
closed = 1;
nodes = (
"125 168 OFFCURVE",
"79 211 OFFCURVE",
"79 283 CURVE SMOOTH",
"79 327 LINE SMOOTH",
"79 399 OFFCURVE",
"125 442 OFFCURVE",
"192 442 CURVE SMOOTH",
"259 442 OFFCURVE",
"313 402 OFFCURVE",
"339 305 CURVE",
"313 211 OFFCURVE",
"259 168 OFFCURVE",
"192 168 CURVE SMOOTH"
);
},
{
closed = 1;
nodes = (
"478 168 OFFCURVE",
"423 208 OFFCURVE",
"398 305 CURVE",
"423 399 OFFCURVE",
"478 442 OFFCURVE",
"545 442 CURVE SMOOTH",
"611 442 OFFCURVE",
"658 399 OFFCURVE",
"658 327 CURVE SMOOTH",
"658 283 LINE SMOOTH",
"658 211 OFFCURVE",
"611 168 OFFCURVE",
"545 168 CURVE SMOOTH"
);
}
);
width = 737;
}
);
note = infinity;
unicode = 221E;
},
{
glyphname = uni212E;
lastChange = "2019-02-02 11:40:47 +0000";
layers = (
{
layerId = "1053487F-6E39-46EB-834B-3FE95151DC2D";
paths = (
{
closed = 1;
nodes = (
"148 349 LINE",
"675 349 LINE",
"675 564 OFFCURVE",
"544 710 OFFCURVE",
"357 710 CURVE SMOOTH",
"171 710 OFFCURVE",
"39 564 OFFCURVE",
"39 349 CURVE SMOOTH",
"39 134 OFFCURVE",
"171 -12 OFFCURVE",
"359 -12 CURVE SMOOTH",
"498 -12 OFFCURVE",
"590 59 OFFCURVE",
"641 155 CURVE",
"605 174 LINE",
"557 86 OFFCURVE",
"481 27 OFFCURVE",
"359 27 CURVE SMOOTH",
"261 27 OFFCURVE",
"187 77 OFFCURVE",
"148 142 CURVE"
);
},
{
closed = 1;
nodes = (
"148 386 LINE",
"148 559 LINE",
"187 625 OFFCURVE",
"260 673 OFFCURVE",
"357 673 CURVE SMOOTH",
"455 673 OFFCURVE",
"528 625 OFFCURVE",
"567 559 CURVE",
"567 386 LINE"
);
}
);
width = 714;
}
);
note = uni212E;
unicode = 212E;
},
{
glyphname = uni2113;
lastChange = "2019-02-02 11:40:47 +0000";
layers = (
{
layerId = "1053487F-6E39-46EB-834B-3FE95151DC2D";
paths = (
{
closed = 1;
nodes = (
"357 -12 OFFCURVE",
"411 50 OFFCURVE",
"445 122 CURVE",
"404 147 LINE",
"373 86 OFFCURVE",
"336 38 OFFCURVE",
"269 38 CURVE SMOOTH",
"207 38 OFFCURVE",
"177 79 OFFCURVE",
"177 173 CURVE SMOOTH",
"177 219 LINE",
"300 331 OFFCURVE",
"378 458 OFFCURVE",
"378 595 CURVE SMOOTH",
"378 698 OFFCURVE",
"334 752 OFFCURVE",
"251 752 CURVE SMOOTH",
"173 752 OFFCURVE",
"122 700 OFFCURVE",
"122 565 CURVE SMOOTH",
"122 237 LINE",
"95 214 OFFCURVE",
"65 195 OFFCURVE",
"38 178 CURVE",
"62 138 LINE",
"82 151 OFFCURVE",
"103 165 OFFCURVE",
"123 181 CURVE",
"123 161 LINE SMOOTH",
"123 58 OFFCURVE",
"168 -12 OFFCURVE",
"265 -12 CURVE SMOOTH"
);
},
{
closed = 1;
nodes = (
"297 704 OFFCURVE",
"325 675 OFFCURVE",
"325 602 CURVE SMOOTH",
"325 587 LINE SMOOTH",
"325 482 OFFCURVE",
"266 373 OFFCURVE",
"177 281 CURVE",
"177 570 LINE SMOOTH",
"177 672 OFFCURVE",
"209 704 OFFCURVE",
"253 704 CURVE SMOOTH"
);
}
);
width = 477;
}
);
note = uni2113;
unicode = 2113;
},
{
glyphname = uni2116;
lastChange = "2019-02-02 11:40:47 +0000";
layers = (
{
layerId = "1053487F-6E39-46EB-834B-3FE95151DC2D";
paths = (
{
closed = 1;
nodes = (
"918 365 OFFCURVE",
"982 429 OFFCURVE",
"982 538 CURVE SMOOTH",
"982 646 OFFCURVE",
"918 710 OFFCURVE",
"827 710 CURVE SMOOTH",
"736 710 OFFCURVE",
"672 646 OFFCURVE",
"672 538 CURVE SMOOTH",
"672 429 OFFCURVE",
"736 365 OFFCURVE",
"827 365 CURVE SMOOTH"
);
},
{
closed = 1;
nodes = (
"155 0 LINE",
"155 612 LINE",
"158 612 LINE",
"515 0 LINE",
"586 0 LINE",
"586 698 LINE",
"530 698 LINE",
"530 81 LINE",
"527 81 LINE",
"169 698 LINE",
"99 698 LINE",
"99 0 LINE"
);
},
{
closed = 1;
nodes = (
"761 404 OFFCURVE",
"723 453 OFFCURVE",
"723 514 CURVE SMOOTH",
"723 561 LINE SMOOTH",
"723 621 OFFCURVE",
"761 671 OFFCURVE",
"827 671 CURVE SMOOTH",
"893 671 OFFCURVE",
"931 621 OFFCURVE",
"931 561 CURVE SMOOTH",
"931 514 LINE SMOOTH",
"931 453 OFFCURVE",
"893 404 OFFCURVE",
"827 404 CURVE SMOOTH"
);
},
{
closed = 1;
nodes = (
"964 259 LINE",
"964 307 LINE",
"690 307 LINE",
"690 259 LINE"
);
}
);
width = 1020;
}
);
note = uni2116;
unicode = 2116;
},
{
glyphname = partialdiff;
lastChange = "2019-02-02 11:40:47 +0000";
layers = (
{
layerId = "1053487F-6E39-46EB-834B-3FE95151DC2D";
paths = (
{
closed = 1;
nodes = (
"512 525 OFFCURVE",
"342 638 OFFCURVE",
"240 698 CURVE",
"148 698 LINE",
"273 635 OFFCURVE",
"388 545 OFFCURVE",
"426 441 CURVE",
"423 439 LINE",
"391 480 OFFCURVE",
"346 504 OFFCURVE",
"284 504 CURVE SMOOTH",
"154 504 OFFCURVE",
"68 406 OFFCURVE",
"68 246 CURVE SMOOTH",
"68 86 OFFCURVE",
"154 -12 OFFCURVE",
"292 -12 CURVE SMOOTH",
"426 -12 OFFCURVE",
"512 81 OFFCURVE",
"512 261 CURVE SMOOTH"
);
},
{
closed = 1;
nodes = (
"195 37 OFFCURVE",
"129 101 OFFCURVE",
"129 216 CURVE SMOOTH",
"129 276 LINE SMOOTH",
"129 391 OFFCURVE",
"195 455 OFFCURVE",
"290 455 CURVE SMOOTH",
"386 455 OFFCURVE",
"452 391 OFFCURVE",
"452 276 CURVE SMOOTH",
"452 216 LINE SMOOTH",
"452 101 OFFCURVE",
"386 37 OFFCURVE",
"290 37 CURVE SMOOTH"
);
}
);
width = 585;
}
);
note = partialdiff;
unicode = 2202;
},
{
glyphname = cent;
lastChange = "2019-02-02 11:40:47 +0000";
layers = (
{
layerId = "1053487F-6E39-46EB-834B-3FE95151DC2D";
paths = (
{
closed = 1;
nodes = (
"292 -114 LINE",
"292 -11 LINE",
"376 -7 OFFCURVE",
"432 36 OFFCURVE",
"463 99 CURVE",
"421 127 LINE",
"394 75 OFFCURVE",
"352 43 OFFCURVE",
"291 39 CURVE",
"291 473 LINE",
"348 469 OFFCURVE",
"385 439 OFFCURVE",
"409 388 CURVE",
"455 411 LINE",
"426 474 OFFCURVE",
"373 519 OFFCURVE",
"292 523 CURVE",
"292 626 LINE",
"242 626 LINE",
"242 522 LINE",
"122 509 OFFCURVE",
"52 413 OFFCURVE",
"52 256 CURVE SMOOTH",
"52 100 OFFCURVE",
"121 3 OFFCURVE",
"242 -10 CURVE",
"242 -114 LINE"
);
},
{
closed = 1;
nodes = (
"113 292 LINE SMOOTH",
"113 390 OFFCURVE",
"159 459 OFFCURVE",
"243 471 CURVE",
"243 42 LINE",
"159 53 OFFCURVE",
"113 123 OFFCURVE",
"113 220 CURVE SMOOTH"
);
}
);
width = 497;
}
);
note = cent;
unicode = 00A2;
},
{
glyphname = Euro;
lastChange = "2019-02-02 11:40:47 +0000";
layers = (
{
layerId = "1053487F-6E39-46EB-834B-3FE95151DC2D";
paths = (
{
closed = 1;
nodes = (
"523 173 LINE",
"492 93 OFFCURVE",
"428 41 OFFCURVE",
"335 41 CURVE SMOOTH",
"221 41 OFFCURVE",
"147 117 OFFCURVE",
"130 246 CURVE",
"389 246 LINE",
"389 294 LINE",
"126 294 LINE",
"126 300 OFFCURVE",
"126 305 OFFCURVE",
"126 312 CURVE SMOOTH",
"126 386 LINE SMOOTH",
"126 393 OFFCURVE",
"126 399 OFFCURVE",
"126 404 CURVE",
"389 404 LINE",
"389 452 LINE",
"130 452 LINE",
"146 581 OFFCURVE",
"220 657 OFFCURVE",
"335 657 CURVE SMOOTH",
"423 657 OFFCURVE",
"487 608 OFFCURVE",
"518 533 CURVE",
"565 561 LINE",
"523 653 OFFCURVE",
"446 710 OFFCURVE",
"335 710 CURVE SMOOTH",
"164 710 OFFCURVE",
"64 585 OFFCURVE",
"64 349 CURVE SMOOTH",
"64 113 OFFCURVE",
"164 -12 OFFCURVE",
"335 -12 CURVE SMOOTH",
"455 -12 OFFCURVE",
"530 53 OFFCURVE",
"570 144 CURVE"
);
}
);
width = 616;
}
);
note = Euro;
unicode = 20AC;
},
{
glyphname = florin;
lastChange = "2019-02-02 11:40:47 +0000";
layers = (
{
layerId = "1053487F-6E39-46EB-834B-3FE95151DC2D";
paths = (
{
closed = 1;
nodes = (
"-3 -134 LINE",
"131 -134 LINE SMOOTH",
"186 -134 OFFCURVE",
"216 -101 OFFCURVE",
"221 -51 CURVE SMOOTH",
"256 305 LINE",
"441 305 LINE",
"447 357 LINE",
"262 357 LINE",
"291 648 LINE",
"457 648 LINE",
"462 698 LINE",
"320 698 LINE SMOOTH",
"265 698 OFFCURVE",
"235 665 OFFCURVE",
"230 615 CURVE SMOOTH",
"204 357 LINE",
"50 357 LINE",
"44 305 LINE",
"199 305 LINE",
"160 -84 LINE",
"2 -84 LINE"
);
}
);
width = 486;
}
);
note = florin;
unicode = 0192;
},
{
glyphname = sterling;
lastChange = "2019-02-02 11:40:47 +0000";
layers = (
{
layerId = "1053487F-6E39-46EB-834B-3FE95151DC2D";
paths = (
{
closed = 1;
nodes = (
"520 0 LINE",
"520 54 LINE",
"140 54 LINE",
"140 57 LINE",
"188 92 OFFCURVE",
"222 159 OFFCURVE",
"222 236 CURVE SMOOTH",
"222 258 OFFCURVE",
"219 277 OFFCURVE",
"215 296 CURVE",
"419 296 LINE",
"419 346 LINE",
"202 346 LINE",
"186 394 OFFCURVE",
"166 441 OFFCURVE",
"166 498 CURVE SMOOTH",
"166 602 OFFCURVE",
"229 657 OFFCURVE",
"324 657 CURVE SMOOTH",
"398 657 OFFCURVE",
"451 624 OFFCURVE",
"488 562 CURVE",
"534 594 LINE",
"489 669 OFFCURVE",
"421 710 OFFCURVE",
"326 710 CURVE SMOOTH",
"191 710 OFFCURVE",
"105 628 OFFCURVE",
"105 503 CURVE SMOOTH",
"105 443 OFFCURVE",
"125 396 OFFCURVE",
"142 346 CURVE",
"64 346 LINE",
"64 296 LINE",
"156 296 LINE",
"160 276 OFFCURVE",
"164 254 OFFCURVE",
"164 230 CURVE SMOOTH",
"164 163 OFFCURVE",
"138 102 OFFCURVE",
"82 71 CURVE",
"82 0 LINE"
);
}
);
width = 589;
}
);
note = sterling;
unicode = 00A3;
},
{
glyphname = dollar;
lastChange = "2019-02-02 11:40:47 +0000";
layers = (
{
layerId = "1053487F-6E39-46EB-834B-3FE95151DC2D";
paths = (
{
closed = 1;
nodes = (
"314 -82 LINE",
"314 0 LINE",
"440 9 OFFCURVE",
"520 78 OFFCURVE",
"520 194 CURVE SMOOTH",
"520 289 OFFCURVE",
"472 356 OFFCURVE",
"331 381 CURVE SMOOTH",
"314 384 LINE",
"314 647 LINE",
"384 640 OFFCURVE",
"434 609 OFFCURVE",
"468 560 CURVE",
"512 593 LINE",
"469 654 OFFCURVE",
"406 692 OFFCURVE",
"314 699 CURVE",
"314 780 LINE",
"270 780 LINE",
"270 698 LINE",
"149 691 OFFCURVE",
"67 632 OFFCURVE",
"67 523 CURVE SMOOTH",
"67 429 OFFCURVE",
"118 362 OFFCURVE",
"258 339 CURVE SMOOTH",
"270 337 LINE",
"270 51 LINE",
"190 57 OFFCURVE",
"136 96 OFFCURVE",
"91 154 CURVE",
"48 117 LINE",
"97 52 OFFCURVE",
"165 5 OFFCURVE",
"270 0 CURVE",
"270 -82 LINE"
);
},
{
closed = 1;
nodes = (
"463 109 OFFCURVE",
"407 59 OFFCURVE",
"314 51 CURVE",
"314 330 LINE",
"321 329 LINE SMOOTH",
"412 316 OFFCURVE",
"463 276 OFFCURVE",
"463 191 CURVE SMOOTH"
);
},
{
closed = 1;
nodes = (
"124 600 OFFCURVE",
"180 641 OFFCURVE",
"270 647 CURVE",
"270 391 LINE",
"260 393 LINE SMOOTH",
"176 410 OFFCURVE",
"124 444 OFFCURVE",
"124 526 CURVE SMOOTH"
);
}
);
width = 578;
}
);
note = dollar;
unicode = 0024;
},
{
glyphname = yen;
lastChange = "2019-02-02 11:40:47 +0000";
layers = (
{
layerId = "1053487F-6E39-46EB-834B-3FE95151DC2D";
paths = (
{
closed = 1;
nodes = (
"512 154 LINE",
"512 202 LINE",
"327 202 LINE",
"327 315 LINE",
"512 315 LINE",
"512 363 LINE",
"356 363 LINE",
"556 698 LINE",
"490 698 LINE",
"302 369 LINE",
"298 369 LINE",
"107 698 LINE",
"39 698 LINE",
"239 363 LINE",
"83 363 LINE",
"83 315 LINE",
"268 315 LINE",
"268 202 LINE",
"83 202 LINE",
"83 154 LINE",
"268 154 LINE",
"268 0 LINE",
"327 0 LINE",
"327 154 LINE"
);
}
);
width = 595;
}
);
note = yen;
unicode = 00A5;
},
{
glyphname = uni0E3F;
lastChange = "2019-02-02 11:40:47 +0000";
layers = (
{
layerId = "1053487F-6E39-46EB-834B-3FE95151DC2D";
paths = (
{
closed = 1;
nodes = (
"333 21 LINE",
"387 21 LINE SMOOTH",
"494 21 OFFCURVE",
"565 98 OFFCURVE",
"565 206 CURVE SMOOTH",
"565 309 OFFCURVE",
"502 353 OFFCURVE",
"428 364 CURVE",
"428 369 LINE",
"490 383 OFFCURVE",
"537 425 OFFCURVE",
"537 511 CURVE SMOOTH",
"537 613 OFFCURVE",
"472 677 OFFCURVE",
"363 677 CURVE SMOOTH",
"333 677 LINE",
"333 780 LINE",
"284 780 LINE",
"284 677 LINE",
"99 677 LINE",
"99 21 LINE",
"284 21 LINE",
"284 -82 LINE",
"333 -82 LINE"
);
},
{
closed = 1;
nodes = (
"158 386 LINE",
"158 623 LINE",
"284 623 LINE",
"284 386 LINE"
);
},
{
closed = 1;
nodes = (
"332 623 LINE",
"364 623 LINE SMOOTH",
"440 623 OFFCURVE",
"475 584 OFFCURVE",
"475 523 CURVE SMOOTH",
"475 488 LINE SMOOTH",
"475 427 OFFCURVE",
"440 386 OFFCURVE",
"364 386 CURVE SMOOTH",
"332 386 LINE"
);
},
{
closed = 1;
nodes = (
"158 75 LINE",
"158 336 LINE",
"284 336 LINE",
"284 75 LINE"
);
},
{
closed = 1;
nodes = (
"332 336 LINE",
"373 336 LINE SMOOTH",
"457 336 OFFCURVE",
"503 291 OFFCURVE",
"503 224 CURVE SMOOTH",
"503 186 LINE SMOOTH",
"503 119 OFFCURVE",
"457 75 OFFCURVE",
"373 75 CURVE SMOOTH",
"332 75 LINE"
);
}
);
width = 629;
}
);
note = uni0E3F;
unicode = 0E3F;
},
{
glyphname = uni20A1;
lastChange = "2019-02-02 11:40:47 +0000";
layers = (
{
layerId = "1053487F-6E39-46EB-834B-3FE95151DC2D";
paths = (
{
closed = 1;
nodes = (
"312 -82 LINE",
"360 -82 LINE",
"369 0 LINE",
"470 10 OFFCURVE",
"535 70 OFFCURVE",
"572 154 CURVE",
"523 184 LINE",
"497 114 OFFCURVE",
"447 66 OFFCURVE",
"373 55 CURVE",
"437 621 LINE",
"474 600 OFFCURVE",
"500 566 OFFCURVE",
"518 522 CURVE",
"567 551 LINE",
"540 610 OFFCURVE",
"500 655 OFFCURVE",
"445 679 CURVE",
"456 780 LINE",
"408 780 LINE",
"398 692 LINE",
"379 697 OFFCURVE",
"358 700 OFFCURVE",
"336 700 CURVE SMOOTH",
"331 700 OFFCURVE",
"327 700 OFFCURVE",
"320 699 CURVE",
"329 780 LINE",
"281 780 LINE",
"272 695 LINE",
"140 669 OFFCURVE",
"64 554 OFFCURVE",
"64 348 CURVE SMOOTH",
"64 184 OFFCURVE",
"112 78 OFFCURVE",
"198 30 CURVE",
"185 -82 LINE",
"233 -82 LINE",
"244 13 LINE",
"266 4 OFFCURVE",
"293 0 OFFCURVE",
"321 -1 CURVE"
);
},
{
closed = 1;
nodes = (
"357 646 OFFCURVE",
"375 643 OFFCURVE",
"392 638 CURVE",
"326 52 LINE",
"298 52 OFFCURVE",
"272 58 OFFCURVE",
"250 69 CURVE",
"314 646 LINE",
"319 646 OFFCURVE",
"332 646 OFFCURVE",
"337 646 CURVE SMOOTH"
);
},
{
closed = 1;
nodes = (
"128 392 LINE SMOOTH",
"128 526 OFFCURVE",
"178 611 OFFCURVE",
"266 637 CURVE",
"206 93 LINE",
"155 133 OFFCURVE",
"128 206 OFFCURVE",
"128 307 CURVE SMOOTH"
);
}
);
width = 618;
}
);
note = uni20A1;
unicode = 20A1;
},
{
glyphname = uni20A4;
lastChange = "2019-02-02 11:40:47 +0000";
layers = (
{
layerId = "1053487F-6E39-46EB-834B-3FE95151DC2D";
paths = (
{
closed = 1;
nodes = (
"520 54 LINE",
"140 54 LINE",
"140 57 LINE",
"187 92 OFFCURVE",
"221 157 OFFCURVE",
"222 232 CURVE SMOOTH",
"222 236 OFFCURVE",
"222 240 OFFCURVE",
"222 243 CURVE",
"426 243 LINE",
"426 291 LINE",
"217 291 LINE",
"210 329 OFFCURVE",
"195 364 OFFCURVE",
"184 399 CURVE",
"426 399 LINE",
"426 447 LINE",
"173 447 LINE",
"169 463 OFFCURVE",
"166 480 OFFCURVE",
"166 498 CURVE SMOOTH",
"166 602 OFFCURVE",
"229 657 OFFCURVE",
"324 657 CURVE SMOOTH",
"398 657 OFFCURVE",
"451 624 OFFCURVE",
"488 562 CURVE",
"534 594 LINE",
"489 669 OFFCURVE",
"421 710 OFFCURVE",
"326 710 CURVE SMOOTH",
"191 710 OFFCURVE",
"105 628 OFFCURVE",
"105 503 CURVE SMOOTH",
"105 483 OFFCURVE",
"107 464 OFFCURVE",
"111 447 CURVE",
"64 447 LINE",
"64 399 LINE",
"123 399 LINE",
"135 364 OFFCURVE",
"150 330 OFFCURVE",
"157 291 CURVE",
"64 291 LINE",
"64 243 LINE",
"164 243 LINE",
"164 239 OFFCURVE",
"164 235 OFFCURVE",
"164 231 CURVE SMOOTH",
"164 163 OFFCURVE",
"138 102 OFFCURVE",
"82 71 CURVE",
"82 0 LINE",
"520 0 LINE"
);
}
);
width = 589;
}
);
note = uni20A4;
unicode = 20A4;
},
{
glyphname = uni20A6;
lastChange = "2019-02-02 11:40:47 +0000";
layers = (
{
layerId = "1053487F-6E39-46EB-834B-3FE95151DC2D";
paths = (
{
closed = 1;
nodes = (
"512 0 LINE",
"584 0 LINE",
"584 245 LINE",
"670 245 LINE",
"670 293 LINE",
"584 293 LINE",
"584 405 LINE",
"670 405 LINE",
"670 453 LINE",
"584 453 LINE",
"584 698 LINE",
"526 698 LINE",
"526 452 LINE",
"316 452 LINE",
"172 698 LINE",
"102 698 LINE",
"102 453 LINE",
"16 453 LINE",
"16 405 LINE",
"102 405 LINE",
"102 293 LINE",
"16 293 LINE",
"16 245 LINE",
"102 245 LINE",
"102 0 LINE",
"160 0 LINE",
"160 246 LINE",
"367 246 LINE"
);
},
{
closed = 1;
nodes = (
"160 291 LINE",
"160 607 LINE",
"163 607 LINE",
"344 291 LINE"
);
},
{
closed = 1;
nodes = (
"339 407 LINE",
"526 407 LINE",
"526 84 LINE",
"523 84 LINE"
);
}
);
width = 686;
}
);
note = uni20A6;
unicode = 20A6;
},
{
glyphname = uni20A8;
lastChange = "2019-02-02 11:40:47 +0000";
layers = (
{
layerId = "1053487F-6E39-46EB-834B-3FE95151DC2D";
paths = (
{
closed = 1;
nodes = (
"681 167 OFFCURVE",
"663 192 OFFCURVE",
"605 245 CURVE",
"580 266 LINE SMOOTH",
"535 306 OFFCURVE",
"517 329 OFFCURVE",
"517 367 CURVE SMOOTH",
"517 404 OFFCURVE",
"539 429 OFFCURVE",
"582 429 CURVE SMOOTH",
"610 429 OFFCURVE",
"633 419 OFFCURVE",
"653 403 CURVE",
"678 444 LINE",
"649 467 OFFCURVE",
"615 475 OFFCURVE",
"579 475 CURVE SMOOTH",
"502 475 OFFCURVE",
"463 425 OFFCURVE",
"463 366 CURVE SMOOTH",
"463 317 OFFCURVE",
"484 281 OFFCURVE",
"542 229 CURVE SMOOTH",
"569 206 LINE SMOOTH",
"617 163 OFFCURVE",
"627 149 OFFCURVE",
"627 114 CURVE SMOOTH",
"627 66 OFFCURVE",
"592 37 OFFCURVE",
"539 37 CURVE SMOOTH",
"483 37 OFFCURVE",
"452 63 OFFCURVE",
"424 117 CURVE SMOOTH",
"313 336 LINE",
"390 357 OFFCURVE",
"426 420 OFFCURVE",
"426 513 CURVE SMOOTH",
"426 630 OFFCURVE",
"369 698 OFFCURVE",
"249 698 CURVE SMOOTH",
"99 698 LINE",
"99 0 LINE",
"156 0 LINE",
"156 326 LINE",
"236 326 LINE SMOOTH",
"243 326 OFFCURVE",
"247 326 OFFCURVE",
"256 327 CURVE",
"373 88 LINE SMOOTH",
"408 16 OFFCURVE",
"460 -12 OFFCURVE",
"535 -12 CURVE SMOOTH",
"629 -12 OFFCURVE",
"681 40 OFFCURVE",
"681 114 CURVE SMOOTH"
);
},
{
closed = 1;
nodes = (
"156 645 LINE",
"244 645 LINE SMOOTH",
"321 645 OFFCURVE",
"366 607 OFFCURVE",
"366 534 CURVE SMOOTH",
"366 489 LINE SMOOTH",
"366 416 OFFCURVE",
"321 376 OFFCURVE",
"244 376 CURVE SMOOTH",
"156 376 LINE"
);
}
);
width = 715;
}
);
note = uni20A8;
unicode = 20A8;
},
{
glyphname = uni20A9;
lastChange = "2019-02-02 11:40:47 +0000";
layers = (
{
layerId = "1053487F-6E39-46EB-834B-3FE95151DC2D";
paths = (
{
closed = 1;
nodes = (
"633 0 LINE",
"701 0 LINE",
"764 243 LINE",
"893 243 LINE",
"893 291 LINE",
"777 291 LINE",
"806 404 LINE",
"893 404 LINE",
"893 452 LINE",
"818 452 LINE",
"882 698 LINE",
"822 698 LINE",
"761 450 LINE",
"566 450 LINE",
"501 698 LINE",
"430 698 LINE",
"363 450 LINE",
"171 450 LINE",
"111 698 LINE",
"51 698 LINE",
"113 452 LINE",
"39 452 LINE",
"39 404 LINE",
"125 404 LINE",
"153 291 LINE",
"39 291 LINE",
"39 243 LINE",
"164 243 LINE",
"225 0 LINE",
"292 0 LINE",
"359 245 LINE",
"567 245 LINE"
);
},
{
closed = 1;
nodes = (
"261 73 LINE",
"181 405 LINE",
"350 405 LINE",
"263 73 LINE"
);
},
{
closed = 1;
nodes = (
"665 74 LINE",
"578 405 LINE",
"750 405 LINE",
"668 74 LINE"
);
},
{
closed = 1;
nodes = (
"463 636 LINE",
"465 636 LINE",
"556 290 LINE",
"371 290 LINE"
);
}
);
width = 932;
}
);
note = uni20A9;
unicode = 20A9;
},
{
glyphname = uni20AA;
lastChange = "2019-02-02 11:40:47 +0000";
layers = (
{
layerId = "1053487F-6E39-46EB-834B-3FE95151DC2D";
paths = (
{
closed = 1;
nodes = (
"270 0 LINE",
"505 0 LINE SMOOTH",
"603 0 OFFCURVE",
"669 59 OFFCURVE",
"669 182 CURVE SMOOTH",
"669 698 LINE",
"612 698 LINE",
"612 172 LINE SMOOTH",
"612 78 OFFCURVE",
"560 50 OFFCURVE",
"505 50 CURVE SMOOTH",
"327 50 LINE",
"327 552 LINE",
"270 552 LINE"
);
},
{
closed = 1;
nodes = (
"156 0 LINE",
"156 648 LINE",
"331 648 LINE SMOOTH",
"386 648 OFFCURVE",
"441 620 OFFCURVE",
"441 526 CURVE SMOOTH",
"441 146 LINE",
"498 146 LINE",
"498 516 LINE SMOOTH",
"498 639 OFFCURVE",
"429 698 OFFCURVE",
"331 698 CURVE SMOOTH",
"99 698 LINE",
"99 0 LINE"
);
}
);
width = 768;
}
);
note = uni20AA;
unicode = 20AA;
},
{
glyphname = uni20AB;
lastChange = "2019-02-02 11:40:47 +0000";
layers = (
{
layerId = "1053487F-6E39-46EB-834B-3FE95151DC2D";
paths = (
{
closed = 1;
nodes = (
"406 128 LINE",
"461 128 LINE",
"461 629 LINE",
"531 629 LINE",
"531 674 LINE",
"461 674 LINE",
"461 740 LINE",
"406 740 LINE",
"406 674 LINE",
"251 674 LINE",
"251 629 LINE",
"406 629 LINE",
"406 474 LINE",
"403 474 LINE",
"378 521 OFFCURVE",
"329 556 OFFCURVE",
"256 556 CURVE SMOOTH",
"141 556 OFFCURVE",
"70 479 OFFCURVE",
"70 337 CURVE SMOOTH",
"70 195 OFFCURVE",
"141 118 OFFCURVE",
"256 118 CURVE SMOOTH",
"329 118 OFFCURVE",
"378 152 OFFCURVE",
"403 199 CURVE",
"406 199 LINE"
);
},
{
closed = 1;
nodes = (
"184 165 OFFCURVE",
"129 221 OFFCURVE",
"129 307 CURVE SMOOTH",
"129 368 LINE SMOOTH",
"129 454 OFFCURVE",
"184 509 OFFCURVE",
"273 509 CURVE SMOOTH",
"347 509 OFFCURVE",
"406 466 OFFCURVE",
"406 401 CURVE SMOOTH",
"406 272 LINE SMOOTH",
"406 208 OFFCURVE",
"347 165 OFFCURVE",
"273 165 CURVE SMOOTH"
);
},
{
closed = 1;
nodes = (
"493 0 LINE",
"493 49 LINE",
"70 49 LINE",
"70 0 LINE"
);
}
);
width = 573;
}
);
note = uni20AB;
unicode = 20AB;
},
{
glyphname = uni20AD;
lastChange = "2019-02-02 11:40:47 +0000";
layers = (
{
layerId = "1053487F-6E39-46EB-834B-3FE95151DC2D";
paths = (
{
closed = 1;
nodes = (
"162 339 LINE",
"248 339 LINE",
"499 0 LINE",
"570 0 LINE",
"315 339 LINE",
"539 339 LINE",
"539 389 LINE",
"311 389 LINE",
"554 698 LINE",
"487 698 LINE",
"247 389 LINE",
"162 389 LINE",
"162 698 LINE",
"102 698 LINE",
"102 389 LINE",
"13 389 LINE",
"13 339 LINE",
"102 339 LINE",
"102 0 LINE",
"162 0 LINE"
);
}
);
width = 599;
}
);
note = uni20AD;
unicode = 20AD;
},
{
glyphname = uni20AE;
lastChange = "2019-02-02 11:40:47 +0000";
layers = (
{
layerId = "1053487F-6E39-46EB-834B-3FE95151DC2D";
paths = (
{
closed = 1;
nodes = (
"467 300 LINE",
"467 351 LINE",
"325 281 LINE",
"325 387 LINE",
"467 456 LINE",
"467 506 LINE",
"325 437 LINE",
"325 645 LINE",
"559 645 LINE",
"559 698 LINE",
"31 698 LINE",
"31 645 LINE",
"265 645 LINE",
"265 409 LINE",
"123 340 LINE",
"123 290 LINE",
"265 358 LINE",
"265 253 LINE",
"123 184 LINE",
"123 134 LINE",
"265 203 LINE",
"265 0 LINE",
"325 0 LINE",
"325 231 LINE"
);
}
);
width = 590;
}
);
note = uni20AE;
unicode = 20AE;
},
{
glyphname = uni20B1;
lastChange = "2019-02-02 11:40:47 +0000";
layers = (
{
layerId = "1053487F-6E39-46EB-834B-3FE95151DC2D";
paths = (
{
closed = 1;
nodes = (
"162 219 LINE",
"331 219 LINE SMOOTH",
"427 219 OFFCURVE",
"484 271 OFFCURVE",
"505 356 CURVE",
"595 356 LINE",
"595 404 LINE",
"513 404 LINE",
"514 413 OFFCURVE",
"514 448 OFFCURVE",
"514 458 CURVE SMOOTH",
"514 468 OFFCURVE",
"514 502 OFFCURVE",
"513 512 CURVE",
"595 512 LINE",
"595 560 LINE",
"505 560 LINE",
"484 645 OFFCURVE",
"426 698 OFFCURVE",
"331 698 CURVE SMOOTH",
"102 698 LINE",
"102 560 LINE",
"17 560 LINE",
"17 512 LINE",
"102 512 LINE",
"102 404 LINE",
"17 404 LINE",
"17 356 LINE",
"102 356 LINE",
"102 0 LINE",
"162 0 LINE"
);
},
{
closed = 1;
nodes = (
"162 646 LINE",
"331 646 LINE SMOOTH",
"395 646 OFFCURVE",
"436 607 OFFCURVE",
"450 558 CURVE",
"162 558 LINE"
);
},
{
closed = 1;
nodes = (
"162 402 LINE",
"162 514 LINE",
"455 514 LINE",
"455 402 LINE"
);
},
{
closed = 1;
nodes = (
"162 271 LINE",
"162 358 LINE",
"451 358 LINE",
"438 307 OFFCURVE",
"396 271 OFFCURVE",
"331 271 CURVE SMOOTH"
);
}
);
width = 612;
}
);
note = uni20B1;
unicode = 20B1;
},
{
glyphname = uni20B2;
lastChange = "2019-02-02 11:40:47 +0000";
layers = (
{
layerId = "1053487F-6E39-46EB-834B-3FE95151DC2D";
paths = (
{
closed = 1;
nodes = (
"285 -82 LINE",
"299 0 LINE",
"311 -1 OFFCURVE",
"324 -2 OFFCURVE",
"338 -2 CURVE SMOOTH",
"461 -2 OFFCURVE",
"590 64 OFFCURVE",
"590 239 CURVE SMOOTH",
"590 348 LINE",
"356 348 LINE",
"404 638 LINE",
"460 622 OFFCURVE",
"503 582 OFFCURVE",
"526 526 CURVE",
"574 554 LINE",
"543 624 OFFCURVE",
"487 672 OFFCURVE",
"414 691 CURVE",
"429 780 LINE",
"377 780 LINE",
"363 698 LINE",
"355 699 OFFCURVE",
"347 700 OFFCURVE",
"338 700 CURVE SMOOTH",
"164 700 OFFCURVE",
"64 583 OFFCURVE",
"64 351 CURVE SMOOTH",
"64 158 OFFCURVE",
"132 44 OFFCURVE",
"250 9 CURVE",
"233 -82 LINE"
);
},
{
closed = 1;
nodes = (
"128 392 LINE SMOOTH",
"128 556 OFFCURVE",
"206 647 OFFCURVE",
"338 647 CURVE SMOOTH",
"344 647 OFFCURVE",
"351 647 OFFCURVE",
"355 646 CURVE",
"260 66 LINE",
"176 96 OFFCURVE",
"128 179 OFFCURVE",
"128 307 CURVE SMOOTH"
);
},
{
closed = 1;
nodes = (
"532 294 LINE",
"532 227 LINE SMOOTH",
"532 115 OFFCURVE",
"457 51 OFFCURVE",
"345 51 CURVE SMOOTH",
"332 51 OFFCURVE",
"320 52 OFFCURVE",
"307 53 CURVE",
"347 294 LINE"
);
}
);
width = 665;
}
);
note = uni20B2;
unicode = 20B2;
},
{
glyphname = uni20B4;
lastChange = "2019-02-02 11:40:47 +0000";
layers = (
{
layerId = "1053487F-6E39-46EB-834B-3FE95151DC2D";
paths = (
{
closed = 1;
nodes = (
"394 -12 OFFCURVE",
"468 20 OFFCURVE",
"525 85 CURVE",
"488 125 LINE",
"431 65 OFFCURVE",
"377 41 OFFCURVE",
"318 41 CURVE SMOOTH",
"228 41 OFFCURVE",
"172 87 OFFCURVE",
"172 173 CURVE SMOOTH",
"172 208 OFFCURVE",
"182 233 OFFCURVE",
"199 257 CURVE",
"573 257 LINE",
"573 305 LINE",
"259 305 LINE",
"449 417 LINE",
"573 417 LINE",
"573 465 LINE",
"485 465 LINE",
"496 484 OFFCURVE",
"503 509 OFFCURVE",
"503 541 CURVE SMOOTH",
"503 646 OFFCURVE",
"424 710 OFFCURVE",
"311 710 CURVE SMOOTH",
"241 710 OFFCURVE",
"172 685 OFFCURVE",
"117 624 CURVE",
"155 585 LINE",
"201 637 OFFCURVE",
"252 657 OFFCURVE",
"307 657 CURVE SMOOTH",
"391 657 OFFCURVE",
"443 615 OFFCURVE",
"443 537 CURVE SMOOTH",
"443 508 OFFCURVE",
"438 485 OFFCURVE",
"424 465 CURVE",
"48 465 LINE",
"48 417 LINE",
"364 417 LINE",
"173 305 LINE",
"48 305 LINE",
"48 257 LINE",
"136 257 LINE",
"123 233 OFFCURVE",
"112 206 OFFCURVE",
"112 169 CURVE SMOOTH",
"112 60 OFFCURVE",
"192 -12 OFFCURVE",
"315 -12 CURVE SMOOTH"
);
}
);
width = 621;
}
);
note = uni20B4;
unicode = 20B4;
},
{
glyphname = uni20B5;
lastChange = "2019-02-02 11:40:47 +0000";
layers = (
{
layerId = "1053487F-6E39-46EB-834B-3FE95151DC2D";
paths = (
{
closed = 1;
nodes = (
"281 -82 LINE",
"296 1 LINE",
"308 -1 OFFCURVE",
"321 -2 OFFCURVE",
"335 -2 CURVE SMOOTH",
"457 -2 OFFCURVE",
"531 63 OFFCURVE",
"572 154 CURVE",
"523 183 LINE",
"493 103 OFFCURVE",
"429 52 OFFCURVE",
"335 52 CURVE SMOOTH",
"324 52 OFFCURVE",
"314 52 OFFCURVE",
"304 54 CURVE",
"400 637 LINE",
"455 619 OFFCURVE",
"495 579 OFFCURVE",
"518 524 CURVE",
"567 552 LINE",
"535 622 OFFCURVE",
"482 671 OFFCURVE",
"410 690 CURVE",
"425 780 LINE",
"373 780 LINE",
"360 699 LINE",
"349 700 OFFCURVE",
"343 700 OFFCURVE",
"335 700 CURVE SMOOTH",
"166 700 OFFCURVE",
"64 585 OFFCURVE",
"64 349 CURVE SMOOTH",
"64 158 OFFCURVE",
"131 45 OFFCURVE",
"246 10 CURVE",
"230 -82 LINE"
);
},
{
closed = 1;
nodes = (
"128 392 LINE SMOOTH",
"128 556 OFFCURVE",
"205 647 OFFCURVE",
"335 647 CURVE SMOOTH",
"339 647 OFFCURVE",
"344 647 OFFCURVE",
"352 646 CURVE",
"256 66 LINE",
"175 96 OFFCURVE",
"128 178 OFFCURVE",
"128 307 CURVE SMOOTH"
);
}
);
width = 618;
}
);
note = uni20B5;
unicode = 20B5;
},
{
glyphname = uni20B8;
lastChange = "2019-02-02 11:40:47 +0000";
layers = (
{
layerId = "1053487F-6E39-46EB-834B-3FE95151DC2D";
paths = (
{
closed = 1;
nodes = (
"567 648 LINE",
"567 698 LINE",
"39 698 LINE",
"39 648 LINE"
);
},
{
closed = 1;
nodes = (
"567 492 LINE",
"567 542 LINE",
"39 542 LINE",
"39 492 LINE",
"273 492 LINE",
"273 0 LINE",
"333 0 LINE",
"333 492 LINE"
);
}
);
width = 606;
}
);
note = uni20B8;
unicode = 20B8;
},
{
glyphname = uni20B9;
lastChange = "2019-02-02 11:40:47 +0000";
layers = (
{
layerId = "1053487F-6E39-46EB-834B-3FE95151DC2D";
paths = (
{
closed = 1;
nodes = (
"480 0 LINE",
"248 307 LINE",
"258 307 LINE SMOOTH",
"373 307 OFFCURVE",
"447 382 OFFCURVE",
"447 479 CURVE SMOOTH",
"447 482 LINE",
"552 482 LINE",
"552 532 LINE",
"447 532 LINE",
"440 608 OFFCURVE",
"402 634 OFFCURVE",
"370 644 CURVE",
"370 648 LINE",
"552 648 LINE",
"552 698 LINE",
"37 698 LINE",
"37 648 LINE",
"260 648 LINE SMOOTH",
"338 648 OFFCURVE",
"387 602 OFFCURVE",
"389 532 CURVE",
"37 532 LINE",
"37 482 LINE",
"389 482 LINE",
"389 477 LINE SMOOTH",
"389 404 OFFCURVE",
"340 357 OFFCURVE",
"259 357 CURVE SMOOTH",
"37 357 LINE",
"37 307 LINE",
"179 307 LINE",
"408 0 LINE"
);
}
);
width = 584;
}
);
note = uni20B9;
unicode = 20B9;
},
{
glyphname = uni20BA;
lastChange = "2019-02-02 11:40:47 +0000";
layers = (
{
layerId = "1053487F-6E39-46EB-834B-3FE95151DC2D";
paths = (
{
closed = 1;
nodes = (
"127 0 LINE",
"310 0 LINE SMOOTH",
"473 0 OFFCURVE",
"559 134 OFFCURVE",
"559 305 CURVE",
"500 305 LINE",
"500 156 OFFCURVE",
"428 52 OFFCURVE",
"306 52 CURVE SMOOTH",
"187 52 LINE",
"187 298 LINE",
"400 401 LINE",
"400 451 LINE",
"187 348 LINE",
"187 453 LINE",
"400 556 LINE",
"400 607 LINE",
"187 504 LINE",
"187 698 LINE",
"127 698 LINE",
"127 476 LINE",
"17 423 LINE",
"17 372 LINE",
"127 426 LINE",
"127 320 LINE",
"17 267 LINE",
"17 217 LINE",
"127 270 LINE"
);
}
);
width = 608;
}
);
note = uni20BA;
unicode = 20BA;
},
{
glyphname = uni20BD;
lastChange = "2019-02-02 11:40:47 +0000";
layers = (
{
layerId = "1053487F-6E39-46EB-834B-3FE95151DC2D";
paths = (
{
closed = 1;
nodes = (
"426 147 LINE",
"426 197 LINE",
"162 197 LINE",
"162 308 LINE",
"376 308 LINE SMOOTH",
"497 308 OFFCURVE",
"563 384 OFFCURVE",
"563 503 CURVE SMOOTH",
"563 622 OFFCURVE",
"497 698 OFFCURVE",
"376 698 CURVE SMOOTH",
"102 698 LINE",
"102 358 LINE",
"17 358 LINE",
"17 308 LINE",
"102 308 LINE",
"102 197 LINE",
"17 197 LINE",
"17 147 LINE",
"102 147 LINE",
"102 0 LINE",
"162 0 LINE",
"162 147 LINE"
);
},
{
closed = 1;
nodes = (
"162 644 LINE",
"376 644 LINE SMOOTH",
"457 644 OFFCURVE",
"499 595 OFFCURVE",
"499 526 CURVE SMOOTH",
"499 476 LINE SMOOTH",
"499 408 OFFCURVE",
"457 358 OFFCURVE",
"376 358 CURVE SMOOTH",
"162 358 LINE"
);
}
);
width = 604;
}
);
note = uni20BD;
unicode = 20BD;
},
{
glyphname = uni20BF;
lastChange = "2019-02-02 11:40:47 +0000";
layers = (
{
layerId = "1053487F-6E39-46EB-834B-3FE95151DC2D";
paths = (
{
closed = 1;
nodes = (
"339 -82 LINE",
"389 -82 LINE",
"389 21 LINE",
"496 21 OFFCURVE",
"565 98 OFFCURVE",
"565 206 CURVE SMOOTH",
"565 309 OFFCURVE",
"502 353 OFFCURVE",
"428 364 CURVE",
"428 369 LINE",
"491 383 OFFCURVE",
"537 425 OFFCURVE",
"537 511 CURVE SMOOTH",
"537 607 OFFCURVE",
"482 667 OFFCURVE",
"389 676 CURVE",
"389 780 LINE",
"339 780 LINE",
"339 677 LINE",
"260 677 LINE",
"260 780 LINE",
"210 780 LINE",
"210 677 LINE",
"99 677 LINE",
"99 21 LINE",
"210 21 LINE",
"210 -82 LINE",
"260 -82 LINE",
"260 21 LINE",
"339 21 LINE"
);
},
{
closed = 1;
nodes = (
"158 623 LINE",
"364 623 LINE SMOOTH",
"441 623 OFFCURVE",
"475 583 OFFCURVE",
"475 522 CURVE SMOOTH",
"475 488 LINE SMOOTH",
"475 428 OFFCURVE",
"441 387 OFFCURVE",
"364 387 CURVE SMOOTH",
"158 387 LINE"
);
},
{
closed = 1;
nodes = (
"158 336 LINE",
"373 336 LINE SMOOTH",
"457 336 OFFCURVE",
"503 290 OFFCURVE",
"503 224 CURVE SMOOTH",
"503 187 LINE SMOOTH",
"503 121 OFFCURVE",
"457 75 OFFCURVE",
"373 75 CURVE SMOOTH",
"158 75 LINE"
);
}
);
width = 629;
}
);
note = uni20BF;
unicode = 20BF;
},
{
glyphname = fi;
lastChange = "2019-02-02 11:40:47 +0000";
layers = (
{
layerId = "1053487F-6E39-46EB-834B-3FE95151DC2D";
paths = (
{
closed = 1;
nodes = (
"117 0 LINE",
"174 0 LINE",
"174 462 LINE",
"395 462 LINE",
"395 0 LINE",
"452 0 LINE",
"452 512 LINE",
"174 512 LINE",
"174 690 LINE",
"287 690 LINE",
"287 740 LINE",
"197 740 LINE SMOOTH",
"143 740 OFFCURVE",
"117 707 OFFCURVE",
"117 655 CURVE SMOOTH",
"117 512 LINE",
"29 512 LINE",
"29 462 LINE",
"117 462 LINE"
);
},
{
closed = 1;
nodes = (
"451 651 OFFCURVE",
"463 666 OFFCURVE",
"463 687 CURVE SMOOTH",
"463 697 LINE SMOOTH",
"463 718 OFFCURVE",
"451 733 OFFCURVE",
"424 733 CURVE SMOOTH",
"396 733 OFFCURVE",
"385 718 OFFCURVE",
"385 697 CURVE SMOOTH",
"385 687 LINE SMOOTH",
"385 666 OFFCURVE",
"396 651 OFFCURVE",
"424 651 CURVE SMOOTH"
);
}
);
width = 546;
}
);
leftKerningGroup = f;
note = fi;
rightKerningGroup = i;
unicode = FB01;
},
{
glyphname = fl;
lastChange = "2019-02-02 11:40:47 +0000";
layers = (
{
layerId = "1053487F-6E39-46EB-834B-3FE95151DC2D";
paths = (
{
closed = 1;
nodes = (
"538 0 LINE",
"538 50 LINE",
"459 50 LINE",
"459 740 LINE",
"402 740 LINE",
"402 62 LINE SMOOTH",
"402 25 OFFCURVE",
"424 0 OFFCURVE",
"465 0 CURVE SMOOTH"
);
},
{
closed = 1;
nodes = (
"117 0 LINE",
"174 0 LINE",
"174 462 LINE",
"287 462 LINE",
"287 512 LINE",
"174 512 LINE",
"174 690 LINE",
"287 690 LINE",
"287 740 LINE",
"197 740 LINE SMOOTH",
"143 740 OFFCURVE",
"117 707 OFFCURVE",
"117 655 CURVE SMOOTH",
"117 512 LINE",
"29 512 LINE",
"29 462 LINE",
"117 462 LINE"
);
}
);
width = 573;
}
);
leftKerningGroup = f;
note = fl;
rightKerningGroup = l;
unicode = FB02;
},
{
glyphname = aacute;
lastChange = "2019-02-02 11:40:47 +0000";
layers = (
{
layerId = "1053487F-6E39-46EB-834B-3FE95151DC2D";
paths = (
{
closed = 1;
nodes = (
"358 742 LINE",
"306 768 LINE",
"211 604 LINE",
"248 586 LINE"
);
},
{
closed = 1;
nodes = (
"503 0 LINE",
"503 50 LINE",
"434 50 LINE",
"434 353 LINE SMOOTH",
"434 461 OFFCURVE",
"367 524 OFFCURVE",
"248 524 CURVE SMOOTH",
"155 524 OFFCURVE",
"98 480 OFFCURVE",
"70 421 CURVE",
"106 391 LINE",
"134 444 OFFCURVE",
"178 474 OFFCURVE",
"246 474 CURVE SMOOTH",
"333 474 OFFCURVE",
"377 431 OFFCURVE",
"377 347 CURVE SMOOTH",
"377 287 LINE",
"259 287 LINE SMOOTH",
"111 287 OFFCURVE",
"51 230 OFFCURVE",
"51 139 CURVE SMOOTH",
"51 44 OFFCURVE",
"113 -12 OFFCURVE",
"220 -12 CURVE SMOOTH",
"300 -12 OFFCURVE",
"352 24 OFFCURVE",
"375 81 CURVE",
"380 81 LINE",
"380 63 LINE",
"383 25 OFFCURVE",
"401 0 OFFCURVE",
"445 0 CURVE SMOOTH"
);
},
{
closed = 1;
nodes = (
"158 37 OFFCURVE",
"111 69 OFFCURVE",
"111 128 CURVE SMOOTH",
"111 152 LINE SMOOTH",
"111 209 OFFCURVE",
"155 244 OFFCURVE",
"257 244 CURVE SMOOTH",
"377 244 LINE",
"377 149 LINE SMOOTH",
"377 80 OFFCURVE",
"311 37 OFFCURVE",
"228 37 CURVE SMOOTH"
);
}
);
width = 528;
}
);
leftKerningGroup = a;
note = aacute;
rightKerningGroup = a;
unicode = 00E1;
},
{
glyphname = abreve;
lastChange = "2019-02-02 11:40:47 +0000";
layers = (
{
layerId = "1053487F-6E39-46EB-834B-3FE95151DC2D";
paths = (
{
closed = 1;
nodes = (
"343 600 OFFCURVE",
"370 660 OFFCURVE",
"395 722 CURVE",
"362 738 LINE",
"343 707 LINE SMOOTH",
"318 665 OFFCURVE",
"299 646 OFFCURVE",
"251 646 CURVE SMOOTH",
"203 646 OFFCURVE",
"184 665 OFFCURVE",
"159 707 CURVE SMOOTH",
"140 738 LINE",
"107 722 LINE",
"132 660 OFFCURVE",
"159 600 OFFCURVE",
"251 600 CURVE SMOOTH"
);
},
{
closed = 1;
nodes = (
"503 0 LINE",
"503 50 LINE",
"434 50 LINE",
"434 353 LINE SMOOTH",
"434 461 OFFCURVE",
"367 524 OFFCURVE",
"248 524 CURVE SMOOTH",
"155 524 OFFCURVE",
"98 480 OFFCURVE",
"70 421 CURVE",
"106 391 LINE",
"134 444 OFFCURVE",
"178 474 OFFCURVE",
"246 474 CURVE SMOOTH",
"333 474 OFFCURVE",
"377 431 OFFCURVE",
"377 347 CURVE SMOOTH",
"377 287 LINE",
"259 287 LINE SMOOTH",
"111 287 OFFCURVE",
"51 230 OFFCURVE",
"51 139 CURVE SMOOTH",
"51 44 OFFCURVE",
"113 -12 OFFCURVE",
"220 -12 CURVE SMOOTH",
"300 -12 OFFCURVE",
"352 24 OFFCURVE",
"375 81 CURVE",
"380 81 LINE",
"380 63 LINE",
"383 25 OFFCURVE",
"401 0 OFFCURVE",
"445 0 CURVE SMOOTH"
);
},
{
closed = 1;
nodes = (
"158 37 OFFCURVE",
"111 69 OFFCURVE",
"111 128 CURVE SMOOTH",
"111 152 LINE SMOOTH",
"111 209 OFFCURVE",
"155 244 OFFCURVE",
"257 244 CURVE SMOOTH",
"377 244 LINE",
"377 149 LINE SMOOTH",
"377 80 OFFCURVE",
"311 37 OFFCURVE",
"228 37 CURVE SMOOTH"
);
}
);
width = 528;
}
);
leftKerningGroup = a;
note = abreve;
rightKerningGroup = a;
unicode = 0103;
},
{
glyphname = acircumflex;
lastChange = "2019-02-02 11:40:47 +0000";
layers = (
{
layerId = "1053487F-6E39-46EB-834B-3FE95151DC2D";
paths = (
{
closed = 1;
nodes = (
"216 756 LINE",
"98 617 LINE",
"130 594 LINE",
"251 715 LINE",
"372 594 LINE",
"404 617 LINE",
"286 756 LINE"
);
},
{
closed = 1;
nodes = (
"503 0 LINE",
"503 50 LINE",
"434 50 LINE",
"434 353 LINE SMOOTH",
"434 461 OFFCURVE",
"367 524 OFFCURVE",
"248 524 CURVE SMOOTH",
"155 524 OFFCURVE",
"98 480 OFFCURVE",
"70 421 CURVE",
"106 391 LINE",
"134 444 OFFCURVE",
"178 474 OFFCURVE",
"246 474 CURVE SMOOTH",
"333 474 OFFCURVE",
"377 431 OFFCURVE",
"377 347 CURVE SMOOTH",
"377 287 LINE",
"259 287 LINE SMOOTH",
"111 287 OFFCURVE",
"51 230 OFFCURVE",
"51 139 CURVE SMOOTH",
"51 44 OFFCURVE",
"113 -12 OFFCURVE",
"220 -12 CURVE SMOOTH",
"300 -12 OFFCURVE",
"352 24 OFFCURVE",
"375 81 CURVE",
"380 81 LINE",
"380 63 LINE",
"383 25 OFFCURVE",
"401 0 OFFCURVE",
"445 0 CURVE SMOOTH"
);
},
{
closed = 1;
nodes = (
"158 37 OFFCURVE",
"111 69 OFFCURVE",
"111 128 CURVE SMOOTH",
"111 152 LINE SMOOTH",
"111 209 OFFCURVE",
"155 244 OFFCURVE",
"257 244 CURVE SMOOTH",
"377 244 LINE",
"377 149 LINE SMOOTH",
"377 80 OFFCURVE",
"311 37 OFFCURVE",
"228 37 CURVE SMOOTH"
);
}
);
width = 528;
}
);
leftKerningGroup = a;
note = acircumflex;
rightKerningGroup = a;
unicode = 00E2;
},
{
glyphname = adieresis;
lastChange = "2019-02-02 11:40:47 +0000";
layers = (
{
layerId = "1053487F-6E39-46EB-834B-3FE95151DC2D";
paths = (
{
closed = 1;
nodes = (
"186 627 OFFCURVE",
"198 642 OFFCURVE",
"198 663 CURVE SMOOTH",
"198 673 LINE SMOOTH",
"198 694 OFFCURVE",
"186 709 OFFCURVE",
"159 709 CURVE SMOOTH",
"131 709 OFFCURVE",
"120 694 OFFCURVE",
"120 673 CURVE SMOOTH",
"120 663 LINE SMOOTH",
"120 642 OFFCURVE",
"131 627 OFFCURVE",
"159 627 CURVE SMOOTH"
);
},
{
closed = 1;
nodes = (
"371 627 OFFCURVE",
"382 642 OFFCURVE",
"382 663 CURVE SMOOTH",
"382 673 LINE SMOOTH",
"382 694 OFFCURVE",
"371 709 OFFCURVE",
"343 709 CURVE SMOOTH",
"316 709 OFFCURVE",
"304 694 OFFCURVE",
"304 673 CURVE SMOOTH",
"304 663 LINE SMOOTH",
"304 642 OFFCURVE",
"316 627 OFFCURVE",
"343 627 CURVE SMOOTH"
);
},
{
closed = 1;
nodes = (
"503 0 LINE",
"503 50 LINE",
"434 50 LINE",
"434 353 LINE SMOOTH",
"434 461 OFFCURVE",
"367 524 OFFCURVE",
"248 524 CURVE SMOOTH",
"155 524 OFFCURVE",
"98 480 OFFCURVE",
"70 421 CURVE",
"106 391 LINE",
"134 444 OFFCURVE",
"178 474 OFFCURVE",
"246 474 CURVE SMOOTH",
"333 474 OFFCURVE",
"377 431 OFFCURVE",
"377 347 CURVE SMOOTH",
"377 287 LINE",
"259 287 LINE SMOOTH",
"111 287 OFFCURVE",
"51 230 OFFCURVE",
"51 139 CURVE SMOOTH",
"51 44 OFFCURVE",
"113 -12 OFFCURVE",
"220 -12 CURVE SMOOTH",
"300 -12 OFFCURVE",
"352 24 OFFCURVE",
"375 81 CURVE",
"380 81 LINE",
"380 63 LINE",
"383 25 OFFCURVE",
"401 0 OFFCURVE",
"445 0 CURVE SMOOTH"
);
},
{
closed = 1;
nodes = (
"158 37 OFFCURVE",
"111 69 OFFCURVE",
"111 128 CURVE SMOOTH",
"111 152 LINE SMOOTH",
"111 209 OFFCURVE",
"155 244 OFFCURVE",
"257 244 CURVE SMOOTH",
"377 244 LINE",
"377 149 LINE SMOOTH",
"377 80 OFFCURVE",
"311 37 OFFCURVE",
"228 37 CURVE SMOOTH"
);
}
);
width = 528;
}
);
leftKerningGroup = a;
note = adieresis;
rightKerningGroup = a;
unicode = 00E4;
},
{
glyphname = uni1EA1;
lastChange = "2019-02-02 11:40:47 +0000";
layers = (
{
layerId = "1053487F-6E39-46EB-834B-3FE95151DC2D";
paths = (
{
closed = 1;
nodes = (
"264 -155 OFFCURVE",
"277 -140 OFFCURVE",
"277 -118 CURVE SMOOTH",
"277 -110 LINE SMOOTH",
"277 -88 OFFCURVE",
"264 -73 OFFCURVE",
"237 -73 CURVE SMOOTH",
"210 -73 OFFCURVE",
"197 -88 OFFCURVE",
"197 -110 CURVE SMOOTH",
"197 -118 LINE SMOOTH",
"197 -140 OFFCURVE",
"210 -155 OFFCURVE",
"237 -155 CURVE SMOOTH"
);
},
{
closed = 1;
nodes = (
"503 0 LINE",
"503 50 LINE",
"434 50 LINE",
"434 353 LINE SMOOTH",
"434 461 OFFCURVE",
"367 524 OFFCURVE",
"248 524 CURVE SMOOTH",
"155 524 OFFCURVE",
"98 480 OFFCURVE",
"70 421 CURVE",
"106 391 LINE",
"134 444 OFFCURVE",
"178 474 OFFCURVE",
"246 474 CURVE SMOOTH",
"333 474 OFFCURVE",
"377 431 OFFCURVE",
"377 347 CURVE SMOOTH",
"377 287 LINE",
"259 287 LINE SMOOTH",
"111 287 OFFCURVE",
"51 230 OFFCURVE",
"51 139 CURVE SMOOTH",
"51 44 OFFCURVE",
"113 -12 OFFCURVE",
"220 -12 CURVE SMOOTH",
"300 -12 OFFCURVE",
"352 24 OFFCURVE",
"375 81 CURVE",
"380 81 LINE",
"380 63 LINE",
"383 25 OFFCURVE",
"401 0 OFFCURVE",
"445 0 CURVE SMOOTH"
);
},
{
closed = 1;
nodes = (
"158 37 OFFCURVE",
"111 69 OFFCURVE",
"111 128 CURVE SMOOTH",
"111 152 LINE SMOOTH",
"111 209 OFFCURVE",
"155 244 OFFCURVE",
"257 244 CURVE SMOOTH",
"377 244 LINE",
"377 149 LINE SMOOTH",
"377 80 OFFCURVE",
"311 37 OFFCURVE",
"228 37 CURVE SMOOTH"
);
}
);
width = 528;
}
);
leftKerningGroup = a;
note = uni1EA1;
rightKerningGroup = a;
unicode = 1EA1;
},
{
glyphname = agrave;
lastChange = "2019-02-02 11:40:47 +0000";
layers = (
{
layerId = "1053487F-6E39-46EB-834B-3FE95151DC2D";
paths = (
{
closed = 1;
nodes = (
"253 586 LINE",
"291 604 LINE",
"196 768 LINE",
"144 742 LINE"
);
},
{
closed = 1;
nodes = (
"503 0 LINE",
"503 50 LINE",
"434 50 LINE",
"434 353 LINE SMOOTH",
"434 461 OFFCURVE",
"367 524 OFFCURVE",
"248 524 CURVE SMOOTH",
"155 524 OFFCURVE",
"98 480 OFFCURVE",
"70 421 CURVE",
"106 391 LINE",
"134 444 OFFCURVE",
"178 474 OFFCURVE",
"246 474 CURVE SMOOTH",
"333 474 OFFCURVE",
"377 431 OFFCURVE",
"377 347 CURVE SMOOTH",
"377 287 LINE",
"259 287 LINE SMOOTH",
"111 287 OFFCURVE",
"51 230 OFFCURVE",
"51 139 CURVE SMOOTH",
"51 44 OFFCURVE",
"113 -12 OFFCURVE",
"220 -12 CURVE SMOOTH",
"300 -12 OFFCURVE",
"352 24 OFFCURVE",
"375 81 CURVE",
"380 81 LINE",
"380 63 LINE",
"383 25 OFFCURVE",
"401 0 OFFCURVE",
"445 0 CURVE SMOOTH"
);
},
{
closed = 1;
nodes = (
"158 37 OFFCURVE",
"111 69 OFFCURVE",
"111 128 CURVE SMOOTH",
"111 152 LINE SMOOTH",
"111 209 OFFCURVE",
"155 244 OFFCURVE",
"257 244 CURVE SMOOTH",
"377 244 LINE",
"377 149 LINE SMOOTH",
"377 80 OFFCURVE",
"311 37 OFFCURVE",
"228 37 CURVE SMOOTH"
);
}
);
width = 528;
}
);
leftKerningGroup = a;
note = agrave;
rightKerningGroup = a;
unicode = 00E0;
},
{
glyphname = uni1EA3;
lastChange = "2019-02-02 11:40:47 +0000";
layers = (
{
layerId = "1053487F-6E39-46EB-834B-3FE95151DC2D";
paths = (
{
closed = 1;
nodes = (
"171 710 LINE",
"298 710 LINE",
"232 597 LINE",
"267 580 LINE",
"301 628 LINE SMOOTH",
"330 667 OFFCURVE",
"342 693 OFFCURVE",
"342 714 CURVE SMOOTH",
"342 736 OFFCURVE",
"328 754 OFFCURVE",
"291 754 CURVE SMOOTH",
"171 754 LINE"
);
},
{
closed = 1;
nodes = (
"503 0 LINE",
"503 50 LINE",
"434 50 LINE",
"434 353 LINE SMOOTH",
"434 461 OFFCURVE",
"367 524 OFFCURVE",
"248 524 CURVE SMOOTH",
"155 524 OFFCURVE",
"98 480 OFFCURVE",
"70 421 CURVE",
"106 391 LINE",
"134 444 OFFCURVE",
"178 474 OFFCURVE",
"246 474 CURVE SMOOTH",
"333 474 OFFCURVE",
"377 431 OFFCURVE",
"377 347 CURVE SMOOTH",
"377 287 LINE",
"259 287 LINE SMOOTH",
"111 287 OFFCURVE",
"51 230 OFFCURVE",
"51 139 CURVE SMOOTH",
"51 44 OFFCURVE",
"113 -12 OFFCURVE",
"220 -12 CURVE SMOOTH",
"300 -12 OFFCURVE",
"352 24 OFFCURVE",
"375 81 CURVE",
"380 81 LINE",
"380 63 LINE",
"383 25 OFFCURVE",
"401 0 OFFCURVE",
"445 0 CURVE SMOOTH"
);
},
{
closed = 1;
nodes = (
"158 37 OFFCURVE",
"111 69 OFFCURVE",
"111 128 CURVE SMOOTH",
"111 152 LINE SMOOTH",
"111 209 OFFCURVE",
"155 244 OFFCURVE",
"257 244 CURVE SMOOTH",
"377 244 LINE",
"377 149 LINE SMOOTH",
"377 80 OFFCURVE",
"311 37 OFFCURVE",
"228 37 CURVE SMOOTH"
);
}
);
width = 528;
}
);
leftKerningGroup = a;
note = uni1EA3;
rightKerningGroup = a;
unicode = 1EA3;
},
{
glyphname = amacron;
lastChange = "2019-02-02 11:40:47 +0000";
layers = (
{
layerId = "1053487F-6E39-46EB-834B-3FE95151DC2D";
paths = (
{
closed = 1;
nodes = (
"115 645 LINE",
"387 645 LINE",
"387 694 LINE",
"115 694 LINE"
);
},
{
closed = 1;
nodes = (
"503 0 LINE",
"503 50 LINE",
"434 50 LINE",
"434 353 LINE SMOOTH",
"434 461 OFFCURVE",
"367 524 OFFCURVE",
"248 524 CURVE SMOOTH",
"155 524 OFFCURVE",
"98 480 OFFCURVE",
"70 421 CURVE",
"106 391 LINE",
"134 444 OFFCURVE",
"178 474 OFFCURVE",
"246 474 CURVE SMOOTH",
"333 474 OFFCURVE",
"377 431 OFFCURVE",
"377 347 CURVE SMOOTH",
"377 287 LINE",
"259 287 LINE SMOOTH",
"111 287 OFFCURVE",
"51 230 OFFCURVE",
"51 139 CURVE SMOOTH",
"51 44 OFFCURVE",
"113 -12 OFFCURVE",
"220 -12 CURVE SMOOTH",
"300 -12 OFFCURVE",
"352 24 OFFCURVE",
"375 81 CURVE",
"380 81 LINE",
"380 63 LINE",
"383 25 OFFCURVE",
"401 0 OFFCURVE",
"445 0 CURVE SMOOTH"
);
},
{
closed = 1;
nodes = (
"158 37 OFFCURVE",
"111 69 OFFCURVE",
"111 128 CURVE SMOOTH",
"111 152 LINE SMOOTH",
"111 209 OFFCURVE",
"155 244 OFFCURVE",
"257 244 CURVE SMOOTH",
"377 244 LINE",
"377 149 LINE SMOOTH",
"377 80 OFFCURVE",
"311 37 OFFCURVE",
"228 37 CURVE SMOOTH"
);
}
);
width = 528;
}
);
leftKerningGroup = a;
note = amacron;
rightKerningGroup = a;
unicode = 0101;
},
{
glyphname = aogonek;
lastChange = "2019-02-02 11:40:47 +0000";
layers = (
{
layerId = "1053487F-6E39-46EB-834B-3FE95151DC2D";
paths = (
{
closed = 1;
nodes = (
"491 -141 LINE",
"480 -155 OFFCURVE",
"462 -165 OFFCURVE",
"438 -165 CURVE SMOOTH",
"414 -165 OFFCURVE",
"396 -154 OFFCURVE",
"396 -127 CURVE SMOOTH",
"396 -94 OFFCURVE",
"420 -67 OFFCURVE",
"503 0 CURVE",
"503 50 LINE",
"434 50 LINE",
"434 353 LINE SMOOTH",
"434 461 OFFCURVE",
"367 524 OFFCURVE",
"248 524 CURVE SMOOTH",
"155 524 OFFCURVE",
"98 480 OFFCURVE",
"70 421 CURVE",
"106 391 LINE",
"134 444 OFFCURVE",
"178 473 OFFCURVE",
"246 473 CURVE SMOOTH",
"333 473 OFFCURVE",
"377 431 OFFCURVE",
"377 347 CURVE SMOOTH",
"377 287 LINE",
"259 287 LINE SMOOTH",
"111 287 OFFCURVE",
"51 230 OFFCURVE",
"51 139 CURVE SMOOTH",
"51 44 OFFCURVE",
"113 -12 OFFCURVE",
"220 -12 CURVE SMOOTH",
"300 -12 OFFCURVE",
"352 24 OFFCURVE",
"375 81 CURVE",
"380 81 LINE",
"380 66 LINE SMOOTH",
"380 28 OFFCURVE",
"404 0 OFFCURVE",
"443 0 CURVE SMOOTH",
"455 0 LINE",
"456 -2 LINE",
"387 -47 OFFCURVE",
"349 -88 OFFCURVE",
"349 -134 CURVE SMOOTH",
"349 -183 OFFCURVE",
"389 -205 OFFCURVE",
"438 -205 CURVE SMOOTH",
"480 -205 OFFCURVE",
"509 -189 OFFCURVE",
"521 -169 CURVE"
);
},
{
closed = 1;
nodes = (
"158 37 OFFCURVE",
"111 69 OFFCURVE",
"111 128 CURVE SMOOTH",
"111 152 LINE SMOOTH",
"111 209 OFFCURVE",
"155 244 OFFCURVE",
"257 244 CURVE SMOOTH",
"377 244 LINE",
"377 149 LINE SMOOTH",
"377 80 OFFCURVE",
"311 37 OFFCURVE",
"228 37 CURVE SMOOTH"
);
}
);
width = 527;
}
);
leftKerningGroup = a;
note = aogonek;
rightKerningGroup = a;
unicode = 0105;
},
{
glyphname = aring;
lastChange = "2019-02-02 11:40:47 +0000";
layers = (
{
layerId = "1053487F-6E39-46EB-834B-3FE95151DC2D";
paths = (
{
closed = 1;
nodes = (
"312 581 OFFCURVE",
"357 625 OFFCURVE",
"357 687 CURVE SMOOTH",
"357 748 OFFCURVE",
"312 792 OFFCURVE",
"251 792 CURVE SMOOTH",
"190 792 OFFCURVE",
"145 748 OFFCURVE",
"145 687 CURVE SMOOTH",
"145 625 OFFCURVE",
"190 581 OFFCURVE",
"251 581 CURVE SMOOTH"
);
},
{
closed = 1;
nodes = (
"212 618 OFFCURVE",
"188 641 OFFCURVE",
"188 678 CURVE SMOOTH",
"188 695 LINE SMOOTH",
"188 733 OFFCURVE",
"212 755 OFFCURVE",
"251 755 CURVE SMOOTH",
"290 755 OFFCURVE",
"314 733 OFFCURVE",
"314 695 CURVE SMOOTH",
"314 678 LINE SMOOTH",
"314 641 OFFCURVE",
"290 618 OFFCURVE",
"251 618 CURVE SMOOTH"
);
},
{
closed = 1;
nodes = (
"503 0 LINE",
"503 50 LINE",
"434 50 LINE",
"434 353 LINE SMOOTH",
"434 461 OFFCURVE",
"367 524 OFFCURVE",
"248 524 CURVE SMOOTH",
"155 524 OFFCURVE",
"98 480 OFFCURVE",
"70 421 CURVE",
"106 391 LINE",
"134 444 OFFCURVE",
"178 474 OFFCURVE",
"246 474 CURVE SMOOTH",
"333 474 OFFCURVE",
"377 431 OFFCURVE",
"377 347 CURVE SMOOTH",
"377 287 LINE",
"259 287 LINE SMOOTH",
"111 287 OFFCURVE",
"51 230 OFFCURVE",
"51 139 CURVE SMOOTH",
"51 44 OFFCURVE",
"113 -12 OFFCURVE",
"220 -12 CURVE SMOOTH",
"300 -12 OFFCURVE",
"352 24 OFFCURVE",
"375 81 CURVE",
"380 81 LINE",
"380 63 LINE",
"383 25 OFFCURVE",
"401 0 OFFCURVE",
"445 0 CURVE SMOOTH"
);
},
{
closed = 1;
nodes = (
"158 37 OFFCURVE",
"111 69 OFFCURVE",
"111 128 CURVE SMOOTH",
"111 152 LINE SMOOTH",
"111 209 OFFCURVE",
"155 244 OFFCURVE",
"257 244 CURVE SMOOTH",
"377 244 LINE",
"377 149 LINE SMOOTH",
"377 80 OFFCURVE",
"311 37 OFFCURVE",
"228 37 CURVE SMOOTH"
);
}
);
width = 528;
}
);
leftKerningGroup = a;
note = aring;
rightKerningGroup = a;
unicode = 00E5;
},
{
glyphname = aringacute;
lastChange = "2019-02-02 11:40:47 +0000";
layers = (
{
layerId = "1053487F-6E39-46EB-834B-3FE95151DC2D";
paths = (
{
closed = 1;
nodes = (
"348 911 LINE",
"304 938 LINE",
"227 828 LINE",
"258 808 LINE"
);
},
{
closed = 1;
nodes = (
"312 575 OFFCURVE",
"357 619 OFFCURVE",
"357 681 CURVE SMOOTH",
"357 742 OFFCURVE",
"312 786 OFFCURVE",
"251 786 CURVE SMOOTH",
"190 786 OFFCURVE",
"145 742 OFFCURVE",
"145 681 CURVE SMOOTH",
"145 619 OFFCURVE",
"190 575 OFFCURVE",
"251 575 CURVE SMOOTH"
);
},
{
closed = 1;
nodes = (
"212 612 OFFCURVE",
"188 635 OFFCURVE",
"188 672 CURVE SMOOTH",
"188 689 LINE SMOOTH",
"188 727 OFFCURVE",
"212 749 OFFCURVE",
"251 749 CURVE SMOOTH",
"290 749 OFFCURVE",
"314 727 OFFCURVE",
"314 689 CURVE SMOOTH",
"314 672 LINE SMOOTH",
"314 635 OFFCURVE",
"290 612 OFFCURVE",
"251 612 CURVE SMOOTH"
);
},
{
closed = 1;
nodes = (
"503 0 LINE",
"503 50 LINE",
"434 50 LINE",
"434 353 LINE SMOOTH",
"434 461 OFFCURVE",
"367 524 OFFCURVE",
"248 524 CURVE SMOOTH",
"155 524 OFFCURVE",
"98 480 OFFCURVE",
"70 421 CURVE",
"106 391 LINE",
"134 444 OFFCURVE",
"178 474 OFFCURVE",
"246 474 CURVE SMOOTH",
"333 474 OFFCURVE",
"377 431 OFFCURVE",
"377 347 CURVE SMOOTH",
"377 287 LINE",
"259 287 LINE SMOOTH",
"111 287 OFFCURVE",
"51 230 OFFCURVE",
"51 139 CURVE SMOOTH",
"51 44 OFFCURVE",
"113 -12 OFFCURVE",
"220 -12 CURVE SMOOTH",
"300 -12 OFFCURVE",
"352 24 OFFCURVE",
"375 81 CURVE",
"380 81 LINE",
"380 63 LINE",
"383 25 OFFCURVE",
"401 0 OFFCURVE",
"445 0 CURVE SMOOTH"
);
},
{
closed = 1;
nodes = (
"158 37 OFFCURVE",
"111 69 OFFCURVE",
"111 128 CURVE SMOOTH",
"111 152 LINE SMOOTH",
"111 209 OFFCURVE",
"155 244 OFFCURVE",
"257 244 CURVE SMOOTH",
"377 244 LINE",
"377 149 LINE SMOOTH",
"377 80 OFFCURVE",
"311 37 OFFCURVE",
"228 37 CURVE SMOOTH"
);
}
);
width = 528;
}
);
leftKerningGroup = a;
note = aringacute;
rightKerningGroup = a;
unicode = 01FB;
},
{
glyphname = atilde;
lastChange = "2019-02-02 11:40:47 +0000";
layers = (
{
layerId = "1053487F-6E39-46EB-834B-3FE95151DC2D";
paths = (
{
closed = 1;
nodes = (
"362 618 OFFCURVE",
"391 639 OFFCURVE",
"412 666 CURVE",
"387 695 LINE",
"366 676 OFFCURVE",
"349 665 OFFCURVE",
"326 665 CURVE SMOOTH",
"308 665 OFFCURVE",
"288 672 OFFCURVE",
"258 690 CURVE SMOOTH",
"232 706 OFFCURVE",
"209 718 OFFCURVE",
"179 718 CURVE SMOOTH",
"140 718 OFFCURVE",
"111 697 OFFCURVE",
"90 670 CURVE",
"115 641 LINE",
"136 660 OFFCURVE",
"153 671 OFFCURVE",
"176 671 CURVE SMOOTH",
"194 671 OFFCURVE",
"214 664 OFFCURVE",
"244 646 CURVE SMOOTH",
"270 630 OFFCURVE",
"293 618 OFFCURVE",
"323 618 CURVE SMOOTH"
);
},
{
closed = 1;
nodes = (
"503 0 LINE",
"503 50 LINE",
"434 50 LINE",
"434 353 LINE SMOOTH",
"434 461 OFFCURVE",
"367 524 OFFCURVE",
"248 524 CURVE SMOOTH",
"155 524 OFFCURVE",
"98 480 OFFCURVE",
"70 421 CURVE",
"106 391 LINE",
"134 444 OFFCURVE",
"178 474 OFFCURVE",
"246 474 CURVE SMOOTH",
"333 474 OFFCURVE",
"377 431 OFFCURVE",
"377 347 CURVE SMOOTH",
"377 287 LINE",
"259 287 LINE SMOOTH",
"111 287 OFFCURVE",
"51 230 OFFCURVE",
"51 139 CURVE SMOOTH",
"51 44 OFFCURVE",
"113 -12 OFFCURVE",
"220 -12 CURVE SMOOTH",
"300 -12 OFFCURVE",
"352 24 OFFCURVE",
"375 81 CURVE",
"380 81 LINE",
"380 63 LINE",
"383 25 OFFCURVE",
"401 0 OFFCURVE",
"445 0 CURVE SMOOTH"
);
},
{
closed = 1;
nodes = (
"158 37 OFFCURVE",
"111 69 OFFCURVE",
"111 128 CURVE SMOOTH",
"111 152 LINE SMOOTH",
"111 209 OFFCURVE",
"155 244 OFFCURVE",
"257 244 CURVE SMOOTH",
"377 244 LINE",
"377 149 LINE SMOOTH",
"377 80 OFFCURVE",
"311 37 OFFCURVE",
"228 37 CURVE SMOOTH"
);
}
);
width = 528;
}
);
leftKerningGroup = a;
note = atilde;
rightKerningGroup = a;
unicode = 00E3;
},
{
glyphname = uni1EAF;
lastChange = "2019-02-02 11:40:47 +0000";
layers = (
{
layerId = "1053487F-6E39-46EB-834B-3FE95151DC2D";
paths = (
{
closed = 1;
nodes = (
"343 589 OFFCURVE",
"372 647 OFFCURVE",
"396 707 CURVE",
"363 723 LINE",
"344 693 LINE SMOOTH",
"320 653 OFFCURVE",
"299 632 OFFCURVE",
"251 632 CURVE SMOOTH",
"203 632 OFFCURVE",
"182 653 OFFCURVE",
"158 693 CURVE SMOOTH",
"139 723 LINE",
"106 707 LINE",
"130 647 OFFCURVE",
"159 589 OFFCURVE",
"251 589 CURVE SMOOTH"
);
},
{
closed = 1;
nodes = (
"359 854 LINE",
"309 879 LINE",
"214 716 LINE",
"250 698 LINE"
);
},
{
closed = 1;
nodes = (
"503 0 LINE",
"503 50 LINE",
"434 50 LINE",
"434 353 LINE SMOOTH",
"434 461 OFFCURVE",
"367 524 OFFCURVE",
"248 524 CURVE SMOOTH",
"155 524 OFFCURVE",
"98 480 OFFCURVE",
"70 421 CURVE",
"106 391 LINE",
"134 444 OFFCURVE",
"178 474 OFFCURVE",
"246 474 CURVE SMOOTH",
"333 474 OFFCURVE",
"377 431 OFFCURVE",
"377 347 CURVE SMOOTH",
"377 287 LINE",
"259 287 LINE SMOOTH",
"111 287 OFFCURVE",
"51 230 OFFCURVE",
"51 139 CURVE SMOOTH",
"51 44 OFFCURVE",
"113 -12 OFFCURVE",
"220 -12 CURVE SMOOTH",
"300 -12 OFFCURVE",
"352 24 OFFCURVE",
"375 81 CURVE",
"380 81 LINE",
"380 63 LINE",
"383 25 OFFCURVE",
"401 0 OFFCURVE",
"445 0 CURVE SMOOTH"
);
},
{
closed = 1;
nodes = (
"158 37 OFFCURVE",
"111 69 OFFCURVE",
"111 128 CURVE SMOOTH",
"111 152 LINE SMOOTH",
"111 209 OFFCURVE",
"155 244 OFFCURVE",
"257 244 CURVE SMOOTH",
"377 244 LINE",
"377 149 LINE SMOOTH",
"377 80 OFFCURVE",
"311 37 OFFCURVE",
"228 37 CURVE SMOOTH"
);
}
);
width = 528;
}
);
leftKerningGroup = a;
note = uni1EAF;
rightKerningGroup = a;
unicode = 1EAF;
},
{
glyphname = uni1EB7;
lastChange = "2019-02-02 11:40:47 +0000";
layers = (
{
layerId = "1053487F-6E39-46EB-834B-3FE95151DC2D";
paths = (
{
closed = 1;
nodes = (
"264 -155 OFFCURVE",
"277 -140 OFFCURVE",
"277 -118 CURVE SMOOTH",
"277 -110 LINE SMOOTH",
"277 -88 OFFCURVE",
"264 -73 OFFCURVE",
"237 -73 CURVE SMOOTH",
"210 -73 OFFCURVE",
"197 -88 OFFCURVE",
"197 -110 CURVE SMOOTH",
"197 -118 LINE SMOOTH",
"197 -140 OFFCURVE",
"210 -155 OFFCURVE",
"237 -155 CURVE SMOOTH"
);
},
{
closed = 1;
nodes = (
"343 600 OFFCURVE",
"370 660 OFFCURVE",
"395 722 CURVE",
"362 738 LINE",
"343 707 LINE SMOOTH",
"318 665 OFFCURVE",
"299 646 OFFCURVE",
"251 646 CURVE SMOOTH",
"203 646 OFFCURVE",
"184 665 OFFCURVE",
"159 707 CURVE SMOOTH",
"140 738 LINE",
"107 722 LINE",
"132 660 OFFCURVE",
"159 600 OFFCURVE",
"251 600 CURVE SMOOTH"
);
},
{
closed = 1;
nodes = (
"503 0 LINE",
"503 50 LINE",
"434 50 LINE",
"434 353 LINE SMOOTH",
"434 461 OFFCURVE",
"367 524 OFFCURVE",
"248 524 CURVE SMOOTH",
"155 524 OFFCURVE",
"98 480 OFFCURVE",
"70 421 CURVE",
"106 391 LINE",
"134 444 OFFCURVE",
"178 474 OFFCURVE",
"246 474 CURVE SMOOTH",
"333 474 OFFCURVE",
"377 431 OFFCURVE",
"377 347 CURVE SMOOTH",
"377 287 LINE",
"259 287 LINE SMOOTH",
"111 287 OFFCURVE",
"51 230 OFFCURVE",
"51 139 CURVE SMOOTH",
"51 44 OFFCURVE",
"113 -12 OFFCURVE",
"220 -12 CURVE SMOOTH",
"300 -12 OFFCURVE",
"352 24 OFFCURVE",
"375 81 CURVE",
"380 81 LINE",
"380 63 LINE",
"383 25 OFFCURVE",
"401 0 OFFCURVE",
"445 0 CURVE SMOOTH"
);
},
{
closed = 1;
nodes = (
"158 37 OFFCURVE",
"111 69 OFFCURVE",
"111 128 CURVE SMOOTH",
"111 152 LINE SMOOTH",
"111 209 OFFCURVE",
"155 244 OFFCURVE",
"257 244 CURVE SMOOTH",
"377 244 LINE",
"377 149 LINE SMOOTH",
"377 80 OFFCURVE",
"311 37 OFFCURVE",
"228 37 CURVE SMOOTH"
);
}
);
width = 528;
}
);
leftKerningGroup = a;
note = uni1EB7;
rightKerningGroup = a;
unicode = 1EB7;
},
{
glyphname = uni1EB1;
lastChange = "2019-02-02 11:40:47 +0000";
layers = (
{
layerId = "1053487F-6E39-46EB-834B-3FE95151DC2D";
paths = (
{
closed = 1;
nodes = (
"343 589 OFFCURVE",
"372 647 OFFCURVE",
"396 707 CURVE",
"363 723 LINE",
"344 693 LINE SMOOTH",
"320 653 OFFCURVE",
"299 632 OFFCURVE",
"251 632 CURVE SMOOTH",
"203 632 OFFCURVE",
"182 653 OFFCURVE",
"158 693 CURVE SMOOTH",
"139 723 LINE",
"106 707 LINE",
"130 647 OFFCURVE",
"159 589 OFFCURVE",
"251 589 CURVE SMOOTH"
);
},
{
closed = 1;
nodes = (
"252 698 LINE",
"288 716 LINE",
"193 879 LINE",
"143 854 LINE"
);
},
{
closed = 1;
nodes = (
"503 0 LINE",
"503 50 LINE",
"434 50 LINE",
"434 353 LINE SMOOTH",
"434 461 OFFCURVE",
"367 524 OFFCURVE",
"248 524 CURVE SMOOTH",
"155 524 OFFCURVE",
"98 480 OFFCURVE",
"70 421 CURVE",
"106 391 LINE",
"134 444 OFFCURVE",
"178 474 OFFCURVE",
"246 474 CURVE SMOOTH",
"333 474 OFFCURVE",
"377 431 OFFCURVE",
"377 347 CURVE SMOOTH",
"377 287 LINE",
"259 287 LINE SMOOTH",
"111 287 OFFCURVE",
"51 230 OFFCURVE",
"51 139 CURVE SMOOTH",
"51 44 OFFCURVE",
"113 -12 OFFCURVE",
"220 -12 CURVE SMOOTH",
"300 -12 OFFCURVE",
"352 24 OFFCURVE",
"375 81 CURVE",
"380 81 LINE",
"380 63 LINE",
"383 25 OFFCURVE",
"401 0 OFFCURVE",
"445 0 CURVE SMOOTH"
);
},
{
closed = 1;
nodes = (
"158 37 OFFCURVE",
"111 69 OFFCURVE",
"111 128 CURVE SMOOTH",
"111 152 LINE SMOOTH",
"111 209 OFFCURVE",
"155 244 OFFCURVE",
"257 244 CURVE SMOOTH",
"377 244 LINE",
"377 149 LINE SMOOTH",
"377 80 OFFCURVE",
"311 37 OFFCURVE",
"228 37 CURVE SMOOTH"
);
}
);
width = 528;
}
);
leftKerningGroup = a;
note = uni1EB1;
rightKerningGroup = a;
unicode = 1EB1;
},
{
glyphname = uni1EB3;
lastChange = "2019-02-02 11:40:47 +0000";
layers = (
{
layerId = "1053487F-6E39-46EB-834B-3FE95151DC2D";
paths = (
{
closed = 1;
nodes = (
"343 589 OFFCURVE",
"372 647 OFFCURVE",
"396 707 CURVE",
"363 723 LINE",
"344 693 LINE SMOOTH",
"320 653 OFFCURVE",
"299 632 OFFCURVE",
"251 632 CURVE SMOOTH",
"203 632 OFFCURVE",
"182 653 OFFCURVE",
"158 693 CURVE SMOOTH",
"139 723 LINE",
"106 707 LINE",
"130 647 OFFCURVE",
"159 589 OFFCURVE",
"251 589 CURVE SMOOTH"
);
},
{
closed = 1;
nodes = (
"168 825 LINE",
"288 825 LINE",
"221 710 LINE",
"255 693 LINE",
"288 741 LINE SMOOTH",
"317 781 OFFCURVE",
"330 806 OFFCURVE",
"330 827 CURVE SMOOTH",
"330 849 OFFCURVE",
"316 867 OFFCURVE",
"279 867 CURVE SMOOTH",
"168 867 LINE"
);
},
{
closed = 1;
nodes = (
"503 0 LINE",
"503 50 LINE",
"434 50 LINE",
"434 353 LINE SMOOTH",
"434 461 OFFCURVE",
"367 524 OFFCURVE",
"248 524 CURVE SMOOTH",
"155 524 OFFCURVE",
"98 480 OFFCURVE",
"70 421 CURVE",
"106 391 LINE",
"134 444 OFFCURVE",
"178 474 OFFCURVE",
"246 474 CURVE SMOOTH",
"333 474 OFFCURVE",
"377 431 OFFCURVE",
"377 347 CURVE SMOOTH",
"377 287 LINE",
"259 287 LINE SMOOTH",
"111 287 OFFCURVE",
"51 230 OFFCURVE",
"51 139 CURVE SMOOTH",
"51 44 OFFCURVE",
"113 -12 OFFCURVE",
"220 -12 CURVE SMOOTH",
"300 -12 OFFCURVE",
"352 24 OFFCURVE",
"375 81 CURVE",
"380 81 LINE",
"380 63 LINE",
"383 25 OFFCURVE",
"401 0 OFFCURVE",
"445 0 CURVE SMOOTH"
);
},
{
closed = 1;
nodes = (
"158 37 OFFCURVE",
"111 69 OFFCURVE",
"111 128 CURVE SMOOTH",
"111 152 LINE SMOOTH",
"111 209 OFFCURVE",
"155 244 OFFCURVE",
"257 244 CURVE SMOOTH",
"377 244 LINE",
"377 149 LINE SMOOTH",
"377 80 OFFCURVE",
"311 37 OFFCURVE",
"228 37 CURVE SMOOTH"
);
}
);
width = 528;
}
);
leftKerningGroup = a;
note = uni1EB3;
rightKerningGroup = a;
unicode = 1EB3;
},
{
glyphname = uni1EB5;
lastChange = "2019-02-02 11:40:47 +0000";
layers = (
{
layerId = "1053487F-6E39-46EB-834B-3FE95151DC2D";
paths = (
{
closed = 1;
nodes = (
"343 589 OFFCURVE",
"372 647 OFFCURVE",
"396 707 CURVE",
"363 723 LINE",
"344 693 LINE SMOOTH",
"320 653 OFFCURVE",
"299 632 OFFCURVE",
"251 632 CURVE SMOOTH",
"203 632 OFFCURVE",
"182 653 OFFCURVE",
"158 693 CURVE SMOOTH",
"139 723 LINE",
"106 707 LINE",
"130 647 OFFCURVE",
"159 589 OFFCURVE",
"251 589 CURVE SMOOTH"
);
},
{
closed = 1;
nodes = (
"362 768 OFFCURVE",
"391 789 OFFCURVE",
"411 816 CURVE",
"387 843 LINE",
"367 824 OFFCURVE",
"349 813 OFFCURVE",
"327 813 CURVE SMOOTH",
"309 813 OFFCURVE",
"289 820 OFFCURVE",
"258 838 CURVE SMOOTH",
"232 853 OFFCURVE",
"210 866 OFFCURVE",
"179 866 CURVE SMOOTH",
"140 866 OFFCURVE",
"111 845 OFFCURVE",
"91 818 CURVE",
"115 791 LINE",
"135 810 OFFCURVE",
"153 821 OFFCURVE",
"175 821 CURVE SMOOTH",
"193 821 OFFCURVE",
"213 814 OFFCURVE",
"244 796 CURVE SMOOTH",
"270 781 OFFCURVE",
"292 768 OFFCURVE",
"323 768 CURVE SMOOTH"
);
},
{
closed = 1;
nodes = (
"503 0 LINE",
"503 50 LINE",
"434 50 LINE",
"434 353 LINE SMOOTH",
"434 461 OFFCURVE",
"367 524 OFFCURVE",
"248 524 CURVE SMOOTH",
"155 524 OFFCURVE",
"98 480 OFFCURVE",
"70 421 CURVE",
"106 391 LINE",
"134 444 OFFCURVE",
"178 474 OFFCURVE",
"246 474 CURVE SMOOTH",
"333 474 OFFCURVE",
"377 431 OFFCURVE",
"377 347 CURVE SMOOTH",
"377 287 LINE",
"259 287 LINE SMOOTH",
"111 287 OFFCURVE",
"51 230 OFFCURVE",
"51 139 CURVE SMOOTH",
"51 44 OFFCURVE",
"113 -12 OFFCURVE",
"220 -12 CURVE SMOOTH",
"300 -12 OFFCURVE",
"352 24 OFFCURVE",
"375 81 CURVE",
"380 81 LINE",
"380 63 LINE",
"383 25 OFFCURVE",
"401 0 OFFCURVE",
"445 0 CURVE SMOOTH"
);
},
{
closed = 1;
nodes = (
"158 37 OFFCURVE",
"111 69 OFFCURVE",
"111 128 CURVE SMOOTH",
"111 152 LINE SMOOTH",
"111 209 OFFCURVE",
"155 244 OFFCURVE",
"257 244 CURVE SMOOTH",
"377 244 LINE",
"377 149 LINE SMOOTH",
"377 80 OFFCURVE",
"311 37 OFFCURVE",
"228 37 CURVE SMOOTH"
);
}
);
width = 528;
}
);
leftKerningGroup = a;
note = uni1EB5;
rightKerningGroup = a;
unicode = 1EB5;
},
{
glyphname = uni1EA5;
lastChange = "2019-02-02 11:40:47 +0000";
layers = (
{
layerId = "1053487F-6E39-46EB-834B-3FE95151DC2D";
paths = (
{
closed = 1;
nodes = (
"499 854 LINE",
"449 879 LINE",
"354 716 LINE",
"389 698 LINE"
);
},
{
closed = 1;
nodes = (
"216 741 LINE",
"99 607 LINE",
"129 585 LINE",
"251 703 LINE",
"373 585 LINE",
"403 607 LINE",
"286 741 LINE"
);
},
{
closed = 1;
nodes = (
"503 0 LINE",
"503 50 LINE",
"434 50 LINE",
"434 353 LINE SMOOTH",
"434 461 OFFCURVE",
"367 524 OFFCURVE",
"248 524 CURVE SMOOTH",
"155 524 OFFCURVE",
"98 480 OFFCURVE",
"70 421 CURVE",
"106 391 LINE",
"134 444 OFFCURVE",
"178 474 OFFCURVE",
"246 474 CURVE SMOOTH",
"333 474 OFFCURVE",
"377 431 OFFCURVE",
"377 347 CURVE SMOOTH",
"377 287 LINE",
"259 287 LINE SMOOTH",
"111 287 OFFCURVE",
"51 230 OFFCURVE",
"51 139 CURVE SMOOTH",
"51 44 OFFCURVE",
"113 -12 OFFCURVE",
"220 -12 CURVE SMOOTH",
"300 -12 OFFCURVE",
"352 24 OFFCURVE",
"375 81 CURVE",
"380 81 LINE",
"380 63 LINE",
"383 25 OFFCURVE",
"401 0 OFFCURVE",
"445 0 CURVE SMOOTH"
);
},
{
closed = 1;
nodes = (
"158 37 OFFCURVE",
"111 69 OFFCURVE",
"111 128 CURVE SMOOTH",
"111 152 LINE SMOOTH",
"111 209 OFFCURVE",
"155 244 OFFCURVE",
"257 244 CURVE SMOOTH",
"377 244 LINE",
"377 149 LINE SMOOTH",
"377 80 OFFCURVE",
"311 37 OFFCURVE",
"228 37 CURVE SMOOTH"
);
}
);
width = 528;
}
);
leftKerningGroup = a;
note = uni1EA5;
rightKerningGroup = a;
unicode = 1EA5;
},
{
glyphname = uni1EAD;
lastChange = "2019-02-02 11:40:47 +0000";
layers = (
{
layerId = "1053487F-6E39-46EB-834B-3FE95151DC2D";
paths = (
{
closed = 1;
nodes = (
"264 -155 OFFCURVE",
"277 -140 OFFCURVE",
"277 -118 CURVE SMOOTH",
"277 -110 LINE SMOOTH",
"277 -88 OFFCURVE",
"264 -73 OFFCURVE",
"237 -73 CURVE SMOOTH",
"210 -73 OFFCURVE",
"197 -88 OFFCURVE",
"197 -110 CURVE SMOOTH",
"197 -118 LINE SMOOTH",
"197 -140 OFFCURVE",
"210 -155 OFFCURVE",
"237 -155 CURVE SMOOTH"
);
},
{
closed = 1;
nodes = (
"216 756 LINE",
"98 617 LINE",
"130 594 LINE",
"251 715 LINE",
"372 594 LINE",
"404 617 LINE",
"286 756 LINE"
);
},
{
closed = 1;
nodes = (
"503 0 LINE",
"503 50 LINE",
"434 50 LINE",
"434 353 LINE SMOOTH",
"434 461 OFFCURVE",
"367 524 OFFCURVE",
"248 524 CURVE SMOOTH",
"155 524 OFFCURVE",
"98 480 OFFCURVE",
"70 421 CURVE",
"106 391 LINE",
"134 444 OFFCURVE",
"178 474 OFFCURVE",
"246 474 CURVE SMOOTH",
"333 474 OFFCURVE",
"377 431 OFFCURVE",
"377 347 CURVE SMOOTH",
"377 287 LINE",
"259 287 LINE SMOOTH",
"111 287 OFFCURVE",
"51 230 OFFCURVE",
"51 139 CURVE SMOOTH",
"51 44 OFFCURVE",
"113 -12 OFFCURVE",
"220 -12 CURVE SMOOTH",
"300 -12 OFFCURVE",
"352 24 OFFCURVE",
"375 81 CURVE",
"380 81 LINE",
"380 63 LINE",
"383 25 OFFCURVE",
"401 0 OFFCURVE",
"445 0 CURVE SMOOTH"
);
},
{
closed = 1;
nodes = (
"158 37 OFFCURVE",
"111 69 OFFCURVE",
"111 128 CURVE SMOOTH",
"111 152 LINE SMOOTH",
"111 209 OFFCURVE",
"155 244 OFFCURVE",
"257 244 CURVE SMOOTH",
"377 244 LINE",
"377 149 LINE SMOOTH",
"377 80 OFFCURVE",
"311 37 OFFCURVE",
"228 37 CURVE SMOOTH"
);
}
);
width = 528;
}
);
leftKerningGroup = a;
note = uni1EAD;
rightKerningGroup = a;
unicode = 1EAD;
},
{
glyphname = uni1EA7;
lastChange = "2019-02-02 11:40:47 +0000";
layers = (
{
layerId = "1053487F-6E39-46EB-834B-3FE95151DC2D";
paths = (
{
closed = 1;
nodes = (
"113 698 LINE",
"148 716 LINE",
"53 879 LINE",
"3 854 LINE"
);
},
{
closed = 1;
nodes = (
"216 741 LINE",
"99 607 LINE",
"129 585 LINE",
"251 703 LINE",
"373 585 LINE",
"403 607 LINE",
"286 741 LINE"
);
},
{
closed = 1;
nodes = (
"503 0 LINE",
"503 50 LINE",
"434 50 LINE",
"434 353 LINE SMOOTH",
"434 461 OFFCURVE",
"367 524 OFFCURVE",
"248 524 CURVE SMOOTH",
"155 524 OFFCURVE",
"98 480 OFFCURVE",
"70 421 CURVE",
"106 391 LINE",
"134 444 OFFCURVE",
"178 474 OFFCURVE",
"246 474 CURVE SMOOTH",
"333 474 OFFCURVE",
"377 431 OFFCURVE",
"377 347 CURVE SMOOTH",
"377 287 LINE",
"259 287 LINE SMOOTH",
"111 287 OFFCURVE",
"51 230 OFFCURVE",
"51 139 CURVE SMOOTH",
"51 44 OFFCURVE",
"113 -12 OFFCURVE",
"220 -12 CURVE SMOOTH",
"300 -12 OFFCURVE",
"352 24 OFFCURVE",
"375 81 CURVE",
"380 81 LINE",
"380 63 LINE",
"383 25 OFFCURVE",
"401 0 OFFCURVE",
"445 0 CURVE SMOOTH"
);
},
{
closed = 1;
nodes = (
"158 37 OFFCURVE",
"111 69 OFFCURVE",
"111 128 CURVE SMOOTH",
"111 152 LINE SMOOTH",
"111 209 OFFCURVE",
"155 244 OFFCURVE",
"257 244 CURVE SMOOTH",
"377 244 LINE",
"377 149 LINE SMOOTH",
"377 80 OFFCURVE",
"311 37 OFFCURVE",
"228 37 CURVE SMOOTH"
);
}
);
width = 528;
}
);
leftKerningGroup = a;
note = uni1EA7;
rightKerningGroup = a;
unicode = 1EA7;
},
{
glyphname = uni1EA9;
lastChange = "2019-02-02 11:40:47 +0000";
layers = (
{
layerId = "1053487F-6E39-46EB-834B-3FE95151DC2D";
paths = (
{
closed = 1;
nodes = (
"297 825 LINE",
"426 825 LINE",
"359 710 LINE",
"393 693 LINE",
"426 741 LINE SMOOTH",
"455 781 OFFCURVE",
"468 806 OFFCURVE",
"468 827 CURVE SMOOTH",
"468 849 OFFCURVE",
"454 867 OFFCURVE",
"417 867 CURVE SMOOTH",
"297 867 LINE"
);
},
{
closed = 1;
nodes = (
"216 741 LINE",
"99 607 LINE",
"129 585 LINE",
"251 703 LINE",
"373 585 LINE",
"403 607 LINE",
"286 741 LINE"
);
},
{
closed = 1;
nodes = (
"503 0 LINE",
"503 50 LINE",
"434 50 LINE",
"434 353 LINE SMOOTH",
"434 461 OFFCURVE",
"367 524 OFFCURVE",
"248 524 CURVE SMOOTH",
"155 524 OFFCURVE",
"98 480 OFFCURVE",
"70 421 CURVE",
"106 391 LINE",
"134 444 OFFCURVE",
"178 474 OFFCURVE",
"246 474 CURVE SMOOTH",
"333 474 OFFCURVE",
"377 431 OFFCURVE",
"377 347 CURVE SMOOTH",
"377 287 LINE",
"259 287 LINE SMOOTH",
"111 287 OFFCURVE",
"51 230 OFFCURVE",
"51 139 CURVE SMOOTH",
"51 44 OFFCURVE",
"113 -12 OFFCURVE",
"220 -12 CURVE SMOOTH",
"300 -12 OFFCURVE",
"352 24 OFFCURVE",
"375 81 CURVE",
"380 81 LINE",
"380 63 LINE",
"383 25 OFFCURVE",
"401 0 OFFCURVE",
"445 0 CURVE SMOOTH"
);
},
{
closed = 1;
nodes = (
"158 37 OFFCURVE",
"111 69 OFFCURVE",
"111 128 CURVE SMOOTH",
"111 152 LINE SMOOTH",
"111 209 OFFCURVE",
"155 244 OFFCURVE",
"257 244 CURVE SMOOTH",
"377 244 LINE",
"377 149 LINE SMOOTH",
"377 80 OFFCURVE",
"311 37 OFFCURVE",
"228 37 CURVE SMOOTH"
);
}
);
width = 528;
}
);
leftKerningGroup = a;
note = uni1EA9;
rightKerningGroup = a;
unicode = 1EA9;
},
{
glyphname = uni1EAB;
lastChange = "2019-02-02 11:40:47 +0000";
layers = (
{
layerId = "1053487F-6E39-46EB-834B-3FE95151DC2D";
paths = (
{
closed = 1;
nodes = (
"140 870 OFFCURVE",
"111 849 OFFCURVE",
"91 822 CURVE",
"115 795 LINE",
"135 814 OFFCURVE",
"153 825 OFFCURVE",
"175 825 CURVE SMOOTH",
"193 825 OFFCURVE",
"213 818 OFFCURVE",
"244 800 CURVE SMOOTH",
"270 785 OFFCURVE",
"292 772 OFFCURVE",
"323 772 CURVE SMOOTH",
"362 772 OFFCURVE",
"391 793 OFFCURVE",
"411 820 CURVE",
"387 847 LINE",
"367 828 OFFCURVE",
"349 817 OFFCURVE",
"327 817 CURVE SMOOTH",
"309 817 OFFCURVE",
"289 824 OFFCURVE",
"258 842 CURVE SMOOTH",
"232 857 OFFCURVE",
"210 870 OFFCURVE",
"179 870 CURVE SMOOTH"
);
},
{
closed = 1;
nodes = (
"216 741 LINE",
"99 607 LINE",
"129 585 LINE",
"251 703 LINE",
"373 585 LINE",
"403 607 LINE",
"286 741 LINE"
);
},
{
closed = 1;
nodes = (
"503 0 LINE",
"503 50 LINE",
"434 50 LINE",
"434 353 LINE SMOOTH",
"434 461 OFFCURVE",
"367 524 OFFCURVE",
"248 524 CURVE SMOOTH",
"155 524 OFFCURVE",
"98 480 OFFCURVE",
"70 421 CURVE",
"106 391 LINE",
"134 444 OFFCURVE",
"178 474 OFFCURVE",
"246 474 CURVE SMOOTH",
"333 474 OFFCURVE",
"377 431 OFFCURVE",
"377 347 CURVE SMOOTH",
"377 287 LINE",
"259 287 LINE SMOOTH",
"111 287 OFFCURVE",
"51 230 OFFCURVE",
"51 139 CURVE SMOOTH",
"51 44 OFFCURVE",
"113 -12 OFFCURVE",
"220 -12 CURVE SMOOTH",
"300 -12 OFFCURVE",
"352 24 OFFCURVE",
"375 81 CURVE",
"380 81 LINE",
"380 63 LINE",
"383 25 OFFCURVE",
"401 0 OFFCURVE",
"445 0 CURVE SMOOTH"
);
},
{
closed = 1;
nodes = (
"158 37 OFFCURVE",
"111 69 OFFCURVE",
"111 128 CURVE SMOOTH",
"111 152 LINE SMOOTH",
"111 209 OFFCURVE",
"155 244 OFFCURVE",
"257 244 CURVE SMOOTH",
"377 244 LINE",
"377 149 LINE SMOOTH",
"377 80 OFFCURVE",
"311 37 OFFCURVE",
"228 37 CURVE SMOOTH"
);
}
);
width = 528;
}
);
leftKerningGroup = a;
note = uni1EAB;
rightKerningGroup = a;
unicode = 1EAB;
},
{
glyphname = aacute.alt01;
lastChange = "2019-02-02 11:40:47 +0000";
layers = (
{
layerId = "1053487F-6E39-46EB-834B-3FE95151DC2D";
paths = (
{
closed = 1;
nodes = (
"383 742 LINE",
"331 768 LINE",
"236 604 LINE",
"273 586 LINE"
);
},
{
closed = 1;
nodes = (
"424 0 LINE",
"481 0 LINE",
"481 512 LINE",
"424 512 LINE",
"424 430 LINE",
"421 430 LINE",
"396 487 OFFCURVE",
"343 524 OFFCURVE",
"265 524 CURVE SMOOTH",
"134 524 OFFCURVE",
"54 425 OFFCURVE",
"54 256 CURVE SMOOTH",
"54 87 OFFCURVE",
"134 -12 OFFCURVE",
"265 -12 CURVE SMOOTH",
"343 -12 OFFCURVE",
"394 25 OFFCURVE",
"421 82 CURVE",
"424 82 LINE"
);
},
{
closed = 1;
nodes = (
"176 39 OFFCURVE",
"115 110 OFFCURVE",
"115 220 CURVE SMOOTH",
"115 292 LINE SMOOTH",
"115 402 OFFCURVE",
"176 473 OFFCURVE",
"278 473 CURVE SMOOTH",
"357 473 OFFCURVE",
"424 426 OFFCURVE",
"424 359 CURVE SMOOTH",
"424 156 LINE SMOOTH",
"424 84 OFFCURVE",
"357 39 OFFCURVE",
"278 39 CURVE SMOOTH"
);
}
);
width = 574;
}
);
leftKerningGroup = a.alt01;
note = aacute.alt01;
rightKerningGroup = a.alt01;
},
{
glyphname = abreve.alt01;
lastChange = "2019-02-02 11:40:47 +0000";
layers = (
{
layerId = "1053487F-6E39-46EB-834B-3FE95151DC2D";
paths = (
{
closed = 1;
nodes = (
"368 600 OFFCURVE",
"395 660 OFFCURVE",
"420 722 CURVE",
"387 738 LINE",
"368 707 LINE SMOOTH",
"343 665 OFFCURVE",
"324 646 OFFCURVE",
"276 646 CURVE SMOOTH",
"228 646 OFFCURVE",
"209 665 OFFCURVE",
"184 707 CURVE SMOOTH",
"165 738 LINE",
"132 722 LINE",
"157 660 OFFCURVE",
"184 600 OFFCURVE",
"276 600 CURVE SMOOTH"
);
},
{
closed = 1;
nodes = (
"424 0 LINE",
"481 0 LINE",
"481 512 LINE",
"424 512 LINE",
"424 430 LINE",
"421 430 LINE",
"396 487 OFFCURVE",
"343 524 OFFCURVE",
"265 524 CURVE SMOOTH",
"134 524 OFFCURVE",
"54 425 OFFCURVE",
"54 256 CURVE SMOOTH",
"54 87 OFFCURVE",
"134 -12 OFFCURVE",
"265 -12 CURVE SMOOTH",
"343 -12 OFFCURVE",
"394 25 OFFCURVE",
"421 82 CURVE",
"424 82 LINE"
);
},
{
closed = 1;
nodes = (
"176 39 OFFCURVE",
"115 110 OFFCURVE",
"115 220 CURVE SMOOTH",
"115 292 LINE SMOOTH",
"115 402 OFFCURVE",
"176 473 OFFCURVE",
"278 473 CURVE SMOOTH",
"357 473 OFFCURVE",
"424 426 OFFCURVE",
"424 359 CURVE SMOOTH",
"424 156 LINE SMOOTH",
"424 84 OFFCURVE",
"357 39 OFFCURVE",
"278 39 CURVE SMOOTH"
);
}
);
width = 574;
}
);
leftKerningGroup = a.alt01;
note = abreve.alt01;
rightKerningGroup = a.alt01;
},
{
glyphname = acircumflex.alt01;
lastChange = "2019-02-02 11:40:47 +0000";
layers = (
{
layerId = "1053487F-6E39-46EB-834B-3FE95151DC2D";
paths = (
{
closed = 1;
nodes = (
"241 756 LINE",
"123 617 LINE",
"155 594 LINE",
"276 715 LINE",
"397 594 LINE",
"429 617 LINE",
"311 756 LINE"
);
},
{
closed = 1;
nodes = (
"424 0 LINE",
"481 0 LINE",
"481 512 LINE",
"424 512 LINE",
"424 430 LINE",
"421 430 LINE",
"396 487 OFFCURVE",
"343 524 OFFCURVE",
"265 524 CURVE SMOOTH",
"134 524 OFFCURVE",
"54 425 OFFCURVE",
"54 256 CURVE SMOOTH",
"54 87 OFFCURVE",
"134 -12 OFFCURVE",
"265 -12 CURVE SMOOTH",
"343 -12 OFFCURVE",
"394 25 OFFCURVE",
"421 82 CURVE",
"424 82 LINE"
);
},
{
closed = 1;
nodes = (
"176 39 OFFCURVE",
"115 110 OFFCURVE",
"115 220 CURVE SMOOTH",
"115 292 LINE SMOOTH",
"115 402 OFFCURVE",
"176 473 OFFCURVE",
"278 473 CURVE SMOOTH",
"357 473 OFFCURVE",
"424 426 OFFCURVE",
"424 359 CURVE SMOOTH",
"424 156 LINE SMOOTH",
"424 84 OFFCURVE",
"357 39 OFFCURVE",
"278 39 CURVE SMOOTH"
);
}
);
width = 574;
}
);
leftKerningGroup = a.alt01;
note = acircumflex.alt01;
rightKerningGroup = a.alt01;
},
{
glyphname = adieresis.alt01;
lastChange = "2019-02-02 11:40:47 +0000";
layers = (
{
layerId = "1053487F-6E39-46EB-834B-3FE95151DC2D";
paths = (
{
closed = 1;
nodes = (
"211 627 OFFCURVE",
"223 642 OFFCURVE",
"223 663 CURVE SMOOTH",
"223 673 LINE SMOOTH",
"223 694 OFFCURVE",
"211 709 OFFCURVE",
"184 709 CURVE SMOOTH",
"156 709 OFFCURVE",
"145 694 OFFCURVE",
"145 673 CURVE SMOOTH",
"145 663 LINE SMOOTH",
"145 642 OFFCURVE",
"156 627 OFFCURVE",
"184 627 CURVE SMOOTH"
);
},
{
closed = 1;
nodes = (
"396 627 OFFCURVE",
"407 642 OFFCURVE",
"407 663 CURVE SMOOTH",
"407 673 LINE SMOOTH",
"407 694 OFFCURVE",
"396 709 OFFCURVE",
"368 709 CURVE SMOOTH",
"341 709 OFFCURVE",
"329 694 OFFCURVE",
"329 673 CURVE SMOOTH",
"329 663 LINE SMOOTH",
"329 642 OFFCURVE",
"341 627 OFFCURVE",
"368 627 CURVE SMOOTH"
);
},
{
closed = 1;
nodes = (
"424 0 LINE",
"481 0 LINE",
"481 512 LINE",
"424 512 LINE",
"424 430 LINE",
"421 430 LINE",
"396 487 OFFCURVE",
"343 524 OFFCURVE",
"265 524 CURVE SMOOTH",
"134 524 OFFCURVE",
"54 425 OFFCURVE",
"54 256 CURVE SMOOTH",
"54 87 OFFCURVE",
"134 -12 OFFCURVE",
"265 -12 CURVE SMOOTH",
"343 -12 OFFCURVE",
"394 25 OFFCURVE",
"421 82 CURVE",
"424 82 LINE"
);
},
{
closed = 1;
nodes = (
"176 39 OFFCURVE",
"115 110 OFFCURVE",
"115 220 CURVE SMOOTH",
"115 292 LINE SMOOTH",
"115 402 OFFCURVE",
"176 473 OFFCURVE",
"278 473 CURVE SMOOTH",
"357 473 OFFCURVE",
"424 426 OFFCURVE",
"424 359 CURVE SMOOTH",
"424 156 LINE SMOOTH",
"424 84 OFFCURVE",
"357 39 OFFCURVE",
"278 39 CURVE SMOOTH"
);
}
);
width = 574;
}
);
leftKerningGroup = a.alt01;
note = adieresis.alt01;
rightKerningGroup = a.alt01;
},
{
glyphname = uni1EA1.alt01;
lastChange = "2019-02-02 11:40:47 +0000";
layers = (
{
layerId = "1053487F-6E39-46EB-834B-3FE95151DC2D";
paths = (
{
closed = 1;
nodes = (
"303 -155 OFFCURVE",
"316 -140 OFFCURVE",
"316 -118 CURVE SMOOTH",
"316 -110 LINE SMOOTH",
"316 -88 OFFCURVE",
"303 -73 OFFCURVE",
"276 -73 CURVE SMOOTH",
"249 -73 OFFCURVE",
"236 -88 OFFCURVE",
"236 -110 CURVE SMOOTH",
"236 -118 LINE SMOOTH",
"236 -140 OFFCURVE",
"249 -155 OFFCURVE",
"276 -155 CURVE SMOOTH"
);
},
{
closed = 1;
nodes = (
"424 0 LINE",
"481 0 LINE",
"481 512 LINE",
"424 512 LINE",
"424 430 LINE",
"421 430 LINE",
"396 487 OFFCURVE",
"343 524 OFFCURVE",
"265 524 CURVE SMOOTH",
"134 524 OFFCURVE",
"54 425 OFFCURVE",
"54 256 CURVE SMOOTH",
"54 87 OFFCURVE",
"134 -12 OFFCURVE",
"265 -12 CURVE SMOOTH",
"343 -12 OFFCURVE",
"394 25 OFFCURVE",
"421 82 CURVE",
"424 82 LINE"
);
},
{
closed = 1;
nodes = (
"176 39 OFFCURVE",
"115 110 OFFCURVE",
"115 220 CURVE SMOOTH",
"115 292 LINE SMOOTH",
"115 402 OFFCURVE",
"176 473 OFFCURVE",
"278 473 CURVE SMOOTH",
"357 473 OFFCURVE",
"424 426 OFFCURVE",
"424 359 CURVE SMOOTH",
"424 156 LINE SMOOTH",
"424 84 OFFCURVE",
"357 39 OFFCURVE",
"278 39 CURVE SMOOTH"
);
}
);
width = 574;
}
);
leftKerningGroup = a.alt01;
note = uni1EA1.alt01;
rightKerningGroup = a.alt01;
},
{
glyphname = agrave.alt01;
lastChange = "2019-02-02 11:40:47 +0000";
layers = (
{
layerId = "1053487F-6E39-46EB-834B-3FE95151DC2D";
paths = (
{
closed = 1;
nodes = (
"278 586 LINE",
"316 604 LINE",
"221 768 LINE",
"169 742 LINE"
);
},
{
closed = 1;
nodes = (
"424 0 LINE",
"481 0 LINE",
"481 512 LINE",
"424 512 LINE",
"424 430 LINE",
"421 430 LINE",
"396 487 OFFCURVE",
"343 524 OFFCURVE",
"265 524 CURVE SMOOTH",
"134 524 OFFCURVE",
"54 425 OFFCURVE",
"54 256 CURVE SMOOTH",
"54 87 OFFCURVE",
"134 -12 OFFCURVE",
"265 -12 CURVE SMOOTH",
"343 -12 OFFCURVE",
"394 25 OFFCURVE",
"421 82 CURVE",
"424 82 LINE"
);
},
{
closed = 1;
nodes = (
"176 39 OFFCURVE",
"115 110 OFFCURVE",
"115 220 CURVE SMOOTH",
"115 292 LINE SMOOTH",
"115 402 OFFCURVE",
"176 473 OFFCURVE",
"278 473 CURVE SMOOTH",
"357 473 OFFCURVE",
"424 426 OFFCURVE",
"424 359 CURVE SMOOTH",
"424 156 LINE SMOOTH",
"424 84 OFFCURVE",
"357 39 OFFCURVE",
"278 39 CURVE SMOOTH"
);
}
);
width = 574;
}
);
leftKerningGroup = a.alt01;
note = agrave.alt01;
rightKerningGroup = a.alt01;
},
{
glyphname = uni1EA3.alt01;
lastChange = "2019-02-02 11:40:47 +0000";
layers = (
{
layerId = "1053487F-6E39-46EB-834B-3FE95151DC2D";
paths = (
{
closed = 1;
nodes = (
"196 710 LINE",
"323 710 LINE",
"257 597 LINE",
"292 580 LINE",
"326 628 LINE SMOOTH",
"355 667 OFFCURVE",
"367 693 OFFCURVE",
"367 714 CURVE SMOOTH",
"367 736 OFFCURVE",
"353 754 OFFCURVE",
"316 754 CURVE SMOOTH",
"196 754 LINE"
);
},
{
closed = 1;
nodes = (
"424 0 LINE",
"481 0 LINE",
"481 512 LINE",
"424 512 LINE",
"424 430 LINE",
"421 430 LINE",
"396 487 OFFCURVE",
"343 524 OFFCURVE",
"265 524 CURVE SMOOTH",
"134 524 OFFCURVE",
"54 425 OFFCURVE",
"54 256 CURVE SMOOTH",
"54 87 OFFCURVE",
"134 -12 OFFCURVE",
"265 -12 CURVE SMOOTH",
"343 -12 OFFCURVE",
"394 25 OFFCURVE",
"421 82 CURVE",
"424 82 LINE"
);
},
{
closed = 1;
nodes = (
"176 39 OFFCURVE",
"115 110 OFFCURVE",
"115 220 CURVE SMOOTH",
"115 292 LINE SMOOTH",
"115 402 OFFCURVE",
"176 473 OFFCURVE",
"278 473 CURVE SMOOTH",
"357 473 OFFCURVE",
"424 426 OFFCURVE",
"424 359 CURVE SMOOTH",
"424 156 LINE SMOOTH",
"424 84 OFFCURVE",
"357 39 OFFCURVE",
"278 39 CURVE SMOOTH"
);
}
);
width = 574;
}
);
leftKerningGroup = a.alt01;
note = uni1EA3.alt01;
rightKerningGroup = a.alt01;
},
{
glyphname = amacron.alt01;
lastChange = "2019-02-02 11:40:47 +0000";
layers = (
{
layerId = "1053487F-6E39-46EB-834B-3FE95151DC2D";
paths = (
{
closed = 1;
nodes = (
"140 645 LINE",
"412 645 LINE",
"412 694 LINE",
"140 694 LINE"
);
},
{
closed = 1;
nodes = (
"424 0 LINE",
"481 0 LINE",
"481 512 LINE",
"424 512 LINE",
"424 430 LINE",
"421 430 LINE",
"396 487 OFFCURVE",
"343 524 OFFCURVE",
"265 524 CURVE SMOOTH",
"134 524 OFFCURVE",
"54 425 OFFCURVE",
"54 256 CURVE SMOOTH",
"54 87 OFFCURVE",
"134 -12 OFFCURVE",
"265 -12 CURVE SMOOTH",
"343 -12 OFFCURVE",
"394 25 OFFCURVE",
"421 82 CURVE",
"424 82 LINE"
);
},
{
closed = 1;
nodes = (
"176 39 OFFCURVE",
"115 110 OFFCURVE",
"115 220 CURVE SMOOTH",
"115 292 LINE SMOOTH",
"115 402 OFFCURVE",
"176 473 OFFCURVE",
"278 473 CURVE SMOOTH",
"357 473 OFFCURVE",
"424 426 OFFCURVE",
"424 359 CURVE SMOOTH",
"424 156 LINE SMOOTH",
"424 84 OFFCURVE",
"357 39 OFFCURVE",
"278 39 CURVE SMOOTH"
);
}
);
width = 574;
}
);
leftKerningGroup = a.alt01;
note = amacron.alt01;
rightKerningGroup = a.alt01;
},
{
glyphname = aogonek.alt01;
lastChange = "2019-02-02 11:40:47 +0000";
layers = (
{
layerId = "1053487F-6E39-46EB-834B-3FE95151DC2D";
paths = (
{
closed = 1;
nodes = (
"176 39 OFFCURVE",
"115 110 OFFCURVE",
"115 220 CURVE SMOOTH",
"115 292 LINE SMOOTH",
"115 402 OFFCURVE",
"176 473 OFFCURVE",
"278 473 CURVE SMOOTH",
"357 473 OFFCURVE",
"424 426 OFFCURVE",
"424 359 CURVE SMOOTH",
"424 156 LINE SMOOTH",
"424 84 OFFCURVE",
"357 39 OFFCURVE",
"278 39 CURVE SMOOTH"
);
},
{
closed = 1;
nodes = (
"481 512 LINE",
"424 512 LINE",
"424 430 LINE",
"421 430 LINE",
"396 487 OFFCURVE",
"343 524 OFFCURVE",
"265 524 CURVE SMOOTH",
"134 524 OFFCURVE",
"54 425 OFFCURVE",
"54 256 CURVE SMOOTH",
"54 87 OFFCURVE",
"134 -12 OFFCURVE",
"265 -12 CURVE SMOOTH",
"343 -12 OFFCURVE",
"394 25 OFFCURVE",
"421 82 CURVE",
"424 82 LINE",
"424 0 LINE",
"435 0 LINE",
"436 -2 LINE",
"373 -46 OFFCURVE",
"336 -85 OFFCURVE",
"336 -131 CURVE SMOOTH",
"336 -181 OFFCURVE",
"375 -205 OFFCURVE",
"424 -205 CURVE SMOOTH",
"467 -205 OFFCURVE",
"495 -189 OFFCURVE",
"507 -169 CURVE",
"478 -141 LINE",
"466 -155 OFFCURVE",
"449 -165 OFFCURVE",
"425 -165 CURVE SMOOTH",
"400 -165 OFFCURVE",
"383 -154 OFFCURVE",
"383 -125 CURVE SMOOTH",
"383 -92 OFFCURVE",
"403 -67 OFFCURVE",
"481 0 CURVE"
);
}
);
width = 574;
}
);
leftKerningGroup = a.alt01;
note = aogonek.alt01;
rightKerningGroup = a.alt01;
},
{
glyphname = aring.alt01;
lastChange = "2019-02-02 11:40:47 +0000";
layers = (
{
layerId = "1053487F-6E39-46EB-834B-3FE95151DC2D";
paths = (
{
closed = 1;
nodes = (
"337 581 OFFCURVE",
"382 625 OFFCURVE",
"382 687 CURVE SMOOTH",
"382 748 OFFCURVE",
"337 792 OFFCURVE",
"276 792 CURVE SMOOTH",
"215 792 OFFCURVE",
"170 748 OFFCURVE",
"170 687 CURVE SMOOTH",
"170 625 OFFCURVE",
"215 581 OFFCURVE",
"276 581 CURVE SMOOTH"
);
},
{
closed = 1;
nodes = (
"237 618 OFFCURVE",
"213 641 OFFCURVE",
"213 678 CURVE SMOOTH",
"213 695 LINE SMOOTH",
"213 733 OFFCURVE",
"237 755 OFFCURVE",
"276 755 CURVE SMOOTH",
"315 755 OFFCURVE",
"339 733 OFFCURVE",
"339 695 CURVE SMOOTH",
"339 678 LINE SMOOTH",
"339 641 OFFCURVE",
"315 618 OFFCURVE",
"276 618 CURVE SMOOTH"
);
},
{
closed = 1;
nodes = (
"424 0 LINE",
"481 0 LINE",
"481 512 LINE",
"424 512 LINE",
"424 430 LINE",
"421 430 LINE",
"396 487 OFFCURVE",
"343 524 OFFCURVE",
"265 524 CURVE SMOOTH",
"134 524 OFFCURVE",
"54 425 OFFCURVE",
"54 256 CURVE SMOOTH",
"54 87 OFFCURVE",
"134 -12 OFFCURVE",
"265 -12 CURVE SMOOTH",
"343 -12 OFFCURVE",
"394 25 OFFCURVE",
"421 82 CURVE",
"424 82 LINE"
);
},
{
closed = 1;
nodes = (
"176 39 OFFCURVE",
"115 110 OFFCURVE",
"115 220 CURVE SMOOTH",
"115 292 LINE SMOOTH",
"115 402 OFFCURVE",
"176 473 OFFCURVE",
"278 473 CURVE SMOOTH",
"357 473 OFFCURVE",
"424 426 OFFCURVE",
"424 359 CURVE SMOOTH",
"424 156 LINE SMOOTH",
"424 84 OFFCURVE",
"357 39 OFFCURVE",
"278 39 CURVE SMOOTH"
);
}
);
width = 574;
}
);
leftKerningGroup = a.alt01;
note = aring.alt01;
rightKerningGroup = a.alt01;
},
{
glyphname = aringacute.alt01;
lastChange = "2019-02-02 11:40:47 +0000";
layers = (
{
layerId = "1053487F-6E39-46EB-834B-3FE95151DC2D";
paths = (
{
closed = 1;
nodes = (
"373 911 LINE",
"329 938 LINE",
"252 828 LINE",
"283 808 LINE"
);
},
{
closed = 1;
nodes = (
"337 575 OFFCURVE",
"382 619 OFFCURVE",
"382 681 CURVE SMOOTH",
"382 742 OFFCURVE",
"337 786 OFFCURVE",
"276 786 CURVE SMOOTH",
"215 786 OFFCURVE",
"170 742 OFFCURVE",
"170 681 CURVE SMOOTH",
"170 619 OFFCURVE",
"215 575 OFFCURVE",
"276 575 CURVE SMOOTH"
);
},
{
closed = 1;
nodes = (
"237 612 OFFCURVE",
"213 635 OFFCURVE",
"213 672 CURVE SMOOTH",
"213 689 LINE SMOOTH",
"213 727 OFFCURVE",
"237 749 OFFCURVE",
"276 749 CURVE SMOOTH",
"315 749 OFFCURVE",
"339 727 OFFCURVE",
"339 689 CURVE SMOOTH",
"339 672 LINE SMOOTH",
"339 635 OFFCURVE",
"315 612 OFFCURVE",
"276 612 CURVE SMOOTH"
);
},
{
closed = 1;
nodes = (
"424 0 LINE",
"481 0 LINE",
"481 512 LINE",
"424 512 LINE",
"424 430 LINE",
"421 430 LINE",
"396 487 OFFCURVE",
"343 524 OFFCURVE",
"265 524 CURVE SMOOTH",
"134 524 OFFCURVE",
"54 425 OFFCURVE",
"54 256 CURVE SMOOTH",
"54 87 OFFCURVE",
"134 -12 OFFCURVE",
"265 -12 CURVE SMOOTH",
"343 -12 OFFCURVE",
"394 25 OFFCURVE",
"421 82 CURVE",
"424 82 LINE"
);
},
{
closed = 1;
nodes = (
"176 39 OFFCURVE",
"115 110 OFFCURVE",
"115 220 CURVE SMOOTH",
"115 292 LINE SMOOTH",
"115 402 OFFCURVE",
"176 473 OFFCURVE",
"278 473 CURVE SMOOTH",
"357 473 OFFCURVE",
"424 426 OFFCURVE",
"424 359 CURVE SMOOTH",
"424 156 LINE SMOOTH",
"424 84 OFFCURVE",
"357 39 OFFCURVE",
"278 39 CURVE SMOOTH"
);
}
);
width = 574;
}
);
leftKerningGroup = a.alt01;
note = aringacute.alt01;
rightKerningGroup = a.alt01;
},
{
glyphname = atilde.alt01;
lastChange = "2019-02-02 11:40:47 +0000";
layers = (
{
layerId = "1053487F-6E39-46EB-834B-3FE95151DC2D";
paths = (
{
closed = 1;
nodes = (
"387 618 OFFCURVE",
"416 639 OFFCURVE",
"437 666 CURVE",
"412 695 LINE",
"391 676 OFFCURVE",
"374 665 OFFCURVE",
"351 665 CURVE SMOOTH",
"333 665 OFFCURVE",
"313 672 OFFCURVE",
"283 690 CURVE SMOOTH",
"257 706 OFFCURVE",
"234 718 OFFCURVE",
"204 718 CURVE SMOOTH",
"165 718 OFFCURVE",
"136 697 OFFCURVE",
"115 670 CURVE",
"140 641 LINE",
"161 660 OFFCURVE",
"178 671 OFFCURVE",
"201 671 CURVE SMOOTH",
"219 671 OFFCURVE",
"239 664 OFFCURVE",
"269 646 CURVE SMOOTH",
"295 630 OFFCURVE",
"318 618 OFFCURVE",
"348 618 CURVE SMOOTH"
);
},
{
closed = 1;
nodes = (
"424 0 LINE",
"481 0 LINE",
"481 512 LINE",
"424 512 LINE",
"424 430 LINE",
"421 430 LINE",
"396 487 OFFCURVE",
"343 524 OFFCURVE",
"265 524 CURVE SMOOTH",
"134 524 OFFCURVE",
"54 425 OFFCURVE",
"54 256 CURVE SMOOTH",
"54 87 OFFCURVE",
"134 -12 OFFCURVE",
"265 -12 CURVE SMOOTH",
"343 -12 OFFCURVE",
"394 25 OFFCURVE",
"421 82 CURVE",
"424 82 LINE"
);
},
{
closed = 1;
nodes = (
"176 39 OFFCURVE",
"115 110 OFFCURVE",
"115 220 CURVE SMOOTH",
"115 292 LINE SMOOTH",
"115 402 OFFCURVE",
"176 473 OFFCURVE",
"278 473 CURVE SMOOTH",
"357 473 OFFCURVE",
"424 426 OFFCURVE",
"424 359 CURVE SMOOTH",
"424 156 LINE SMOOTH",
"424 84 OFFCURVE",
"357 39 OFFCURVE",
"278 39 CURVE SMOOTH"
);
}
);
width = 574;
}
);
leftKerningGroup = a.alt01;
note = atilde.alt01;
rightKerningGroup = a.alt01;
},
{
glyphname = uni1EAF.alt01;
lastChange = "2019-02-02 11:40:47 +0000";
layers = (
{
layerId = "1053487F-6E39-46EB-834B-3FE95151DC2D";
paths = (
{
closed = 1;
nodes = (
"368 589 OFFCURVE",
"397 647 OFFCURVE",
"421 707 CURVE",
"388 723 LINE",
"369 693 LINE SMOOTH",
"345 653 OFFCURVE",
"324 632 OFFCURVE",
"276 632 CURVE SMOOTH",
"228 632 OFFCURVE",
"207 653 OFFCURVE",
"183 693 CURVE SMOOTH",
"164 723 LINE",
"131 707 LINE",
"155 647 OFFCURVE",
"184 589 OFFCURVE",
"276 589 CURVE SMOOTH"
);
},
{
closed = 1;
nodes = (
"384 854 LINE",
"334 879 LINE",
"239 716 LINE",
"275 698 LINE"
);
},
{
closed = 1;
nodes = (
"424 0 LINE",
"481 0 LINE",
"481 512 LINE",
"424 512 LINE",
"424 430 LINE",
"421 430 LINE",
"396 487 OFFCURVE",
"343 524 OFFCURVE",
"265 524 CURVE SMOOTH",
"134 524 OFFCURVE",
"54 425 OFFCURVE",
"54 256 CURVE SMOOTH",
"54 87 OFFCURVE",
"134 -12 OFFCURVE",
"265 -12 CURVE SMOOTH",
"343 -12 OFFCURVE",
"394 25 OFFCURVE",
"421 82 CURVE",
"424 82 LINE"
);
},
{
closed = 1;
nodes = (
"176 39 OFFCURVE",
"115 110 OFFCURVE",
"115 220 CURVE SMOOTH",
"115 292 LINE SMOOTH",
"115 402 OFFCURVE",
"176 473 OFFCURVE",
"278 473 CURVE SMOOTH",
"357 473 OFFCURVE",
"424 426 OFFCURVE",
"424 359 CURVE SMOOTH",
"424 156 LINE SMOOTH",
"424 84 OFFCURVE",
"357 39 OFFCURVE",
"278 39 CURVE SMOOTH"
);
}
);
width = 574;
}
);
leftKerningGroup = a.alt01;
note = uni1EAF.alt01;
rightKerningGroup = a.alt01;
},
{
glyphname = uni1EB7.alt01;
lastChange = "2019-02-02 11:40:47 +0000";
layers = (
{
layerId = "1053487F-6E39-46EB-834B-3FE95151DC2D";
paths = (
{
closed = 1;
nodes = (
"303 -155 OFFCURVE",
"316 -140 OFFCURVE",
"316 -118 CURVE SMOOTH",
"316 -110 LINE SMOOTH",
"316 -88 OFFCURVE",
"303 -73 OFFCURVE",
"276 -73 CURVE SMOOTH",
"249 -73 OFFCURVE",
"236 -88 OFFCURVE",
"236 -110 CURVE SMOOTH",
"236 -118 LINE SMOOTH",
"236 -140 OFFCURVE",
"249 -155 OFFCURVE",
"276 -155 CURVE SMOOTH"
);
},
{
closed = 1;
nodes = (
"368 600 OFFCURVE",
"395 660 OFFCURVE",
"420 722 CURVE",
"387 738 LINE",
"368 707 LINE SMOOTH",
"343 665 OFFCURVE",
"324 646 OFFCURVE",
"276 646 CURVE SMOOTH",
"228 646 OFFCURVE",
"209 665 OFFCURVE",
"184 707 CURVE SMOOTH",
"165 738 LINE",
"132 722 LINE",
"157 660 OFFCURVE",
"184 600 OFFCURVE",
"276 600 CURVE SMOOTH"
);
},
{
closed = 1;
nodes = (
"424 0 LINE",
"481 0 LINE",
"481 512 LINE",
"424 512 LINE",
"424 430 LINE",
"421 430 LINE",
"396 487 OFFCURVE",
"343 524 OFFCURVE",
"265 524 CURVE SMOOTH",
"134 524 OFFCURVE",
"54 425 OFFCURVE",
"54 256 CURVE SMOOTH",
"54 87 OFFCURVE",
"134 -12 OFFCURVE",
"265 -12 CURVE SMOOTH",
"343 -12 OFFCURVE",
"394 25 OFFCURVE",
"421 82 CURVE",
"424 82 LINE"
);
},
{
closed = 1;
nodes = (
"176 39 OFFCURVE",
"115 110 OFFCURVE",
"115 220 CURVE SMOOTH",
"115 292 LINE SMOOTH",
"115 402 OFFCURVE",
"176 473 OFFCURVE",
"278 473 CURVE SMOOTH",
"357 473 OFFCURVE",
"424 426 OFFCURVE",
"424 359 CURVE SMOOTH",
"424 156 LINE SMOOTH",
"424 84 OFFCURVE",
"357 39 OFFCURVE",
"278 39 CURVE SMOOTH"
);
}
);
width = 574;
}
);
leftKerningGroup = a.alt01;
note = uni1EB7.alt01;
rightKerningGroup = a.alt01;
},
{
glyphname = uni1EB1.alt01;
lastChange = "2019-02-02 11:40:47 +0000";
layers = (
{
layerId = "1053487F-6E39-46EB-834B-3FE95151DC2D";
paths = (
{
closed = 1;
nodes = (
"368 589 OFFCURVE",
"397 647 OFFCURVE",
"421 707 CURVE",
"388 723 LINE",
"369 693 LINE SMOOTH",
"345 653 OFFCURVE",
"324 632 OFFCURVE",
"276 632 CURVE SMOOTH",
"228 632 OFFCURVE",
"207 653 OFFCURVE",
"183 693 CURVE SMOOTH",
"164 723 LINE",
"131 707 LINE",
"155 647 OFFCURVE",
"184 589 OFFCURVE",
"276 589 CURVE SMOOTH"
);
},
{
closed = 1;
nodes = (
"277 698 LINE",
"313 716 LINE",
"218 879 LINE",
"168 854 LINE"
);
},
{
closed = 1;
nodes = (
"424 0 LINE",
"481 0 LINE",
"481 512 LINE",
"424 512 LINE",
"424 430 LINE",
"421 430 LINE",
"396 487 OFFCURVE",
"343 524 OFFCURVE",
"265 524 CURVE SMOOTH",
"134 524 OFFCURVE",
"54 425 OFFCURVE",
"54 256 CURVE SMOOTH",
"54 87 OFFCURVE",
"134 -12 OFFCURVE",
"265 -12 CURVE SMOOTH",
"343 -12 OFFCURVE",
"394 25 OFFCURVE",
"421 82 CURVE",
"424 82 LINE"
);
},
{
closed = 1;
nodes = (
"176 39 OFFCURVE",
"115 110 OFFCURVE",
"115 220 CURVE SMOOTH",
"115 292 LINE SMOOTH",
"115 402 OFFCURVE",
"176 473 OFFCURVE",
"278 473 CURVE SMOOTH",
"357 473 OFFCURVE",
"424 426 OFFCURVE",
"424 359 CURVE SMOOTH",
"424 156 LINE SMOOTH",
"424 84 OFFCURVE",
"357 39 OFFCURVE",
"278 39 CURVE SMOOTH"
);
}
);
width = 574;
}
);
leftKerningGroup = a.alt01;
note = uni1EB1.alt01;
rightKerningGroup = a.alt01;
},
{
glyphname = uni1EB3.alt01;
lastChange = "2019-02-02 11:40:47 +0000";
layers = (
{
layerId = "1053487F-6E39-46EB-834B-3FE95151DC2D";
paths = (
{
closed = 1;
nodes = (
"368 589 OFFCURVE",
"397 647 OFFCURVE",
"421 707 CURVE",
"388 723 LINE",
"369 693 LINE SMOOTH",
"345 653 OFFCURVE",
"324 632 OFFCURVE",
"276 632 CURVE SMOOTH",
"228 632 OFFCURVE",
"207 653 OFFCURVE",
"183 693 CURVE SMOOTH",
"164 723 LINE",
"131 707 LINE",
"155 647 OFFCURVE",
"184 589 OFFCURVE",
"276 589 CURVE SMOOTH"
);
},
{
closed = 1;
nodes = (
"193 825 LINE",
"313 825 LINE",
"246 710 LINE",
"280 693 LINE",
"313 741 LINE SMOOTH",
"342 781 OFFCURVE",
"355 806 OFFCURVE",
"355 827 CURVE SMOOTH",
"355 849 OFFCURVE",
"341 867 OFFCURVE",
"304 867 CURVE SMOOTH",
"193 867 LINE"
);
},
{
closed = 1;
nodes = (
"424 0 LINE",
"481 0 LINE",
"481 512 LINE",
"424 512 LINE",
"424 430 LINE",
"421 430 LINE",
"396 487 OFFCURVE",
"343 524 OFFCURVE",
"265 524 CURVE SMOOTH",
"134 524 OFFCURVE",
"54 425 OFFCURVE",
"54 256 CURVE SMOOTH",
"54 87 OFFCURVE",
"134 -12 OFFCURVE",
"265 -12 CURVE SMOOTH",
"343 -12 OFFCURVE",
"394 25 OFFCURVE",
"421 82 CURVE",
"424 82 LINE"
);
},
{
closed = 1;
nodes = (
"176 39 OFFCURVE",
"115 110 OFFCURVE",
"115 220 CURVE SMOOTH",
"115 292 LINE SMOOTH",
"115 402 OFFCURVE",
"176 473 OFFCURVE",
"278 473 CURVE SMOOTH",
"357 473 OFFCURVE",
"424 426 OFFCURVE",
"424 359 CURVE SMOOTH",
"424 156 LINE SMOOTH",
"424 84 OFFCURVE",
"357 39 OFFCURVE",
"278 39 CURVE SMOOTH"
);
}
);
width = 574;
}
);
leftKerningGroup = a.alt01;
note = uni1EB3.alt01;
rightKerningGroup = a.alt01;
},
{
glyphname = uni1EB5.alt01;
lastChange = "2019-02-02 11:40:47 +0000";
layers = (
{
layerId = "1053487F-6E39-46EB-834B-3FE95151DC2D";
paths = (
{
closed = 1;
nodes = (
"368 589 OFFCURVE",
"397 647 OFFCURVE",
"421 707 CURVE",
"388 723 LINE",
"369 693 LINE SMOOTH",
"345 653 OFFCURVE",
"324 632 OFFCURVE",
"276 632 CURVE SMOOTH",
"228 632 OFFCURVE",
"207 653 OFFCURVE",
"183 693 CURVE SMOOTH",
"164 723 LINE",
"131 707 LINE",
"155 647 OFFCURVE",
"184 589 OFFCURVE",
"276 589 CURVE SMOOTH"
);
},
{
closed = 1;
nodes = (
"387 768 OFFCURVE",
"416 789 OFFCURVE",
"436 816 CURVE",
"412 843 LINE",
"392 824 OFFCURVE",
"374 813 OFFCURVE",
"352 813 CURVE SMOOTH",
"334 813 OFFCURVE",
"314 820 OFFCURVE",
"283 838 CURVE SMOOTH",
"257 853 OFFCURVE",
"235 866 OFFCURVE",
"204 866 CURVE SMOOTH",
"165 866 OFFCURVE",
"136 845 OFFCURVE",
"116 818 CURVE",
"140 791 LINE",
"160 810 OFFCURVE",
"178 821 OFFCURVE",
"200 821 CURVE SMOOTH",
"218 821 OFFCURVE",
"238 814 OFFCURVE",
"269 796 CURVE SMOOTH",
"295 781 OFFCURVE",
"317 768 OFFCURVE",
"348 768 CURVE SMOOTH"
);
},
{
closed = 1;
nodes = (
"424 0 LINE",
"481 0 LINE",
"481 512 LINE",
"424 512 LINE",
"424 430 LINE",
"421 430 LINE",
"396 487 OFFCURVE",
"343 524 OFFCURVE",
"265 524 CURVE SMOOTH",
"134 524 OFFCURVE",
"54 425 OFFCURVE",
"54 256 CURVE SMOOTH",
"54 87 OFFCURVE",
"134 -12 OFFCURVE",
"265 -12 CURVE SMOOTH",
"343 -12 OFFCURVE",
"394 25 OFFCURVE",
"421 82 CURVE",
"424 82 LINE"
);
},
{
closed = 1;
nodes = (
"176 39 OFFCURVE",
"115 110 OFFCURVE",
"115 220 CURVE SMOOTH",
"115 292 LINE SMOOTH",
"115 402 OFFCURVE",
"176 473 OFFCURVE",
"278 473 CURVE SMOOTH",
"357 473 OFFCURVE",
"424 426 OFFCURVE",
"424 359 CURVE SMOOTH",
"424 156 LINE SMOOTH",
"424 84 OFFCURVE",
"357 39 OFFCURVE",
"278 39 CURVE SMOOTH"
);
}
);
width = 574;
}
);
leftKerningGroup = a.alt01;
note = uni1EB5.alt01;
rightKerningGroup = a.alt01;
},
{
glyphname = uni1EA5.alt01;
lastChange = "2019-02-02 11:40:47 +0000";
layers = (
{
layerId = "1053487F-6E39-46EB-834B-3FE95151DC2D";
paths = (
{
closed = 1;
nodes = (
"524 854 LINE",
"474 879 LINE",
"379 716 LINE",
"414 698 LINE"
);
},
{
closed = 1;
nodes = (
"241 741 LINE",
"124 607 LINE",
"154 585 LINE",
"276 703 LINE",
"398 585 LINE",
"428 607 LINE",
"311 741 LINE"
);
},
{
closed = 1;
nodes = (
"424 0 LINE",
"481 0 LINE",
"481 512 LINE",
"424 512 LINE",
"424 430 LINE",
"421 430 LINE",
"396 487 OFFCURVE",
"343 524 OFFCURVE",
"265 524 CURVE SMOOTH",
"134 524 OFFCURVE",
"54 425 OFFCURVE",
"54 256 CURVE SMOOTH",
"54 87 OFFCURVE",
"134 -12 OFFCURVE",
"265 -12 CURVE SMOOTH",
"343 -12 OFFCURVE",
"394 25 OFFCURVE",
"421 82 CURVE",
"424 82 LINE"
);
},
{
closed = 1;
nodes = (
"176 39 OFFCURVE",
"115 110 OFFCURVE",
"115 220 CURVE SMOOTH",
"115 292 LINE SMOOTH",
"115 402 OFFCURVE",
"176 473 OFFCURVE",
"278 473 CURVE SMOOTH",
"357 473 OFFCURVE",
"424 426 OFFCURVE",
"424 359 CURVE SMOOTH",
"424 156 LINE SMOOTH",
"424 84 OFFCURVE",
"357 39 OFFCURVE",
"278 39 CURVE SMOOTH"
);
}
);
width = 574;
}
);
leftKerningGroup = a.alt01;
note = uni1EA5.alt01;
rightKerningGroup = a.alt01;
},
{
glyphname = uni1EAD.alt01;
lastChange = "2019-02-02 11:40:47 +0000";
layers = (
{
layerId = "1053487F-6E39-46EB-834B-3FE95151DC2D";
paths = (
{
closed = 1;
nodes = (
"303 -155 OFFCURVE",
"316 -140 OFFCURVE",
"316 -118 CURVE SMOOTH",
"316 -110 LINE SMOOTH",
"316 -88 OFFCURVE",
"303 -73 OFFCURVE",
"276 -73 CURVE SMOOTH",
"249 -73 OFFCURVE",
"236 -88 OFFCURVE",
"236 -110 CURVE SMOOTH",
"236 -118 LINE SMOOTH",
"236 -140 OFFCURVE",
"249 -155 OFFCURVE",
"276 -155 CURVE SMOOTH"
);
},
{
closed = 1;
nodes = (
"241 756 LINE",
"123 617 LINE",
"155 594 LINE",
"276 715 LINE",
"397 594 LINE",
"429 617 LINE",
"311 756 LINE"
);
},
{
closed = 1;
nodes = (
"424 0 LINE",
"481 0 LINE",
"481 512 LINE",
"424 512 LINE",
"424 430 LINE",
"421 430 LINE",
"396 487 OFFCURVE",
"343 524 OFFCURVE",
"265 524 CURVE SMOOTH",
"134 524 OFFCURVE",
"54 425 OFFCURVE",
"54 256 CURVE SMOOTH",
"54 87 OFFCURVE",
"134 -12 OFFCURVE",
"265 -12 CURVE SMOOTH",
"343 -12 OFFCURVE",
"394 25 OFFCURVE",
"421 82 CURVE",
"424 82 LINE"
);
},
{
closed = 1;
nodes = (
"176 39 OFFCURVE",
"115 110 OFFCURVE",
"115 220 CURVE SMOOTH",
"115 292 LINE SMOOTH",
"115 402 OFFCURVE",
"176 473 OFFCURVE",
"278 473 CURVE SMOOTH",
"357 473 OFFCURVE",
"424 426 OFFCURVE",
"424 359 CURVE SMOOTH",
"424 156 LINE SMOOTH",
"424 84 OFFCURVE",
"357 39 OFFCURVE",
"278 39 CURVE SMOOTH"
);
}
);
width = 574;
}
);
leftKerningGroup = a.alt01;
note = uni1EAD.alt01;
rightKerningGroup = a.alt01;
},
{
glyphname = uni1EA7.alt01;
lastChange = "2019-02-02 11:40:47 +0000";
layers = (
{
layerId = "1053487F-6E39-46EB-834B-3FE95151DC2D";
paths = (
{
closed = 1;
nodes = (
"138 698 LINE",
"173 716 LINE",
"78 879 LINE",
"28 854 LINE"
);
},
{
closed = 1;
nodes = (
"241 741 LINE",
"124 607 LINE",
"154 585 LINE",
"276 703 LINE",
"398 585 LINE",
"428 607 LINE",
"311 741 LINE"
);
},
{
closed = 1;
nodes = (
"424 0 LINE",
"481 0 LINE",
"481 512 LINE",
"424 512 LINE",
"424 430 LINE",
"421 430 LINE",
"396 487 OFFCURVE",
"343 524 OFFCURVE",
"265 524 CURVE SMOOTH",
"134 524 OFFCURVE",
"54 425 OFFCURVE",
"54 256 CURVE SMOOTH",
"54 87 OFFCURVE",
"134 -12 OFFCURVE",
"265 -12 CURVE SMOOTH",
"343 -12 OFFCURVE",
"394 25 OFFCURVE",
"421 82 CURVE",
"424 82 LINE"
);
},
{
closed = 1;
nodes = (
"176 39 OFFCURVE",
"115 110 OFFCURVE",
"115 220 CURVE SMOOTH",
"115 292 LINE SMOOTH",
"115 402 OFFCURVE",
"176 473 OFFCURVE",
"278 473 CURVE SMOOTH",
"357 473 OFFCURVE",
"424 426 OFFCURVE",
"424 359 CURVE SMOOTH",
"424 156 LINE SMOOTH",
"424 84 OFFCURVE",
"357 39 OFFCURVE",
"278 39 CURVE SMOOTH"
);
}
);
width = 574;
}
);
leftKerningGroup = a.alt01;
note = uni1EA7.alt01;
rightKerningGroup = a.alt01;
},
{
glyphname = uni1EA9.alt01;
lastChange = "2019-02-02 11:40:47 +0000";
layers = (
{
layerId = "1053487F-6E39-46EB-834B-3FE95151DC2D";
paths = (
{
closed = 1;
nodes = (
"322 825 LINE",
"451 825 LINE",
"384 710 LINE",
"418 693 LINE",
"451 741 LINE SMOOTH",
"480 781 OFFCURVE",
"493 806 OFFCURVE",
"493 827 CURVE SMOOTH",
"493 849 OFFCURVE",
"479 867 OFFCURVE",
"442 867 CURVE SMOOTH",
"322 867 LINE"
);
},
{
closed = 1;
nodes = (
"241 741 LINE",
"124 607 LINE",
"154 585 LINE",
"276 703 LINE",
"398 585 LINE",
"428 607 LINE",
"311 741 LINE"
);
},
{
closed = 1;
nodes = (
"424 0 LINE",
"481 0 LINE",
"481 512 LINE",
"424 512 LINE",
"424 430 LINE",
"421 430 LINE",
"396 487 OFFCURVE",
"343 524 OFFCURVE",
"265 524 CURVE SMOOTH",
"134 524 OFFCURVE",
"54 425 OFFCURVE",
"54 256 CURVE SMOOTH",
"54 87 OFFCURVE",
"134 -12 OFFCURVE",
"265 -12 CURVE SMOOTH",
"343 -12 OFFCURVE",
"394 25 OFFCURVE",
"421 82 CURVE",
"424 82 LINE"
);
},
{
closed = 1;
nodes = (
"176 39 OFFCURVE",
"115 110 OFFCURVE",
"115 220 CURVE SMOOTH",
"115 292 LINE SMOOTH",
"115 402 OFFCURVE",
"176 473 OFFCURVE",
"278 473 CURVE SMOOTH",
"357 473 OFFCURVE",
"424 426 OFFCURVE",
"424 359 CURVE SMOOTH",
"424 156 LINE SMOOTH",
"424 84 OFFCURVE",
"357 39 OFFCURVE",
"278 39 CURVE SMOOTH"
);
}
);
width = 574;
}
);
leftKerningGroup = a.alt01;
note = uni1EA9.alt01;
rightKerningGroup = a.alt01;
},
{
glyphname = uni1EAB.alt01;
lastChange = "2019-02-02 11:40:47 +0000";
layers = (
{
layerId = "1053487F-6E39-46EB-834B-3FE95151DC2D";
paths = (
{
closed = 1;
nodes = (
"165 870 OFFCURVE",
"136 849 OFFCURVE",
"116 822 CURVE",
"140 795 LINE",
"160 814 OFFCURVE",
"178 825 OFFCURVE",
"200 825 CURVE SMOOTH",
"218 825 OFFCURVE",
"238 818 OFFCURVE",
"269 800 CURVE SMOOTH",
"295 785 OFFCURVE",
"317 772 OFFCURVE",
"348 772 CURVE SMOOTH",
"387 772 OFFCURVE",
"416 793 OFFCURVE",
"436 820 CURVE",
"412 847 LINE",
"392 828 OFFCURVE",
"374 817 OFFCURVE",
"352 817 CURVE SMOOTH",
"334 817 OFFCURVE",
"314 824 OFFCURVE",
"283 842 CURVE SMOOTH",
"257 857 OFFCURVE",
"235 870 OFFCURVE",
"204 870 CURVE SMOOTH"
);
},
{
closed = 1;
nodes = (
"241 741 LINE",
"124 607 LINE",
"154 585 LINE",
"276 703 LINE",
"398 585 LINE",
"428 607 LINE",
"311 741 LINE"
);
},
{
closed = 1;
nodes = (
"424 0 LINE",
"481 0 LINE",
"481 512 LINE",
"424 512 LINE",
"424 430 LINE",
"421 430 LINE",
"396 487 OFFCURVE",
"343 524 OFFCURVE",
"265 524 CURVE SMOOTH",
"134 524 OFFCURVE",
"54 425 OFFCURVE",
"54 256 CURVE SMOOTH",
"54 87 OFFCURVE",
"134 -12 OFFCURVE",
"265 -12 CURVE SMOOTH",
"343 -12 OFFCURVE",
"394 25 OFFCURVE",
"421 82 CURVE",
"424 82 LINE"
);
},
{
closed = 1;
nodes = (
"176 39 OFFCURVE",
"115 110 OFFCURVE",
"115 220 CURVE SMOOTH",
"115 292 LINE SMOOTH",
"115 402 OFFCURVE",
"176 473 OFFCURVE",
"278 473 CURVE SMOOTH",
"357 473 OFFCURVE",
"424 426 OFFCURVE",
"424 359 CURVE SMOOTH",
"424 156 LINE SMOOTH",
"424 84 OFFCURVE",
"357 39 OFFCURVE",
"278 39 CURVE SMOOTH"
);
}
);
width = 574;
}
);
leftKerningGroup = a.alt01;
note = uni1EAB.alt01;
rightKerningGroup = a.alt01;
},
